G04 Layer: TopPasteMaskLayer*
G04 EasyEDA v6.4.5, 2020-09-10T22:57:59+08:00*
G04 36a55f9fcc144517bb6f4fc5ac697fe8,26442c311dbe4305b3cc573dcfb82818,10*
G04 Gerber Generator version 0.2*
G04 Scale: 100 percent, Rotated: No, Reflected: No *
G04 Dimensions in millimeters *
G04 leading zeros omitted , absolute positions ,3 integer and 3 decimal *
%FSLAX33Y33*%
%MOMM*%
G90*
G71D02*

%ADD14C,0.599999*%
%ADD16R,0.999998X1.550010*%
%ADD17R,1.199998X1.899996*%
%ADD19R,1.550010X0.999998*%
%ADD20R,0.399999X1.199998*%

%LPD*%
G54D14*
G01X27559Y18373D02*
G01X27559Y19573D01*
G01X26289Y18373D02*
G01X26289Y19573D01*
G01X25019Y18373D02*
G01X25019Y19573D01*
G01X23749Y18373D02*
G01X23749Y19573D01*
G01X22479Y18373D02*
G01X22479Y19573D01*
G01X21209Y18373D02*
G01X21209Y19573D01*
G01X19939Y18373D02*
G01X19939Y19573D01*
G01X18669Y18373D02*
G01X18669Y19573D01*
G01X27559Y12430D02*
G01X27559Y13630D01*
G01X26289Y12430D02*
G01X26289Y13630D01*
G01X25019Y12430D02*
G01X25019Y13630D01*
G01X23749Y12430D02*
G01X23749Y13630D01*
G01X22479Y12430D02*
G01X22479Y13630D01*
G01X21209Y12430D02*
G01X21209Y13630D01*
G01X19939Y12430D02*
G01X19939Y13630D01*
G01X18669Y12430D02*
G01X18669Y13630D01*
G54D16*
G01X33544Y31877D03*
G01X35543Y31877D03*
G01X34714Y42809D03*
G01X36714Y42809D03*
G01X34687Y38481D03*
G01X36686Y38481D03*
G36*
G01X35043Y19444D02*
G01X36043Y19444D01*
G01X36043Y17893D01*
G01X35043Y17893D01*
G01X35043Y19444D01*
G37*
G36*
G01X33044Y19444D02*
G01X34044Y19444D01*
G01X34044Y17893D01*
G01X33044Y17893D01*
G01X33044Y19444D01*
G37*
G36*
G01X35043Y15126D02*
G01X36043Y15126D01*
G01X36043Y13575D01*
G01X35043Y13575D01*
G01X35043Y15126D01*
G37*
G36*
G01X33044Y15126D02*
G01X34044Y15126D01*
G01X34044Y13575D01*
G01X33044Y13575D01*
G01X33044Y15126D01*
G37*
G36*
G01X35043Y10808D02*
G01X36043Y10808D01*
G01X36043Y9257D01*
G01X35043Y9257D01*
G01X35043Y10808D01*
G37*
G36*
G01X33044Y10808D02*
G01X34044Y10808D01*
G01X34044Y9257D01*
G01X33044Y9257D01*
G01X33044Y10808D01*
G37*
G36*
G01X33044Y6617D02*
G01X34044Y6617D01*
G01X34044Y5066D01*
G01X33044Y5066D01*
G01X33044Y6617D01*
G37*
G36*
G01X35043Y6617D02*
G01X36043Y6617D01*
G01X36043Y5066D01*
G01X35043Y5066D01*
G01X35043Y6617D01*
G37*
G01X28050Y41402D03*
G01X26051Y41402D03*
G54D17*
G01X11632Y25146D03*
G01X8432Y25146D03*
G01X11632Y14097D03*
G01X8432Y14097D03*
G36*
G01X1054Y25742D02*
G01X5549Y25742D01*
G01X5549Y24549D01*
G01X1054Y24549D01*
G01X1054Y25742D01*
G37*
G36*
G01X1054Y14693D02*
G01X5549Y14693D01*
G01X5549Y13500D01*
G01X1054Y13500D01*
G01X1054Y14693D01*
G37*
G54D19*
G01X15367Y26526D03*
G01X15367Y24527D03*
G54D16*
G01X35543Y23114D03*
G01X33544Y23114D03*
G01X35543Y27305D03*
G01X33544Y27305D03*
G54D20*
G01X19367Y31690D03*
G01X20002Y31690D03*
G01X20637Y31690D03*
G01X21272Y31690D03*
G01X21907Y31690D03*
G01X22542Y31690D03*
G01X23177Y31690D03*
G01X23812Y31690D03*
G01X24447Y31690D03*
G01X25082Y31690D03*
G01X25717Y31690D03*
G01X26352Y31690D03*
G01X26352Y36889D03*
G01X25717Y36889D03*
G01X25082Y36889D03*
G01X24447Y36889D03*
G01X23812Y36889D03*
G01X23177Y36889D03*
G01X22542Y36889D03*
G01X21907Y36889D03*
G01X21272Y36889D03*
G01X20637Y36889D03*
G01X20002Y36889D03*
G01X19367Y36889D03*
M00*
M02*
