G04 Layer: TopSilkLayer*
G04 EasyEDA v6.4.5, 2020-09-10T22:57:59+08:00*
G04 36a55f9fcc144517bb6f4fc5ac697fe8,26442c311dbe4305b3cc573dcfb82818,10*
G04 Gerber Generator version 0.2*
G04 Scale: 100 percent, Rotated: No, Reflected: No *
G04 Dimensions in millimeters *
G04 leading zeros omitted , absolute positions ,3 integer and 3 decimal *
%FSLAX33Y33*%
%MOMM*%
G90*
G71D02*

%ADD10C,0.254000*%
%ADD12C,0.499999*%
%ADD28C,0.203200*%
%ADD29C,0.202999*%
%ADD30C,0.099060*%
%ADD31C,0.149987*%
%ADD32C,0.152400*%

%LPD*%
G54D10*
G01X35043Y30857D02*
G01X36294Y30857D01*
G01X35043Y32896D02*
G01X36294Y32896D01*
G01X34044Y30857D02*
G01X32793Y30857D01*
G01X34044Y32896D02*
G01X32793Y32896D01*
G01X36294Y30857D02*
G01X36294Y32896D01*
G01X32793Y30857D02*
G01X32793Y32896D01*
G01X26440Y26958D02*
G01X26440Y24858D01*
G01X26440Y26958D02*
G01X20440Y26958D01*
G01X26440Y24858D02*
G01X20440Y24858D01*
G01X20440Y26958D02*
G01X20440Y24858D01*
G01X26440Y26534D02*
G01X27321Y26534D01*
G01X26440Y26134D02*
G01X27371Y26134D01*
G01X26440Y25678D02*
G01X27369Y25678D01*
G01X26440Y25175D02*
G01X27353Y25175D01*
G01X31647Y33076D02*
G01X37948Y33076D01*
G01X37948Y33076D02*
G01X37948Y30677D01*
G01X37948Y30677D02*
G01X31647Y30677D01*
G01X31647Y30677D02*
G01X31647Y33076D01*
G01X36214Y41789D02*
G01X37465Y41789D01*
G01X36214Y43829D02*
G01X37465Y43829D01*
G01X35214Y41789D02*
G01X33964Y41789D01*
G01X35214Y43829D02*
G01X33964Y43829D01*
G01X37465Y41789D02*
G01X37465Y43829D01*
G01X33964Y41789D02*
G01X33964Y43829D01*
G01X36186Y37461D02*
G01X37437Y37461D01*
G01X36186Y39500D02*
G01X37437Y39500D01*
G01X35187Y37461D02*
G01X33936Y37461D01*
G01X35187Y39500D02*
G01X33936Y39500D01*
G01X37437Y37461D02*
G01X37437Y39500D01*
G01X33936Y37461D02*
G01X33936Y39500D01*
G01X34044Y19688D02*
G01X32793Y19688D01*
G01X34044Y17649D02*
G01X32793Y17649D01*
G01X35043Y19688D02*
G01X36294Y19688D01*
G01X35043Y17649D02*
G01X36294Y17649D01*
G01X32793Y19688D02*
G01X32793Y17649D01*
G01X36294Y19688D02*
G01X36294Y17649D01*
G01X34044Y15370D02*
G01X32793Y15370D01*
G01X34044Y13331D02*
G01X32793Y13331D01*
G01X35043Y15370D02*
G01X36294Y15370D01*
G01X35043Y13331D02*
G01X36294Y13331D01*
G01X32793Y15370D02*
G01X32793Y13331D01*
G01X36294Y15370D02*
G01X36294Y13331D01*
G01X34044Y11052D02*
G01X32793Y11052D01*
G01X34044Y9013D02*
G01X32793Y9013D01*
G01X35043Y11052D02*
G01X36294Y11052D01*
G01X35043Y9013D02*
G01X36294Y9013D01*
G01X32793Y11052D02*
G01X32793Y9013D01*
G01X36294Y11052D02*
G01X36294Y9013D01*
G01X13335Y22987D02*
G01X13335Y28067D01*
G01X17399Y22987D02*
G01X17399Y28067D01*
G01X13335Y22987D02*
G01X14335Y22987D01*
G01X16398Y22987D02*
G01X17399Y22987D01*
G01X13335Y28067D02*
G01X14335Y28067D01*
G01X16398Y28067D02*
G01X17399Y28067D01*
G01X36294Y6642D02*
G01X36294Y5042D01*
G01X32793Y6642D02*
G01X32793Y5041D01*
G01X35043Y4801D02*
G01X36093Y4801D01*
G01X35043Y6882D02*
G01X36093Y6882D01*
G01X34044Y4801D02*
G01X32994Y4801D01*
G01X34044Y6882D02*
G01X32994Y6882D01*
G01X32793Y6661D02*
G01X32793Y6642D01*
G01X32793Y6681D02*
G01X32793Y6642D01*
G01X32793Y5002D02*
G01X32793Y5041D01*
G01X36294Y6681D02*
G01X36294Y6642D01*
G01X36294Y5002D02*
G01X36294Y5042D01*
G01X25300Y40601D02*
G01X25300Y42201D01*
G01X28801Y40601D02*
G01X28801Y42202D01*
G01X26551Y42442D02*
G01X25501Y42442D01*
G01X26551Y40361D02*
G01X25501Y40361D01*
G01X27550Y42442D02*
G01X28600Y42442D01*
G01X27550Y40361D02*
G01X28600Y40361D01*
G01X28801Y40582D02*
G01X28801Y40601D01*
G01X28801Y40562D02*
G01X28801Y40601D01*
G01X28801Y42241D02*
G01X28801Y42202D01*
G01X25300Y40562D02*
G01X25300Y40601D01*
G01X25300Y42241D02*
G01X25300Y42201D01*
G01X7532Y24146D02*
G01X7532Y26145D01*
G01X11032Y23946D02*
G01X12232Y23946D01*
G01X11032Y26345D02*
G01X12232Y26345D01*
G01X9032Y23946D02*
G01X7833Y23946D01*
G01X9032Y26345D02*
G01X7833Y26345D01*
G01X12532Y24146D02*
G01X12532Y26145D01*
G01X12332Y23946D02*
G01X12232Y23946D01*
G01X12332Y26345D02*
G01X12232Y26345D01*
G01X7732Y23946D02*
G01X7833Y23946D01*
G01X7732Y26345D02*
G01X7833Y26345D01*
G01X7532Y13097D02*
G01X7532Y15096D01*
G01X11032Y12897D02*
G01X12232Y12897D01*
G01X11032Y15296D02*
G01X12232Y15296D01*
G01X9032Y12897D02*
G01X7833Y12897D01*
G01X9032Y15296D02*
G01X7833Y15296D01*
G01X12532Y13097D02*
G01X12532Y15096D01*
G01X12332Y12897D02*
G01X12232Y12897D01*
G01X12332Y15296D02*
G01X12232Y15296D01*
G01X7732Y12897D02*
G01X7833Y12897D01*
G01X7732Y15296D02*
G01X7833Y15296D01*
G54D28*
G01X41275Y13589D02*
G01X41275Y11684D01*
G01X43815Y11684D01*
G01X43815Y37084D01*
G01X41275Y37084D01*
G54D29*
G01X41275Y37084D02*
G01X41275Y13589D01*
G54D28*
G01X48768Y13589D02*
G01X48768Y11684D01*
G01X51308Y11684D01*
G01X51308Y37084D01*
G01X48768Y37084D01*
G54D29*
G01X48768Y37084D02*
G01X48768Y13589D01*
G54D10*
G01X28064Y14152D02*
G01X28064Y17852D01*
G01X28064Y17852D02*
G01X18163Y17852D01*
G01X18163Y16764D01*
G01X18161Y15367D02*
G01X18161Y14152D01*
G01X18163Y14152D01*
G01X28064Y14152D01*
G54D30*
G01X-8498Y22346D02*
G01X-497Y22346D01*
G01X-497Y21846D02*
G01X1000Y21846D01*
G01X-8498Y27945D02*
G01X-497Y27945D01*
G01X-497Y28445D02*
G01X1000Y28445D01*
G01X1000Y21846D02*
G01X1000Y28445D01*
G01X-8498Y22346D02*
G01X-8498Y27945D01*
G01X-497Y21846D02*
G01X-497Y28445D01*
G01X-8498Y11297D02*
G01X-497Y11297D01*
G01X-497Y10797D02*
G01X1000Y10797D01*
G01X-8498Y16896D02*
G01X-497Y16896D01*
G01X-497Y17396D02*
G01X1000Y17396D01*
G01X1000Y10797D02*
G01X1000Y17396D01*
G01X-8498Y11297D02*
G01X-8498Y16896D01*
G01X-497Y10797D02*
G01X-497Y17396D01*
G54D10*
G01X39243Y8001D02*
G01X44323Y8001D01*
G01X39243Y3937D02*
G01X44323Y3937D01*
G01X39243Y8001D02*
G01X39243Y7000D01*
G01X39243Y4937D02*
G01X39243Y3937D01*
G01X44323Y8001D02*
G01X44323Y7000D01*
G01X44323Y4937D02*
G01X44323Y3937D01*
G01X16167Y23776D02*
G01X14567Y23776D01*
G01X16167Y27277D02*
G01X14566Y27277D01*
G01X14326Y25027D02*
G01X14326Y23977D01*
G01X16407Y25027D02*
G01X16407Y23977D01*
G01X14326Y26026D02*
G01X14326Y27076D01*
G01X16407Y26026D02*
G01X16407Y27076D01*
G01X16186Y27277D02*
G01X16167Y27277D01*
G01X16206Y27277D02*
G01X16167Y27277D01*
G01X14527Y27277D02*
G01X14566Y27277D01*
G01X16206Y23776D02*
G01X16167Y23776D01*
G01X14527Y23776D02*
G01X14567Y23776D01*
G01X32793Y22313D02*
G01X32793Y23913D01*
G01X36294Y22313D02*
G01X36294Y23914D01*
G01X34044Y24154D02*
G01X32994Y24154D01*
G01X34044Y22073D02*
G01X32994Y22073D01*
G01X35043Y24154D02*
G01X36093Y24154D01*
G01X35043Y22073D02*
G01X36093Y22073D01*
G01X36294Y22294D02*
G01X36294Y22313D01*
G01X36294Y22274D02*
G01X36294Y22313D01*
G01X36294Y23953D02*
G01X36294Y23914D01*
G01X32793Y22274D02*
G01X32793Y22313D01*
G01X32793Y23953D02*
G01X32793Y23913D01*
G01X32793Y26504D02*
G01X32793Y28104D01*
G01X36294Y26504D02*
G01X36294Y28105D01*
G01X34044Y28345D02*
G01X32994Y28345D01*
G01X34044Y26264D02*
G01X32994Y26264D01*
G01X35043Y28345D02*
G01X36093Y28345D01*
G01X35043Y26264D02*
G01X36093Y26264D01*
G01X36294Y26485D02*
G01X36294Y26504D01*
G01X36294Y26465D02*
G01X36294Y26504D01*
G01X36294Y28144D02*
G01X36294Y28105D01*
G01X32793Y26465D02*
G01X32793Y26504D01*
G01X32793Y28144D02*
G01X32793Y28104D01*
G54D31*
G01X18943Y36366D02*
G01X18384Y36366D01*
G01X18384Y32215D01*
G01X18859Y32215D01*
G01X18859Y31090D01*
G01X26776Y32215D02*
G01X27335Y32215D01*
G01X27335Y36366D01*
G01X26776Y36366D01*
G54D10*
G01X32144Y28905D02*
G01X36943Y28905D01*
G01X36943Y25704D02*
G01X32144Y25704D01*
G01X32144Y25704D02*
G01X32144Y26182D01*
G01X32144Y28427D02*
G01X32144Y28905D01*
G01X36943Y28905D02*
G01X36943Y28427D01*
G01X36943Y26182D02*
G01X36943Y25704D01*
G01X32144Y24841D02*
G01X36943Y24841D01*
G01X36943Y21640D02*
G01X32144Y21640D01*
G01X32144Y21640D02*
G01X32144Y22118D01*
G01X32144Y24363D02*
G01X32144Y24841D01*
G01X36943Y24841D02*
G01X36943Y24363D01*
G01X36943Y22118D02*
G01X36943Y21640D01*
G01X29450Y39801D02*
G01X24651Y39801D01*
G01X24651Y43002D02*
G01X29450Y43002D01*
G01X29450Y43002D02*
G01X29450Y42524D01*
G01X29450Y40279D02*
G01X29450Y39801D01*
G01X24651Y39801D02*
G01X24651Y40279D01*
G01X24651Y42524D02*
G01X24651Y43002D01*
G01X41807Y44252D02*
G01X48108Y44252D01*
G01X48108Y44252D02*
G01X48108Y41853D01*
G01X48108Y41853D02*
G01X41807Y41853D01*
G01X41807Y41853D02*
G01X41807Y44252D01*
G01X41807Y40315D02*
G01X48108Y40315D01*
G01X48108Y40315D02*
G01X48108Y37916D01*
G01X48108Y37916D02*
G01X41807Y37916D01*
G01X41807Y37916D02*
G01X41807Y40315D01*
G01X37948Y17469D02*
G01X31647Y17469D01*
G01X31647Y17469D02*
G01X31647Y19868D01*
G01X31647Y19868D02*
G01X37948Y19868D01*
G01X37948Y19868D02*
G01X37948Y17469D01*
G01X37948Y13024D02*
G01X31647Y13024D01*
G01X31647Y13024D02*
G01X31647Y15423D01*
G01X31647Y15423D02*
G01X37948Y15423D01*
G01X37948Y15423D02*
G01X37948Y13024D01*
G01X37948Y8833D02*
G01X31647Y8833D01*
G01X31647Y8833D02*
G01X31647Y11232D01*
G01X31647Y11232D02*
G01X37948Y11232D01*
G01X37948Y11232D02*
G01X37948Y8833D01*
G54D32*
G01X44069Y43489D02*
G01X44173Y43543D01*
G01X44328Y43698D01*
G01X44328Y42608D01*
G01X44670Y43698D02*
G01X44670Y42608D01*
G01X44670Y43698D02*
G01X45087Y42608D01*
G01X45504Y43698D02*
G01X45087Y42608D01*
G01X45504Y43698D02*
G01X45504Y42608D01*
G01X44196Y39552D02*
G01X44300Y39606D01*
G01X44455Y39761D01*
G01X44455Y38671D01*
G01X44797Y39761D02*
G01X44797Y38671D01*
G01X44797Y39761D02*
G01X45214Y38671D01*
G01X45631Y39761D02*
G01X45214Y38671D01*
G01X45631Y39761D02*
G01X45631Y38671D01*
G01X52196Y36350D02*
G01X52196Y35261D01*
G01X52196Y36350D02*
G01X52560Y36350D01*
G01X52717Y36300D01*
G01X52819Y36196D01*
G01X52872Y36091D01*
G01X52923Y35934D01*
G01X52923Y35675D01*
G01X52872Y35520D01*
G01X52819Y35416D01*
G01X52717Y35312D01*
G01X52560Y35261D01*
G01X52196Y35261D01*
G01X53266Y36350D02*
G01X53266Y35261D01*
G01X53266Y36350D02*
G01X53941Y36350D01*
G01X53266Y35832D02*
G01X53682Y35832D01*
G01X55013Y36196D02*
G01X54909Y36300D01*
G01X54752Y36350D01*
G01X54546Y36350D01*
G01X54388Y36300D01*
G01X54284Y36196D01*
G01X54284Y36091D01*
G01X54338Y35987D01*
G01X54388Y35934D01*
G01X54493Y35883D01*
G01X54805Y35779D01*
G01X54909Y35728D01*
G01X54960Y35675D01*
G01X55013Y35571D01*
G01X55013Y35416D01*
G01X54909Y35312D01*
G01X54752Y35261D01*
G01X54546Y35261D01*
G01X54388Y35312D01*
G01X54284Y35416D01*
G01X52196Y33801D02*
G01X52196Y32711D01*
G01X52196Y33801D02*
G01X52560Y33801D01*
G01X52717Y33750D01*
G01X52819Y33646D01*
G01X52872Y33542D01*
G01X52923Y33385D01*
G01X52923Y33125D01*
G01X52872Y32971D01*
G01X52819Y32866D01*
G01X52717Y32762D01*
G01X52560Y32711D01*
G01X52196Y32711D01*
G01X53578Y33801D02*
G01X53474Y33750D01*
G01X53370Y33646D01*
G01X53319Y33542D01*
G01X53266Y33385D01*
G01X53266Y33125D01*
G01X53319Y32971D01*
G01X53370Y32866D01*
G01X53474Y32762D01*
G01X53578Y32711D01*
G01X53787Y32711D01*
G01X53891Y32762D01*
G01X53995Y32866D01*
G01X54046Y32971D01*
G01X54099Y33125D01*
G01X54099Y33385D01*
G01X54046Y33542D01*
G01X53995Y33646D01*
G01X53891Y33750D01*
G01X53787Y33801D01*
G01X53578Y33801D01*
G01X54442Y33801D02*
G01X54442Y33021D01*
G01X54493Y32866D01*
G01X54597Y32762D01*
G01X54752Y32711D01*
G01X54856Y32711D01*
G01X55013Y32762D01*
G01X55117Y32866D01*
G01X55168Y33021D01*
G01X55168Y33801D01*
G01X55874Y33801D02*
G01X55874Y32711D01*
G01X55511Y33801D02*
G01X56238Y33801D01*
G01X52197Y31252D02*
G01X52197Y30162D01*
G01X52197Y31252D02*
G01X52560Y31252D01*
G01X52717Y31201D01*
G01X52819Y31097D01*
G01X52872Y30993D01*
G01X52923Y30835D01*
G01X52923Y30576D01*
G01X52872Y30421D01*
G01X52819Y30317D01*
G01X52717Y30213D01*
G01X52560Y30162D01*
G01X52197Y30162D01*
G01X54046Y30993D02*
G01X53995Y31097D01*
G01X53891Y31201D01*
G01X53787Y31252D01*
G01X53578Y31252D01*
G01X53474Y31201D01*
G01X53370Y31097D01*
G01X53319Y30993D01*
G01X53266Y30835D01*
G01X53266Y30576D01*
G01X53319Y30421D01*
G01X53370Y30317D01*
G01X53474Y30213D01*
G01X53578Y30162D01*
G01X53787Y30162D01*
G01X53891Y30213D01*
G01X53995Y30317D01*
G01X54046Y30421D01*
G01X54389Y31252D02*
G01X54389Y30162D01*
G01X54389Y30162D02*
G01X55013Y30162D01*
G01X55356Y31252D02*
G01X55356Y30162D01*
G01X56083Y31252D02*
G01X55356Y30525D01*
G01X55615Y30784D02*
G01X56083Y30162D01*
G01X52976Y28443D02*
G01X52923Y28547D01*
G01X52819Y28651D01*
G01X52717Y28702D01*
G01X52509Y28702D01*
G01X52405Y28651D01*
G01X52301Y28547D01*
G01X52247Y28443D01*
G01X52197Y28286D01*
G01X52197Y28027D01*
G01X52247Y27872D01*
G01X52301Y27768D01*
G01X52405Y27663D01*
G01X52509Y27613D01*
G01X52717Y27613D01*
G01X52819Y27663D01*
G01X52923Y27768D01*
G01X52976Y27872D01*
G01X52976Y28027D01*
G01X52717Y28027D02*
G01X52976Y28027D01*
G01X53319Y28702D02*
G01X53319Y27613D01*
G01X53319Y28702D02*
G01X54046Y27613D01*
G01X54046Y28702D02*
G01X54046Y27613D01*
G01X54389Y28702D02*
G01X54389Y27613D01*
G01X54389Y28702D02*
G01X54752Y28702D01*
G01X54909Y28651D01*
G01X55013Y28547D01*
G01X55064Y28443D01*
G01X55118Y28286D01*
G01X55118Y28027D01*
G01X55064Y27872D01*
G01X55013Y27768D01*
G01X54909Y27663D01*
G01X54752Y27613D01*
G01X54389Y27613D01*
G01X52197Y26153D02*
G01X52197Y25063D01*
G01X52197Y26153D02*
G01X52872Y26153D01*
G01X52197Y25635D02*
G01X52613Y25635D01*
G01X53215Y26153D02*
G01X53215Y25063D01*
G01X53215Y26153D02*
G01X53632Y25063D01*
G01X54046Y26153D02*
G01X53632Y25063D01*
G01X54046Y26153D02*
G01X54046Y25063D01*
G01X54389Y26153D02*
G01X54389Y25063D01*
G01X52976Y23344D02*
G01X52923Y23449D01*
G01X52819Y23553D01*
G01X52717Y23603D01*
G01X52509Y23603D01*
G01X52405Y23553D01*
G01X52301Y23449D01*
G01X52247Y23344D01*
G01X52197Y23187D01*
G01X52197Y22928D01*
G01X52247Y22773D01*
G01X52301Y22669D01*
G01X52405Y22565D01*
G01X52509Y22514D01*
G01X52717Y22514D01*
G01X52819Y22565D01*
G01X52923Y22669D01*
G01X52976Y22773D01*
G01X52976Y22928D01*
G01X52717Y22928D02*
G01X52976Y22928D01*
G01X53319Y23603D02*
G01X53319Y22514D01*
G01X53319Y23603D02*
G01X54046Y22514D01*
G01X54046Y23603D02*
G01X54046Y22514D01*
G01X54389Y23603D02*
G01X54389Y22514D01*
G01X54389Y23603D02*
G01X54752Y23603D01*
G01X54909Y23553D01*
G01X55013Y23449D01*
G01X55064Y23344D01*
G01X55118Y23187D01*
G01X55118Y22928D01*
G01X55064Y22773D01*
G01X55013Y22669D01*
G01X54909Y22565D01*
G01X54752Y22514D01*
G01X54389Y22514D01*
G01X52613Y21054D02*
G01X52197Y19964D01*
G01X52613Y21054D02*
G01X53027Y19964D01*
G01X52351Y20328D02*
G01X52872Y20328D01*
G01X53370Y21054D02*
G01X53370Y19964D01*
G01X53370Y21054D02*
G01X53787Y19964D01*
G01X54203Y21054D02*
G01X53787Y19964D01*
G01X54203Y21054D02*
G01X54203Y19964D01*
G01X54546Y21054D02*
G01X54546Y19964D01*
G01X52976Y18246D02*
G01X52923Y18350D01*
G01X52819Y18454D01*
G01X52717Y18505D01*
G01X52509Y18505D01*
G01X52405Y18454D01*
G01X52301Y18350D01*
G01X52247Y18246D01*
G01X52197Y18088D01*
G01X52197Y17829D01*
G01X52247Y17674D01*
G01X52301Y17570D01*
G01X52405Y17466D01*
G01X52509Y17415D01*
G01X52717Y17415D01*
G01X52819Y17466D01*
G01X52923Y17570D01*
G01X52976Y17674D01*
G01X52976Y17829D01*
G01X52717Y17829D02*
G01X52976Y17829D01*
G01X53319Y18505D02*
G01X53319Y17415D01*
G01X53319Y18505D02*
G01X54046Y17415D01*
G01X54046Y18505D02*
G01X54046Y17415D01*
G01X54389Y18505D02*
G01X54389Y17415D01*
G01X54389Y18505D02*
G01X54752Y18505D01*
G01X54909Y18454D01*
G01X55013Y18350D01*
G01X55064Y18246D01*
G01X55118Y18088D01*
G01X55118Y17829D01*
G01X55064Y17674D01*
G01X55013Y17570D01*
G01X54909Y17466D01*
G01X54752Y17415D01*
G01X54389Y17415D01*
G01X52976Y15696D02*
G01X52923Y15800D01*
G01X52819Y15904D01*
G01X52717Y15955D01*
G01X52509Y15955D01*
G01X52405Y15904D01*
G01X52301Y15800D01*
G01X52247Y15696D01*
G01X52196Y15539D01*
G01X52196Y15280D01*
G01X52247Y15125D01*
G01X52301Y15021D01*
G01X52405Y14916D01*
G01X52509Y14866D01*
G01X52717Y14866D01*
G01X52819Y14916D01*
G01X52923Y15021D01*
G01X52976Y15125D01*
G01X52976Y15280D01*
G01X52717Y15280D02*
G01X52976Y15280D01*
G01X53319Y15955D02*
G01X53319Y14866D01*
G01X53319Y15955D02*
G01X53787Y15955D01*
G01X53941Y15904D01*
G01X53995Y15851D01*
G01X54046Y15747D01*
G01X54046Y15592D01*
G01X53995Y15488D01*
G01X53941Y15437D01*
G01X53787Y15384D01*
G01X53319Y15384D01*
G01X54701Y15955D02*
G01X54597Y15904D01*
G01X54493Y15800D01*
G01X54442Y15696D01*
G01X54388Y15539D01*
G01X54388Y15280D01*
G01X54442Y15125D01*
G01X54493Y15021D01*
G01X54597Y14916D01*
G01X54701Y14866D01*
G01X54909Y14866D01*
G01X55013Y14916D01*
G01X55117Y15021D01*
G01X55168Y15125D01*
G01X55219Y15280D01*
G01X55219Y15539D01*
G01X55168Y15696D01*
G01X55117Y15800D01*
G01X55013Y15904D01*
G01X54909Y15955D01*
G01X54701Y15955D01*
G01X55615Y15696D02*
G01X55615Y15747D01*
G01X55666Y15851D01*
G01X55719Y15904D01*
G01X55824Y15955D01*
G01X56032Y15955D01*
G01X56133Y15904D01*
G01X56187Y15851D01*
G01X56238Y15747D01*
G01X56238Y15643D01*
G01X56187Y15539D01*
G01X56083Y15384D01*
G01X55562Y14866D01*
G01X56291Y14866D01*
G01X52976Y13147D02*
G01X52923Y13251D01*
G01X52819Y13355D01*
G01X52717Y13406D01*
G01X52509Y13406D01*
G01X52405Y13355D01*
G01X52301Y13251D01*
G01X52247Y13147D01*
G01X52197Y12989D01*
G01X52197Y12730D01*
G01X52247Y12575D01*
G01X52301Y12471D01*
G01X52405Y12367D01*
G01X52509Y12316D01*
G01X52717Y12316D01*
G01X52819Y12367D01*
G01X52923Y12471D01*
G01X52976Y12575D01*
G01X52976Y12730D01*
G01X52717Y12730D02*
G01X52976Y12730D01*
G01X53319Y13406D02*
G01X53319Y12316D01*
G01X53319Y13406D02*
G01X53787Y13406D01*
G01X53941Y13355D01*
G01X53995Y13302D01*
G01X54046Y13198D01*
G01X54046Y13043D01*
G01X53995Y12938D01*
G01X53941Y12888D01*
G01X53787Y12834D01*
G01X53319Y12834D01*
G01X54701Y13406D02*
G01X54597Y13355D01*
G01X54493Y13251D01*
G01X54442Y13147D01*
G01X54389Y12989D01*
G01X54389Y12730D01*
G01X54442Y12575D01*
G01X54493Y12471D01*
G01X54597Y12367D01*
G01X54701Y12316D01*
G01X54909Y12316D01*
G01X55013Y12367D01*
G01X55118Y12471D01*
G01X55168Y12575D01*
G01X55219Y12730D01*
G01X55219Y12989D01*
G01X55168Y13147D01*
G01X55118Y13251D01*
G01X55013Y13355D01*
G01X54909Y13406D01*
G01X54701Y13406D01*
G01X55562Y13198D02*
G01X55666Y13251D01*
G01X55824Y13406D01*
G01X55824Y12316D01*
G01X45102Y36200D02*
G01X45049Y36304D01*
G01X44945Y36408D01*
G01X44843Y36459D01*
G01X44635Y36459D01*
G01X44531Y36408D01*
G01X44427Y36304D01*
G01X44373Y36200D01*
G01X44323Y36042D01*
G01X44323Y35783D01*
G01X44373Y35628D01*
G01X44427Y35524D01*
G01X44531Y35420D01*
G01X44635Y35369D01*
G01X44843Y35369D01*
G01X44945Y35420D01*
G01X45049Y35524D01*
G01X45102Y35628D01*
G01X45102Y35783D01*
G01X44843Y35783D02*
G01X45102Y35783D01*
G01X45445Y36459D02*
G01X45445Y35369D01*
G01X45445Y36459D02*
G01X46172Y35369D01*
G01X46172Y36459D02*
G01X46172Y35369D01*
G01X46515Y36459D02*
G01X46515Y35369D01*
G01X46515Y36459D02*
G01X46878Y36459D01*
G01X47035Y36408D01*
G01X47139Y36304D01*
G01X47190Y36200D01*
G01X47244Y36042D01*
G01X47244Y35783D01*
G01X47190Y35628D01*
G01X47139Y35524D01*
G01X47035Y35420D01*
G01X46878Y35369D01*
G01X46515Y35369D01*
G01X44323Y33909D02*
G01X44323Y32819D01*
G01X44323Y33909D02*
G01X44790Y33909D01*
G01X44945Y33858D01*
G01X44998Y33804D01*
G01X45049Y33703D01*
G01X45049Y33599D01*
G01X44998Y33494D01*
G01X44945Y33441D01*
G01X44790Y33390D01*
G01X44323Y33390D01*
G01X44686Y33390D02*
G01X45049Y32819D01*
G01X45704Y33909D02*
G01X45600Y33858D01*
G01X45496Y33754D01*
G01X45445Y33649D01*
G01X45392Y33494D01*
G01X45392Y33233D01*
G01X45445Y33078D01*
G01X45496Y32974D01*
G01X45600Y32870D01*
G01X45704Y32819D01*
G01X45913Y32819D01*
G01X46017Y32870D01*
G01X46121Y32974D01*
G01X46172Y33078D01*
G01X46225Y33233D01*
G01X46225Y33494D01*
G01X46172Y33649D01*
G01X46121Y33754D01*
G01X46017Y33858D01*
G01X45913Y33909D01*
G01X45704Y33909D01*
G01X46568Y33909D02*
G01X46568Y33131D01*
G01X46619Y32974D01*
G01X46723Y32870D01*
G01X46878Y32819D01*
G01X46982Y32819D01*
G01X47139Y32870D01*
G01X47244Y32974D01*
G01X47294Y33131D01*
G01X47294Y33909D01*
G01X48000Y33909D02*
G01X48000Y32819D01*
G01X47637Y33909D02*
G01X48364Y33909D01*
G01X44323Y31361D02*
G01X44323Y30269D01*
G01X44323Y30269D02*
G01X44945Y30269D01*
G01X45600Y31361D02*
G01X45496Y31308D01*
G01X45392Y31203D01*
G01X45341Y31099D01*
G01X45288Y30944D01*
G01X45288Y30685D01*
G01X45341Y30528D01*
G01X45392Y30424D01*
G01X45496Y30322D01*
G01X45600Y30269D01*
G01X45808Y30269D01*
G01X45913Y30322D01*
G01X46017Y30424D01*
G01X46067Y30528D01*
G01X46121Y30685D01*
G01X46121Y30944D01*
G01X46067Y31099D01*
G01X46017Y31203D01*
G01X45913Y31308D01*
G01X45808Y31361D01*
G01X45600Y31361D01*
G01X46464Y31361D02*
G01X46464Y30581D01*
G01X46515Y30424D01*
G01X46619Y30322D01*
G01X46774Y30269D01*
G01X46878Y30269D01*
G01X47035Y30322D01*
G01X47139Y30424D01*
G01X47190Y30581D01*
G01X47190Y31361D01*
G01X47896Y31361D02*
G01X47896Y30269D01*
G01X47533Y31361D02*
G01X48260Y31361D01*
G01X44323Y28811D02*
G01X44323Y27719D01*
G01X44323Y28811D02*
G01X44790Y28811D01*
G01X44945Y28760D01*
G01X44998Y28707D01*
G01X45049Y28602D01*
G01X45049Y28498D01*
G01X44998Y28394D01*
G01X44945Y28343D01*
G01X44790Y28290D01*
G01X44323Y28290D01*
G01X44686Y28290D02*
G01X45049Y27719D01*
G01X46172Y28552D02*
G01X46121Y28656D01*
G01X46017Y28760D01*
G01X45913Y28811D01*
G01X45704Y28811D01*
G01X45600Y28760D01*
G01X45496Y28656D01*
G01X45445Y28552D01*
G01X45392Y28394D01*
G01X45392Y28135D01*
G01X45445Y27980D01*
G01X45496Y27876D01*
G01X45600Y27772D01*
G01X45704Y27719D01*
G01X45913Y27719D01*
G01X46017Y27772D01*
G01X46121Y27876D01*
G01X46172Y27980D01*
G01X46515Y28811D02*
G01X46515Y27719D01*
G01X46515Y27719D02*
G01X47139Y27719D01*
G01X47482Y28811D02*
G01X47482Y27719D01*
G01X48209Y28811D02*
G01X47482Y28084D01*
G01X47741Y28343D02*
G01X48209Y27719D01*
G01X45049Y26106D02*
G01X44945Y26210D01*
G01X44790Y26261D01*
G01X44582Y26261D01*
G01X44427Y26210D01*
G01X44323Y26106D01*
G01X44323Y26001D01*
G01X44373Y25897D01*
G01X44427Y25847D01*
G01X44531Y25793D01*
G01X44843Y25689D01*
G01X44945Y25638D01*
G01X44998Y25585D01*
G01X45049Y25481D01*
G01X45049Y25326D01*
G01X44945Y25222D01*
G01X44790Y25171D01*
G01X44582Y25171D01*
G01X44427Y25222D01*
G01X44323Y25326D01*
G01X46172Y26001D02*
G01X46121Y26106D01*
G01X46017Y26210D01*
G01X45913Y26261D01*
G01X45704Y26261D01*
G01X45600Y26210D01*
G01X45496Y26106D01*
G01X45445Y26001D01*
G01X45392Y25847D01*
G01X45392Y25585D01*
G01X45445Y25430D01*
G01X45496Y25326D01*
G01X45600Y25222D01*
G01X45704Y25171D01*
G01X45913Y25171D01*
G01X46017Y25222D01*
G01X46121Y25326D01*
G01X46172Y25430D01*
G01X46515Y26261D02*
G01X46515Y25171D01*
G01X46515Y25171D02*
G01X47139Y25171D01*
G01X47482Y26261D02*
G01X47482Y25171D01*
G01X48209Y26261D02*
G01X47482Y25534D01*
G01X47741Y25793D02*
G01X48209Y25171D01*
G01X45049Y23555D02*
G01X44945Y23660D01*
G01X44790Y23713D01*
G01X44582Y23713D01*
G01X44427Y23660D01*
G01X44323Y23555D01*
G01X44323Y23451D01*
G01X44373Y23347D01*
G01X44427Y23296D01*
G01X44531Y23243D01*
G01X44843Y23141D01*
G01X44945Y23088D01*
G01X44998Y23037D01*
G01X45049Y22933D01*
G01X45049Y22776D01*
G01X44945Y22672D01*
G01X44790Y22621D01*
G01X44582Y22621D01*
G01X44427Y22672D01*
G01X44323Y22776D01*
G01X45392Y23713D02*
G01X45392Y22621D01*
G01X45392Y23713D02*
G01X45758Y23713D01*
G01X45913Y23660D01*
G01X46017Y23555D01*
G01X46067Y23451D01*
G01X46121Y23296D01*
G01X46121Y23037D01*
G01X46067Y22880D01*
G01X46017Y22776D01*
G01X45913Y22672D01*
G01X45758Y22621D01*
G01X45392Y22621D01*
G01X46464Y23713D02*
G01X46464Y22621D01*
G01X47117Y23713D02*
G01X47015Y23660D01*
G01X46911Y23555D01*
G01X46857Y23451D01*
G01X46807Y23296D01*
G01X46807Y23037D01*
G01X46857Y22880D01*
G01X46911Y22776D01*
G01X47015Y22672D01*
G01X47117Y22621D01*
G01X47325Y22621D01*
G01X47429Y22672D01*
G01X47533Y22776D01*
G01X47586Y22880D01*
G01X47637Y23037D01*
G01X47637Y23296D01*
G01X47586Y23451D01*
G01X47533Y23555D01*
G01X47429Y23660D01*
G01X47325Y23713D01*
G01X47117Y23713D01*
G01X45049Y21008D02*
G01X44945Y21109D01*
G01X44790Y21163D01*
G01X44582Y21163D01*
G01X44427Y21109D01*
G01X44323Y21008D01*
G01X44323Y20904D01*
G01X44373Y20800D01*
G01X44427Y20746D01*
G01X44531Y20695D01*
G01X44843Y20591D01*
G01X44945Y20538D01*
G01X44998Y20487D01*
G01X45049Y20383D01*
G01X45049Y20228D01*
G01X44945Y20124D01*
G01X44790Y20071D01*
G01X44582Y20071D01*
G01X44427Y20124D01*
G01X44323Y20228D01*
G01X45392Y21163D02*
G01X45392Y20071D01*
G01X45392Y21163D02*
G01X46067Y21163D01*
G01X45392Y20642D02*
G01X45808Y20642D01*
G01X45392Y20071D02*
G01X46067Y20071D01*
G01X46410Y21163D02*
G01X46410Y20071D01*
G01X46410Y21163D02*
G01X47139Y20071D01*
G01X47139Y21163D02*
G01X47139Y20071D01*
G01X47482Y21163D02*
G01X47482Y20071D01*
G01X47482Y21163D02*
G01X47950Y21163D01*
G01X48105Y21109D01*
G01X48158Y21059D01*
G01X48209Y20955D01*
G01X48209Y20850D01*
G01X48158Y20746D01*
G01X48105Y20695D01*
G01X47950Y20642D01*
G01X47482Y20642D02*
G01X47950Y20642D01*
G01X48105Y20591D01*
G01X48158Y20538D01*
G01X48209Y20436D01*
G01X48209Y20279D01*
G01X48158Y20175D01*
G01X48105Y20124D01*
G01X47950Y20071D01*
G01X47482Y20071D01*
G01X44323Y18613D02*
G01X44323Y17523D01*
G01X44323Y18613D02*
G01X44790Y18613D01*
G01X44945Y18562D01*
G01X44998Y18508D01*
G01X45049Y18404D01*
G01X45049Y18300D01*
G01X44998Y18199D01*
G01X44945Y18145D01*
G01X44790Y18094D01*
G01X44323Y18094D01*
G01X44686Y18094D02*
G01X45049Y17523D01*
G01X46121Y18458D02*
G01X46017Y18562D01*
G01X45859Y18613D01*
G01X45653Y18613D01*
G01X45496Y18562D01*
G01X45392Y18458D01*
G01X45392Y18354D01*
G01X45445Y18249D01*
G01X45496Y18199D01*
G01X45600Y18145D01*
G01X45913Y18041D01*
G01X46017Y17990D01*
G01X46067Y17937D01*
G01X46121Y17833D01*
G01X46121Y17678D01*
G01X46017Y17574D01*
G01X45859Y17523D01*
G01X45653Y17523D01*
G01X45496Y17574D01*
G01X45392Y17678D01*
G01X46827Y18613D02*
G01X46827Y17523D01*
G01X46464Y18613D02*
G01X47190Y18613D01*
G01X44427Y16062D02*
G01X44998Y16062D01*
G01X44686Y15648D01*
G01X44843Y15648D01*
G01X44945Y15595D01*
G01X44998Y15544D01*
G01X45049Y15389D01*
G01X45049Y15285D01*
G01X44998Y15128D01*
G01X44894Y15024D01*
G01X44739Y14973D01*
G01X44582Y14973D01*
G01X44427Y15024D01*
G01X44373Y15077D01*
G01X44323Y15181D01*
G01X45392Y16062D02*
G01X45808Y14973D01*
G01X46225Y16062D02*
G01X45808Y14973D01*
G01X46672Y16062D02*
G01X47244Y16062D01*
G01X46931Y15648D01*
G01X47086Y15648D01*
G01X47190Y15595D01*
G01X47244Y15544D01*
G01X47294Y15389D01*
G01X47294Y15285D01*
G01X47244Y15128D01*
G01X47139Y15024D01*
G01X46982Y14973D01*
G01X46827Y14973D01*
G01X46672Y15024D01*
G01X46619Y15077D01*
G01X46568Y15181D01*
G01X44427Y13515D02*
G01X44998Y13515D01*
G01X44686Y13098D01*
G01X44843Y13098D01*
G01X44945Y13047D01*
G01X44998Y12994D01*
G01X45049Y12839D01*
G01X45049Y12735D01*
G01X44998Y12580D01*
G01X44894Y12476D01*
G01X44739Y12423D01*
G01X44582Y12423D01*
G01X44427Y12476D01*
G01X44373Y12527D01*
G01X44323Y12631D01*
G01X45392Y13515D02*
G01X45808Y12423D01*
G01X46225Y13515D02*
G01X45808Y12423D01*
G01X46672Y13515D02*
G01X47244Y13515D01*
G01X46931Y13098D01*
G01X47086Y13098D01*
G01X47190Y13047D01*
G01X47244Y12994D01*
G01X47294Y12839D01*
G01X47294Y12735D01*
G01X47244Y12580D01*
G01X47139Y12476D01*
G01X46982Y12423D01*
G01X46827Y12423D01*
G01X46672Y12476D01*
G01X46619Y12527D01*
G01X46568Y12631D01*
G01X20678Y24140D02*
G01X21249Y24140D01*
G01X20937Y23723D01*
G01X21094Y23723D01*
G01X21196Y23672D01*
G01X21249Y23622D01*
G01X21300Y23464D01*
G01X21300Y23360D01*
G01X21249Y23205D01*
G01X21145Y23101D01*
G01X20990Y23050D01*
G01X20833Y23050D01*
G01X20678Y23101D01*
G01X20624Y23152D01*
G01X20574Y23256D01*
G01X21696Y23881D02*
G01X21696Y23931D01*
G01X21747Y24036D01*
G01X21800Y24089D01*
G01X21904Y24140D01*
G01X22110Y24140D01*
G01X22214Y24089D01*
G01X22268Y24036D01*
G01X22318Y23931D01*
G01X22318Y23827D01*
G01X22268Y23723D01*
G01X22164Y23568D01*
G01X21643Y23050D01*
G01X22372Y23050D01*
G01X22715Y24140D02*
G01X22715Y23050D01*
G01X23233Y23776D02*
G01X22715Y23256D01*
G01X22923Y23464D02*
G01X23286Y23050D01*
G01X23629Y24140D02*
G01X23629Y23050D01*
G01X24356Y24140D02*
G01X24356Y23050D01*
G01X23629Y23622D02*
G01X24356Y23622D01*
G01X25270Y23776D02*
G01X24698Y23050D01*
G01X24698Y23776D02*
G01X25270Y23776D01*
G01X24698Y23050D02*
G01X25270Y23050D01*
G01X13934Y5443D02*
G01X13830Y5547D01*
G01X13675Y5598D01*
G01X13467Y5598D01*
G01X13312Y5547D01*
G01X13208Y5443D01*
G01X13208Y5339D01*
G01X13258Y5234D01*
G01X13312Y5181D01*
G01X13416Y5130D01*
G01X13728Y5026D01*
G01X13830Y4975D01*
G01X13883Y4922D01*
G01X13934Y4818D01*
G01X13934Y4663D01*
G01X13830Y4559D01*
G01X13675Y4508D01*
G01X13467Y4508D01*
G01X13312Y4559D01*
G01X13208Y4663D01*
G01X14277Y5598D02*
G01X14277Y4508D01*
G01X14620Y4975D02*
G01X15557Y4975D01*
G01X16418Y5598D02*
G01X15900Y4871D01*
G01X16677Y4871D01*
G01X16418Y5598D02*
G01X16418Y4508D01*
G01X17749Y5598D02*
G01X17228Y4508D01*
G01X17020Y5598D02*
G01X17749Y5598D01*
G01X18196Y5598D02*
G01X18768Y5598D01*
G01X18455Y5181D01*
G01X18610Y5181D01*
G01X18714Y5130D01*
G01X18768Y5080D01*
G01X18818Y4922D01*
G01X18818Y4818D01*
G01X18768Y4663D01*
G01X18663Y4559D01*
G01X18506Y4508D01*
G01X18351Y4508D01*
G01X18196Y4559D01*
G01X18143Y4610D01*
G01X18092Y4714D01*
G01X19215Y5339D02*
G01X19215Y5389D01*
G01X19265Y5494D01*
G01X19316Y5547D01*
G01X19420Y5598D01*
G01X19629Y5598D01*
G01X19733Y5547D01*
G01X19786Y5494D01*
G01X19837Y5389D01*
G01X19837Y5285D01*
G01X19786Y5181D01*
G01X19682Y5026D01*
G01X19161Y4508D01*
G01X19888Y4508D01*
G01X13934Y3792D02*
G01X13830Y3896D01*
G01X13675Y3947D01*
G01X13467Y3947D01*
G01X13312Y3896D01*
G01X13208Y3792D01*
G01X13208Y3688D01*
G01X13258Y3583D01*
G01X13312Y3530D01*
G01X13416Y3479D01*
G01X13728Y3375D01*
G01X13830Y3324D01*
G01X13883Y3271D01*
G01X13934Y3167D01*
G01X13934Y3012D01*
G01X13830Y2908D01*
G01X13675Y2857D01*
G01X13467Y2857D01*
G01X13312Y2908D01*
G01X13208Y3012D01*
G01X14277Y3947D02*
G01X14277Y2857D01*
G01X14620Y3324D02*
G01X15557Y3324D01*
G01X16418Y3947D02*
G01X15900Y3220D01*
G01X16677Y3220D01*
G01X16418Y3947D02*
G01X16418Y2857D01*
G01X17749Y3947D02*
G01X17228Y2857D01*
G01X17020Y3947D02*
G01X17749Y3947D01*
G01X18196Y3947D02*
G01X18768Y3947D01*
G01X18455Y3530D01*
G01X18610Y3530D01*
G01X18714Y3479D01*
G01X18768Y3429D01*
G01X18818Y3271D01*
G01X18818Y3167D01*
G01X18768Y3012D01*
G01X18663Y2908D01*
G01X18506Y2857D01*
G01X18351Y2857D01*
G01X18196Y2908D01*
G01X18143Y2959D01*
G01X18092Y3063D01*
G01X19786Y3947D02*
G01X19265Y3947D01*
G01X19215Y3479D01*
G01X19265Y3530D01*
G01X19420Y3583D01*
G01X19578Y3583D01*
G01X19733Y3530D01*
G01X19837Y3429D01*
G01X19888Y3271D01*
G01X19888Y3167D01*
G01X19837Y3012D01*
G01X19733Y2908D01*
G01X19578Y2857D01*
G01X19420Y2857D01*
G01X19265Y2908D01*
G01X19215Y2959D01*
G01X19161Y3063D01*
G01X20574Y5598D02*
G01X20574Y4508D01*
G01X20574Y5598D02*
G01X21041Y5598D01*
G01X21196Y5547D01*
G01X21249Y5494D01*
G01X21300Y5389D01*
G01X21300Y5285D01*
G01X21249Y5181D01*
G01X21196Y5130D01*
G01X21041Y5080D01*
G01X20574Y5080D02*
G01X21041Y5080D01*
G01X21196Y5026D01*
G01X21249Y4975D01*
G01X21300Y4871D01*
G01X21300Y4714D01*
G01X21249Y4610D01*
G01X21196Y4559D01*
G01X21041Y4508D01*
G01X20574Y4508D01*
G01X21643Y5234D02*
G01X21643Y4508D01*
G01X21643Y4922D02*
G01X21696Y5080D01*
G01X21800Y5181D01*
G01X21904Y5234D01*
G01X22059Y5234D01*
G01X22402Y4922D02*
G01X23025Y4922D01*
G01X23025Y5026D01*
G01X22974Y5130D01*
G01X22923Y5181D01*
G01X22819Y5234D01*
G01X22661Y5234D01*
G01X22557Y5181D01*
G01X22453Y5080D01*
G01X22402Y4922D01*
G01X22402Y4818D01*
G01X22453Y4663D01*
G01X22557Y4559D01*
G01X22661Y4508D01*
G01X22819Y4508D01*
G01X22923Y4559D01*
G01X23025Y4663D01*
G01X23992Y5234D02*
G01X23992Y4508D01*
G01X23992Y5080D02*
G01X23888Y5181D01*
G01X23784Y5234D01*
G01X23629Y5234D01*
G01X23525Y5181D01*
G01X23421Y5080D01*
G01X23368Y4922D01*
G01X23368Y4818D01*
G01X23421Y4663D01*
G01X23525Y4559D01*
G01X23629Y4508D01*
G01X23784Y4508D01*
G01X23888Y4559D01*
G01X23992Y4663D01*
G01X24335Y5598D02*
G01X24335Y4508D01*
G01X24853Y5234D02*
G01X24335Y4714D01*
G01X24544Y4922D02*
G01X24907Y4508D01*
G01X25509Y5234D02*
G01X25405Y5181D01*
G01X25300Y5080D01*
G01X25250Y4922D01*
G01X25250Y4818D01*
G01X25300Y4663D01*
G01X25405Y4559D01*
G01X25509Y4508D01*
G01X25666Y4508D01*
G01X25768Y4559D01*
G01X25872Y4663D01*
G01X25925Y4818D01*
G01X25925Y4922D01*
G01X25872Y5080D01*
G01X25768Y5181D01*
G01X25666Y5234D01*
G01X25509Y5234D01*
G01X26268Y5234D02*
G01X26268Y4714D01*
G01X26319Y4559D01*
G01X26423Y4508D01*
G01X26581Y4508D01*
G01X26682Y4559D01*
G01X26840Y4714D01*
G01X26840Y5234D02*
G01X26840Y4508D01*
G01X27338Y5598D02*
G01X27338Y4714D01*
G01X27391Y4559D01*
G01X27495Y4508D01*
G01X27597Y4508D01*
G01X27183Y5234D02*
G01X27546Y5234D01*
G01X20574Y3947D02*
G01X20574Y2857D01*
G01X20574Y3947D02*
G01X21041Y3947D01*
G01X21196Y3896D01*
G01X21249Y3843D01*
G01X21300Y3738D01*
G01X21300Y3634D01*
G01X21249Y3530D01*
G01X21196Y3479D01*
G01X21041Y3429D01*
G01X20574Y3429D02*
G01X21041Y3429D01*
G01X21196Y3375D01*
G01X21249Y3324D01*
G01X21300Y3220D01*
G01X21300Y3063D01*
G01X21249Y2959D01*
G01X21196Y2908D01*
G01X21041Y2857D01*
G01X20574Y2857D01*
G01X21904Y3583D02*
G01X21800Y3530D01*
G01X21696Y3429D01*
G01X21643Y3271D01*
G01X21643Y3167D01*
G01X21696Y3012D01*
G01X21800Y2908D01*
G01X21904Y2857D01*
G01X22059Y2857D01*
G01X22164Y2908D01*
G01X22268Y3012D01*
G01X22318Y3167D01*
G01X22318Y3271D01*
G01X22268Y3429D01*
G01X22164Y3530D01*
G01X22059Y3583D01*
G01X21904Y3583D01*
G01X23286Y3583D02*
G01X23286Y2857D01*
G01X23286Y3429D02*
G01X23182Y3530D01*
G01X23078Y3583D01*
G01X22923Y3583D01*
G01X22819Y3530D01*
G01X22715Y3429D01*
G01X22661Y3271D01*
G01X22661Y3167D01*
G01X22715Y3012D01*
G01X22819Y2908D01*
G01X22923Y2857D01*
G01X23078Y2857D01*
G01X23182Y2908D01*
G01X23286Y3012D01*
G01X23629Y3583D02*
G01X23629Y2857D01*
G01X23629Y3271D02*
G01X23680Y3429D01*
G01X23784Y3530D01*
G01X23888Y3583D01*
G01X24043Y3583D01*
G01X25011Y3947D02*
G01X25011Y2857D01*
G01X25011Y3429D02*
G01X24907Y3530D01*
G01X24803Y3583D01*
G01X24648Y3583D01*
G01X24544Y3530D01*
G01X24439Y3429D01*
G01X24386Y3271D01*
G01X24386Y3167D01*
G01X24439Y3012D01*
G01X24544Y2908D01*
G01X24648Y2857D01*
G01X24803Y2857D01*
G01X24907Y2908D01*
G01X25011Y3012D01*
G01X18219Y31546D02*
G01X18272Y31496D01*
G01X18323Y31546D01*
G01X18272Y31600D01*
G01X18219Y31546D01*
G01X17457Y13893D02*
G01X17510Y13843D01*
G01X17561Y13893D01*
G01X17510Y13947D01*
G01X17457Y13893D01*
G01X33663Y34681D02*
G01X33663Y33591D01*
G01X33663Y34681D02*
G01X34131Y34681D01*
G01X34286Y34630D01*
G01X34339Y34577D01*
G01X34390Y34472D01*
G01X34390Y34368D01*
G01X34339Y34264D01*
G01X34286Y34213D01*
G01X34131Y34163D01*
G01X33663Y34163D01*
G01X34027Y34163D02*
G01X34390Y33591D01*
G01X34733Y34472D02*
G01X34837Y34526D01*
G01X34994Y34681D01*
G01X34994Y33591D01*
G01X35337Y34472D02*
G01X35441Y34526D01*
G01X35596Y34681D01*
G01X35596Y33591D01*
G01X24384Y28585D02*
G01X25110Y27495D01*
G01X25110Y28585D02*
G01X24384Y27495D01*
G01X25453Y28377D02*
G01X25557Y28430D01*
G01X25714Y28585D01*
G01X25714Y27495D01*
G01X34036Y45603D02*
G01X34036Y44513D01*
G01X34036Y45603D02*
G01X34503Y45603D01*
G01X34658Y45552D01*
G01X34711Y45499D01*
G01X34762Y45394D01*
G01X34762Y45290D01*
G01X34711Y45186D01*
G01X34658Y45135D01*
G01X34503Y45085D01*
G01X34036Y45085D01*
G01X34399Y45085D02*
G01X34762Y44513D01*
G01X35105Y45394D02*
G01X35209Y45448D01*
G01X35366Y45603D01*
G01X35366Y44513D01*
G01X34036Y41158D02*
G01X34036Y40068D01*
G01X34036Y41158D02*
G01X34503Y41158D01*
G01X34658Y41107D01*
G01X34711Y41054D01*
G01X34762Y40949D01*
G01X34762Y40845D01*
G01X34711Y40741D01*
G01X34658Y40690D01*
G01X34503Y40640D01*
G01X34036Y40640D01*
G01X34399Y40640D02*
G01X34762Y40068D01*
G01X35158Y40899D02*
G01X35158Y40949D01*
G01X35209Y41054D01*
G01X35262Y41107D01*
G01X35366Y41158D01*
G01X35572Y41158D01*
G01X35676Y41107D01*
G01X35730Y41054D01*
G01X35780Y40949D01*
G01X35780Y40845D01*
G01X35730Y40741D01*
G01X35626Y40586D01*
G01X35105Y40068D01*
G01X35834Y40068D01*
G01X33705Y21346D02*
G01X33705Y20256D01*
G01X33705Y21346D02*
G01X34173Y21346D01*
G01X34328Y21295D01*
G01X34381Y21242D01*
G01X34432Y21137D01*
G01X34432Y21033D01*
G01X34381Y20929D01*
G01X34328Y20878D01*
G01X34173Y20828D01*
G01X33705Y20828D01*
G01X34069Y20828D02*
G01X34432Y20256D01*
G01X35295Y21346D02*
G01X34775Y20619D01*
G01X35554Y20619D01*
G01X35295Y21346D02*
G01X35295Y20256D01*
G01X33731Y17028D02*
G01X33731Y15938D01*
G01X33731Y17028D02*
G01X34198Y17028D01*
G01X34353Y16977D01*
G01X34406Y16924D01*
G01X34457Y16819D01*
G01X34457Y16715D01*
G01X34406Y16611D01*
G01X34353Y16560D01*
G01X34198Y16510D01*
G01X33731Y16510D01*
G01X34094Y16510D02*
G01X34457Y15938D01*
G01X34904Y17028D02*
G01X35476Y17028D01*
G01X35166Y16611D01*
G01X35321Y16611D01*
G01X35425Y16560D01*
G01X35476Y16510D01*
G01X35529Y16352D01*
G01X35529Y16248D01*
G01X35476Y16093D01*
G01X35372Y15989D01*
G01X35217Y15938D01*
G01X35062Y15938D01*
G01X34904Y15989D01*
G01X34853Y16040D01*
G01X34800Y16144D01*
G01X33731Y12710D02*
G01X33731Y11620D01*
G01X33731Y12710D02*
G01X34198Y12710D01*
G01X34353Y12659D01*
G01X34406Y12606D01*
G01X34457Y12501D01*
G01X34457Y12397D01*
G01X34406Y12293D01*
G01X34353Y12242D01*
G01X34198Y12192D01*
G01X33731Y12192D01*
G01X34094Y12192D02*
G01X34457Y11620D01*
G01X35425Y12710D02*
G01X34904Y12710D01*
G01X34853Y12242D01*
G01X34904Y12293D01*
G01X35062Y12346D01*
G01X35217Y12346D01*
G01X35372Y12293D01*
G01X35476Y12192D01*
G01X35529Y12034D01*
G01X35529Y11930D01*
G01X35476Y11775D01*
G01X35372Y11671D01*
G01X35217Y11620D01*
G01X35062Y11620D01*
G01X34904Y11671D01*
G01X34853Y11722D01*
G01X34800Y11826D01*
G01X34485Y8260D02*
G01X34432Y8364D01*
G01X34328Y8468D01*
G01X34226Y8519D01*
G01X34018Y8519D01*
G01X33914Y8468D01*
G01X33809Y8364D01*
G01X33756Y8260D01*
G01X33705Y8102D01*
G01X33705Y7843D01*
G01X33756Y7688D01*
G01X33809Y7584D01*
G01X33914Y7480D01*
G01X34018Y7429D01*
G01X34226Y7429D01*
G01X34328Y7480D01*
G01X34432Y7584D01*
G01X34485Y7688D01*
G01X35087Y8519D02*
G01X34932Y8468D01*
G01X34879Y8364D01*
G01X34879Y8260D01*
G01X34932Y8155D01*
G01X35036Y8102D01*
G01X35242Y8051D01*
G01X35399Y8001D01*
G01X35504Y7896D01*
G01X35554Y7792D01*
G01X35554Y7635D01*
G01X35504Y7531D01*
G01X35450Y7480D01*
G01X35295Y7429D01*
G01X35087Y7429D01*
G01X34932Y7480D01*
G01X34879Y7531D01*
G01X34828Y7635D01*
G01X34828Y7792D01*
G01X34879Y7896D01*
G01X34983Y8001D01*
G01X35140Y8051D01*
G01X35346Y8102D01*
G01X35450Y8155D01*
G01X35504Y8260D01*
G01X35504Y8364D01*
G01X35450Y8468D01*
G01X35295Y8519D01*
G01X35087Y8519D01*
G01X26814Y44455D02*
G01X26761Y44559D01*
G01X26657Y44663D01*
G01X26555Y44714D01*
G01X26347Y44714D01*
G01X26243Y44663D01*
G01X26139Y44559D01*
G01X26085Y44455D01*
G01X26035Y44297D01*
G01X26035Y44038D01*
G01X26085Y43883D01*
G01X26139Y43779D01*
G01X26243Y43675D01*
G01X26347Y43624D01*
G01X26555Y43624D01*
G01X26657Y43675D01*
G01X26761Y43779D01*
G01X26814Y43883D01*
G01X27833Y44350D02*
G01X27779Y44196D01*
G01X27675Y44091D01*
G01X27520Y44038D01*
G01X27470Y44038D01*
G01X27312Y44091D01*
G01X27208Y44196D01*
G01X27157Y44350D01*
G01X27157Y44401D01*
G01X27208Y44559D01*
G01X27312Y44663D01*
G01X27470Y44714D01*
G01X27520Y44714D01*
G01X27675Y44663D01*
G01X27779Y44559D01*
G01X27833Y44350D01*
G01X27833Y44091D01*
G01X27779Y43830D01*
G01X27675Y43675D01*
G01X27520Y43624D01*
G01X27416Y43624D01*
G01X27261Y43675D01*
G01X27208Y43779D01*
G01X9796Y28072D02*
G01X9743Y28176D01*
G01X9639Y28280D01*
G01X9537Y28331D01*
G01X9329Y28331D01*
G01X9225Y28280D01*
G01X9121Y28176D01*
G01X9067Y28072D01*
G01X9017Y27914D01*
G01X9017Y27655D01*
G01X9067Y27500D01*
G01X9121Y27396D01*
G01X9225Y27292D01*
G01X9329Y27241D01*
G01X9537Y27241D01*
G01X9639Y27292D01*
G01X9743Y27396D01*
G01X9796Y27500D01*
G01X10190Y28072D02*
G01X10190Y28122D01*
G01X10243Y28227D01*
G01X10294Y28280D01*
G01X10398Y28331D01*
G01X10607Y28331D01*
G01X10711Y28280D01*
G01X10761Y28227D01*
G01X10815Y28122D01*
G01X10815Y28018D01*
G01X10761Y27914D01*
G01X10657Y27759D01*
G01X10139Y27241D01*
G01X10866Y27241D01*
G01X9669Y17277D02*
G01X9616Y17381D01*
G01X9512Y17485D01*
G01X9410Y17536D01*
G01X9202Y17536D01*
G01X9098Y17485D01*
G01X8994Y17381D01*
G01X8940Y17277D01*
G01X8890Y17119D01*
G01X8890Y16860D01*
G01X8940Y16705D01*
G01X8994Y16601D01*
G01X9098Y16497D01*
G01X9202Y16446D01*
G01X9410Y16446D01*
G01X9512Y16497D01*
G01X9616Y16601D01*
G01X9669Y16705D01*
G01X10116Y17536D02*
G01X10688Y17536D01*
G01X10375Y17119D01*
G01X10530Y17119D01*
G01X10634Y17068D01*
G01X10688Y17018D01*
G01X10739Y16860D01*
G01X10739Y16756D01*
G01X10688Y16601D01*
G01X10584Y16497D01*
G01X10426Y16446D01*
G01X10271Y16446D01*
G01X10116Y16497D01*
G01X10063Y16548D01*
G01X10012Y16652D01*
G01X15991Y15113D02*
G01X16771Y15113D01*
G01X16926Y15163D01*
G01X17030Y15267D01*
G01X17081Y15425D01*
G01X17081Y15529D01*
G01X17030Y15684D01*
G01X16926Y15788D01*
G01X16771Y15839D01*
G01X15991Y15839D01*
G01X16250Y16235D02*
G01X16200Y16235D01*
G01X16095Y16286D01*
G01X16042Y16339D01*
G01X15991Y16443D01*
G01X15991Y16649D01*
G01X16042Y16753D01*
G01X16095Y16807D01*
G01X16200Y16857D01*
G01X16304Y16857D01*
G01X16408Y16807D01*
G01X16563Y16703D01*
G01X17081Y16182D01*
G01X17081Y16911D01*
G01X1397Y30363D02*
G01X1397Y29583D01*
G01X1447Y29428D01*
G01X1551Y29324D01*
G01X1709Y29273D01*
G01X1813Y29273D01*
G01X1968Y29324D01*
G01X2072Y29428D01*
G01X2123Y29583D01*
G01X2123Y30363D01*
G01X2570Y30363D02*
G01X3141Y30363D01*
G01X2832Y29946D01*
G01X2987Y29946D01*
G01X3091Y29895D01*
G01X3141Y29845D01*
G01X3195Y29687D01*
G01X3195Y29583D01*
G01X3141Y29428D01*
G01X3037Y29324D01*
G01X2882Y29273D01*
G01X2727Y29273D01*
G01X2570Y29324D01*
G01X2519Y29375D01*
G01X2466Y29479D01*
G01X1397Y19187D02*
G01X1397Y18407D01*
G01X1447Y18252D01*
G01X1551Y18148D01*
G01X1709Y18097D01*
G01X1813Y18097D01*
G01X1968Y18148D01*
G01X2072Y18252D01*
G01X2123Y18407D01*
G01X2123Y19187D01*
G01X2987Y19187D02*
G01X2466Y18460D01*
G01X3246Y18460D01*
G01X2987Y19187D02*
G01X2987Y18097D01*
G01X41927Y9911D02*
G01X41874Y10015D01*
G01X41770Y10119D01*
G01X41668Y10170D01*
G01X41460Y10170D01*
G01X41356Y10119D01*
G01X41252Y10015D01*
G01X41198Y9911D01*
G01X41148Y9753D01*
G01X41148Y9494D01*
G01X41198Y9339D01*
G01X41252Y9235D01*
G01X41356Y9131D01*
G01X41460Y9080D01*
G01X41668Y9080D01*
G01X41770Y9131D01*
G01X41874Y9235D01*
G01X41927Y9339D01*
G01X42997Y10170D02*
G01X42478Y9080D01*
G01X42270Y10170D02*
G01X42997Y10170D01*
G01X15257Y30485D02*
G01X15204Y30589D01*
G01X15100Y30693D01*
G01X14998Y30744D01*
G01X14790Y30744D01*
G01X14686Y30693D01*
G01X14582Y30589D01*
G01X14528Y30485D01*
G01X14478Y30327D01*
G01X14478Y30068D01*
G01X14528Y29913D01*
G01X14582Y29809D01*
G01X14686Y29705D01*
G01X14790Y29654D01*
G01X14998Y29654D01*
G01X15100Y29705D01*
G01X15204Y29809D01*
G01X15257Y29913D01*
G01X15600Y30535D02*
G01X15704Y30589D01*
G01X15859Y30744D01*
G01X15859Y29654D01*
G01X29712Y23131D02*
G01X29608Y23078D01*
G01X29504Y22974D01*
G01X29453Y22872D01*
G01X29453Y22664D01*
G01X29504Y22560D01*
G01X29608Y22456D01*
G01X29712Y22402D01*
G01X29870Y22352D01*
G01X30129Y22352D01*
G01X30284Y22402D01*
G01X30388Y22456D01*
G01X30492Y22560D01*
G01X30543Y22664D01*
G01X30543Y22872D01*
G01X30492Y22974D01*
G01X30388Y23078D01*
G01X30284Y23131D01*
G01X29453Y24096D02*
G01X29453Y23578D01*
G01X29921Y23525D01*
G01X29870Y23578D01*
G01X29817Y23733D01*
G01X29817Y23888D01*
G01X29870Y24046D01*
G01X29972Y24150D01*
G01X30129Y24201D01*
G01X30233Y24201D01*
G01X30388Y24150D01*
G01X30492Y24046D01*
G01X30543Y23888D01*
G01X30543Y23733D01*
G01X30492Y23578D01*
G01X30441Y23525D01*
G01X30337Y23474D01*
G01X34510Y30104D02*
G01X34457Y30208D01*
G01X34353Y30312D01*
G01X34251Y30363D01*
G01X34043Y30363D01*
G01X33939Y30312D01*
G01X33835Y30208D01*
G01X33781Y30104D01*
G01X33731Y29946D01*
G01X33731Y29687D01*
G01X33781Y29532D01*
G01X33835Y29428D01*
G01X33939Y29324D01*
G01X34043Y29273D01*
G01X34251Y29273D01*
G01X34353Y29324D01*
G01X34457Y29428D01*
G01X34510Y29532D01*
G01X35476Y30208D02*
G01X35425Y30312D01*
G01X35267Y30363D01*
G01X35166Y30363D01*
G01X35008Y30312D01*
G01X34904Y30154D01*
G01X34853Y29895D01*
G01X34853Y29636D01*
G01X34904Y29428D01*
G01X35008Y29324D01*
G01X35166Y29273D01*
G01X35217Y29273D01*
G01X35372Y29324D01*
G01X35476Y29428D01*
G01X35529Y29583D01*
G01X35529Y29636D01*
G01X35476Y29791D01*
G01X35372Y29895D01*
G01X35217Y29946D01*
G01X35166Y29946D01*
G01X35008Y29895D01*
G01X34904Y29791D01*
G01X34853Y29636D01*
G01X16690Y34230D02*
G01X17470Y34230D01*
G01X17625Y34280D01*
G01X17729Y34384D01*
G01X17780Y34542D01*
G01X17780Y34646D01*
G01X17729Y34801D01*
G01X17625Y34905D01*
G01X17470Y34956D01*
G01X16690Y34956D01*
G01X16898Y35299D02*
G01X16845Y35403D01*
G01X16690Y35561D01*
G01X17780Y35561D01*
G01X38989Y45603D02*
G01X38989Y44513D01*
G01X38989Y45603D02*
G01X39456Y45603D01*
G01X39611Y45552D01*
G01X39664Y45499D01*
G01X39715Y45394D01*
G01X39715Y45290D01*
G01X39664Y45186D01*
G01X39611Y45135D01*
G01X39456Y45085D01*
G01X38989Y45085D01*
G01X39352Y45085D02*
G01X39715Y44513D01*
G01X40683Y45448D02*
G01X40629Y45552D01*
G01X40474Y45603D01*
G01X40370Y45603D01*
G01X40215Y45552D01*
G01X40111Y45394D01*
G01X40058Y45135D01*
G01X40058Y44876D01*
G01X40111Y44668D01*
G01X40215Y44564D01*
G01X40370Y44513D01*
G01X40424Y44513D01*
G01X40579Y44564D01*
G01X40683Y44668D01*
G01X40733Y44823D01*
G01X40733Y44876D01*
G01X40683Y45031D01*
G01X40579Y45135D01*
G01X40424Y45186D01*
G01X40370Y45186D01*
G01X40215Y45135D01*
G01X40111Y45031D01*
G01X40058Y44876D01*
G01X38989Y41539D02*
G01X38989Y40449D01*
G01X38989Y41539D02*
G01X39456Y41539D01*
G01X39611Y41488D01*
G01X39664Y41435D01*
G01X39715Y41330D01*
G01X39715Y41226D01*
G01X39664Y41122D01*
G01X39611Y41071D01*
G01X39456Y41021D01*
G01X38989Y41021D01*
G01X39352Y41021D02*
G01X39715Y40449D01*
G01X40787Y41539D02*
G01X40266Y40449D01*
G01X40058Y41539D02*
G01X40787Y41539D01*
G54D10*
G75*
G01X32994Y6882D02*
G03X32794Y6682I0J-200D01*
G01*
G75*
G01X32994Y4802D02*
G02X32794Y5002I0J200D01*
G01*
G75*
G01X36094Y6882D02*
G02X36294Y6682I0J-200D01*
G01*
G75*
G01X36094Y4802D02*
G03X36294Y5002I0J200D01*
G01*
G75*
G01X28601Y40362D02*
G03X28801Y40562I0J200D01*
G01*
G75*
G01X28601Y42442D02*
G02X28801Y42242I0J-200D01*
G01*
G75*
G01X25501Y40362D02*
G02X25301Y40562I0J200D01*
G01*
G75*
G01X25501Y42442D02*
G03X25301Y42242I0J-200D01*
G01*
G75*
G01X12533Y24146D02*
G02X12333Y23946I-200J0D01*
G01*
G75*
G01X12533Y26146D02*
G03X12333Y26346I-200J0D01*
G01*
G75*
G01X7533Y24146D02*
G03X7733Y23946I200J0D01*
G01*
G75*
G01X7533Y26146D02*
G02X7733Y26346I200J0D01*
G01*
G75*
G01X12533Y13097D02*
G02X12333Y12897I-200J0D01*
G01*
G75*
G01X12533Y15097D02*
G03X12333Y15297I-200J0D01*
G01*
G75*
G01X7533Y13097D02*
G03X7733Y12897I200J0D01*
G01*
G75*
G01X7533Y15097D02*
G02X7733Y15297I200J0D01*
G01*
G75*
G01X18161Y16764D02*
G02X18161Y15367I0J-698D01*
G01*
G75*
G01X16407Y27077D02*
G03X16207Y27277I-200J0D01*
G01*
G75*
G01X14327Y27077D02*
G02X14527Y27277I200J0D01*
G01*
G75*
G01X16407Y23977D02*
G02X16207Y23777I-200J0D01*
G01*
G75*
G01X14327Y23977D02*
G03X14527Y23777I200J0D01*
G01*
G75*
G01X36094Y22074D02*
G03X36294Y22274I0J200D01*
G01*
G75*
G01X36094Y24154D02*
G02X36294Y23954I0J-200D01*
G01*
G75*
G01X32994Y22074D02*
G02X32794Y22274I0J200D01*
G01*
G75*
G01X32994Y24154D02*
G03X32794Y23954I0J-200D01*
G01*
G75*
G01X36094Y26265D02*
G03X36294Y26465I0J200D01*
G01*
G75*
G01X36094Y28345D02*
G02X36294Y28145I0J-200D01*
G01*
G75*
G01X32994Y26265D02*
G02X32794Y26465I0J200D01*
G01*
G75*
G01X32994Y28345D02*
G03X32794Y28145I0J-200D01*
G01*
G54D12*
G75*
G01X13136Y38227D02*
G03X13136Y38227I-4500J0D01*
G01*
M00*
M02*
