;Layer: Drill PTH
;EasyEDA v6.4.5, 2020-09-10T22:57:59+08:00
;36a55f9fcc144517bb6f4fc5ac697fe8,26442c311dbe4305b3cc573dcfb82818,10
;Gerber Generator version 0.2
M48
METRIC,LZ,000.000
;Holesize 1 = 0.310 METRIC
T01C0.310
;Holesize 2 = 0.501 METRIC
T02C0.501
;Holesize 3 = 0.508 METRIC
T03C0.508
;Holesize 4 = 0.901 METRIC
T04C0.901
;Holesize 5 = 0.915 METRIC
T05C0.915
;Holesize 6 = 1.000 METRIC
T06C1.000
;Holesize 7 = 1.101 METRIC
T07C1.101
%
G05
G90
T01
X+023289Y+029751
X+023030Y+011846
X+021485Y+014401
X+021485Y+027995
X+022943Y+033627
X+017894Y+013139
X+021384Y+034267
X+013139Y+021592
X+024848Y+025372
X+025976Y+014531
X+023632Y+030601
X+011866Y+023728
X+025405Y+011706
X+021209Y+035181
X+024541Y+035786
X+026045Y+035783
X+025900Y+029771
X+025189Y+035186
X+021897Y+035740
X+021028Y+016225
X+045163Y+032344
X+027310Y+037205
X+028895Y+020327
X+009779Y+003175
T02
X+027940Y+026408
X+027940Y+025408
T03
X+003302Y+022656
X+003302Y+027635
X+003302Y+011607
X+003302Y+016586
T04
X+032004Y+027305
X+037084Y+027305
X+032004Y+023241
X+037084Y+023241
X+029591Y+041402
X+024511Y+041402
T05
X+009779Y+022225
T06
X+029647Y+031877
X+039948Y+031877
X+015367Y+022987
X+015367Y+028067
X+039243Y+005969
X+044323Y+005969
X+039807Y+043053
X+050108Y+043053
X+039807Y+039116
X+050108Y+039116
X+039948Y+018669
X+029647Y+018669
X+039948Y+014224
X+029647Y+014224
X+039948Y+010033
X+029647Y+010033
T07
X+042545Y+035814
X+042545Y+033274
X+042545Y+030734
X+042545Y+028194
X+042545Y+025654
X+042545Y+023114
X+042545Y+020574
X+042545Y+018034
X+042545Y+015494
X+042545Y+012954
X+050038Y+035814
X+050038Y+033274
X+050038Y+030734
X+050038Y+028194
X+050038Y+025654
X+050038Y+023114
X+050038Y+020574
X+050038Y+018034
X+050038Y+015494
X+050038Y+012954
M30
