G04 Layer: TopLayer*
G04 EasyEDA v6.4.5, 2020-09-10T22:57:59+08:00*
G04 36a55f9fcc144517bb6f4fc5ac697fe8,26442c311dbe4305b3cc573dcfb82818,10*
G04 Gerber Generator version 0.2*
G04 Scale: 100 percent, Rotated: No, Reflected: No *
G04 Dimensions in millimeters *
G04 leading zeros omitted , absolute positions ,3 integer and 3 decimal *
%FSLAX33Y33*%
%MOMM*%
G90*
G71D02*

%ADD11C,0.259994*%
%ADD12C,0.499999*%
%ADD13C,0.999998*%
%ADD14C,0.599999*%
%ADD15C,0.610006*%
%ADD16R,0.999998X1.550010*%
%ADD17R,1.199998X1.899996*%
%ADD19R,1.550010X0.999998*%
%ADD20R,0.399999X1.199998*%
%ADD21C,1.524000*%
%ADD22C,0.799998*%
%ADD23C,1.599997*%
%ADD24C,1.699997*%
%ADD25R,1.699997X1.574800*%
%ADD27C,1.799996*%

%LPD*%
G36*
G01X53378Y45844D02*
G01X5930Y45844D01*
G01X5823Y45843D01*
G01X5716Y45840D01*
G01X5608Y45835D01*
G01X5501Y45828D01*
G01X5394Y45819D01*
G01X5288Y45807D01*
G01X5181Y45794D01*
G01X5074Y45779D01*
G01X4969Y45762D01*
G01X4863Y45743D01*
G01X4758Y45722D01*
G01X4653Y45698D01*
G01X4549Y45673D01*
G01X4445Y45646D01*
G01X4341Y45617D01*
G01X4238Y45586D01*
G01X4136Y45553D01*
G01X4035Y45518D01*
G01X3934Y45481D01*
G01X3833Y45442D01*
G01X3734Y45401D01*
G01X3636Y45359D01*
G01X3538Y45315D01*
G01X3441Y45268D01*
G01X3345Y45221D01*
G01X3250Y45171D01*
G01X3156Y45119D01*
G01X3062Y45066D01*
G01X2970Y45010D01*
G01X2879Y44953D01*
G01X2789Y44895D01*
G01X2700Y44835D01*
G01X2613Y44773D01*
G01X2526Y44709D01*
G01X2441Y44644D01*
G01X2357Y44577D01*
G01X2274Y44509D01*
G01X2193Y44439D01*
G01X2112Y44367D01*
G01X2034Y44294D01*
G01X1956Y44220D01*
G01X1880Y44144D01*
G01X1806Y44066D01*
G01X1733Y43988D01*
G01X1661Y43907D01*
G01X1591Y43826D01*
G01X1523Y43743D01*
G01X1456Y43659D01*
G01X1391Y43574D01*
G01X1327Y43487D01*
G01X1265Y43400D01*
G01X1205Y43311D01*
G01X1147Y43221D01*
G01X1090Y43130D01*
G01X1034Y43038D01*
G01X981Y42944D01*
G01X929Y42850D01*
G01X879Y42755D01*
G01X832Y42659D01*
G01X785Y42562D01*
G01X741Y42464D01*
G01X699Y42366D01*
G01X658Y42267D01*
G01X619Y42166D01*
G01X582Y42065D01*
G01X547Y41964D01*
G01X514Y41862D01*
G01X483Y41759D01*
G01X454Y41656D01*
G01X427Y41551D01*
G01X402Y41447D01*
G01X378Y41342D01*
G01X357Y41237D01*
G01X338Y41131D01*
G01X321Y41026D01*
G01X306Y40919D01*
G01X293Y40812D01*
G01X281Y40706D01*
G01X272Y40599D01*
G01X265Y40492D01*
G01X260Y40384D01*
G01X257Y40277D01*
G01X256Y40170D01*
G01X256Y5930D01*
G01X257Y5823D01*
G01X260Y5716D01*
G01X265Y5608D01*
G01X272Y5501D01*
G01X281Y5394D01*
G01X293Y5288D01*
G01X306Y5181D01*
G01X321Y5074D01*
G01X338Y4969D01*
G01X357Y4863D01*
G01X378Y4758D01*
G01X402Y4653D01*
G01X427Y4549D01*
G01X454Y4445D01*
G01X483Y4341D01*
G01X514Y4238D01*
G01X547Y4136D01*
G01X582Y4035D01*
G01X619Y3934D01*
G01X658Y3833D01*
G01X699Y3734D01*
G01X741Y3636D01*
G01X785Y3538D01*
G01X832Y3441D01*
G01X879Y3345D01*
G01X929Y3250D01*
G01X981Y3156D01*
G01X1034Y3062D01*
G01X1090Y2970D01*
G01X1147Y2879D01*
G01X1205Y2789D01*
G01X1265Y2700D01*
G01X1327Y2613D01*
G01X1391Y2526D01*
G01X1456Y2441D01*
G01X1523Y2357D01*
G01X1591Y2274D01*
G01X1661Y2193D01*
G01X1733Y2112D01*
G01X1806Y2034D01*
G01X1880Y1956D01*
G01X1956Y1880D01*
G01X2034Y1806D01*
G01X2112Y1733D01*
G01X2193Y1661D01*
G01X2274Y1591D01*
G01X2357Y1523D01*
G01X2441Y1456D01*
G01X2526Y1391D01*
G01X2613Y1327D01*
G01X2700Y1265D01*
G01X2789Y1205D01*
G01X2879Y1147D01*
G01X2970Y1090D01*
G01X3062Y1034D01*
G01X3156Y981D01*
G01X3250Y929D01*
G01X3345Y879D01*
G01X3441Y832D01*
G01X3538Y785D01*
G01X3636Y741D01*
G01X3734Y699D01*
G01X3833Y658D01*
G01X3934Y619D01*
G01X4035Y582D01*
G01X4136Y547D01*
G01X4238Y514D01*
G01X4341Y483D01*
G01X4445Y454D01*
G01X4549Y427D01*
G01X4653Y402D01*
G01X4758Y378D01*
G01X4863Y357D01*
G01X4969Y338D01*
G01X5074Y321D01*
G01X5181Y306D01*
G01X5288Y293D01*
G01X5394Y281D01*
G01X5501Y272D01*
G01X5608Y265D01*
G01X5716Y260D01*
G01X5823Y257D01*
G01X5930Y256D01*
G01X53378Y256D01*
G01X53485Y257D01*
G01X53592Y260D01*
G01X53700Y265D01*
G01X53807Y272D01*
G01X53914Y281D01*
G01X54020Y293D01*
G01X54127Y306D01*
G01X54234Y321D01*
G01X54339Y338D01*
G01X54445Y357D01*
G01X54550Y378D01*
G01X54655Y402D01*
G01X54759Y427D01*
G01X54864Y454D01*
G01X54967Y483D01*
G01X55070Y514D01*
G01X55172Y547D01*
G01X55273Y582D01*
G01X55374Y619D01*
G01X55475Y658D01*
G01X55574Y699D01*
G01X55672Y741D01*
G01X55770Y785D01*
G01X55867Y832D01*
G01X55963Y879D01*
G01X56058Y929D01*
G01X56152Y981D01*
G01X56246Y1034D01*
G01X56338Y1090D01*
G01X56429Y1147D01*
G01X56519Y1205D01*
G01X56608Y1265D01*
G01X56695Y1327D01*
G01X56782Y1391D01*
G01X56867Y1456D01*
G01X56951Y1523D01*
G01X57034Y1591D01*
G01X57115Y1661D01*
G01X57196Y1733D01*
G01X57274Y1806D01*
G01X57352Y1880D01*
G01X57428Y1956D01*
G01X57502Y2034D01*
G01X57575Y2112D01*
G01X57647Y2193D01*
G01X57717Y2274D01*
G01X57785Y2357D01*
G01X57852Y2441D01*
G01X57917Y2526D01*
G01X57981Y2613D01*
G01X58043Y2700D01*
G01X58103Y2789D01*
G01X58161Y2879D01*
G01X58218Y2970D01*
G01X58274Y3062D01*
G01X58327Y3156D01*
G01X58379Y3250D01*
G01X58429Y3345D01*
G01X58476Y3441D01*
G01X58523Y3538D01*
G01X58567Y3636D01*
G01X58609Y3734D01*
G01X58650Y3833D01*
G01X58689Y3934D01*
G01X58726Y4035D01*
G01X58761Y4136D01*
G01X58794Y4238D01*
G01X58825Y4341D01*
G01X58854Y4445D01*
G01X58881Y4549D01*
G01X58906Y4653D01*
G01X58930Y4758D01*
G01X58951Y4863D01*
G01X58970Y4969D01*
G01X58987Y5074D01*
G01X59002Y5181D01*
G01X59015Y5288D01*
G01X59027Y5394D01*
G01X59036Y5501D01*
G01X59043Y5608D01*
G01X59048Y5716D01*
G01X59051Y5823D01*
G01X59052Y5930D01*
G01X59052Y40170D01*
G01X59051Y40277D01*
G01X59048Y40384D01*
G01X59043Y40492D01*
G01X59036Y40599D01*
G01X59027Y40706D01*
G01X59015Y40812D01*
G01X59002Y40919D01*
G01X58987Y41026D01*
G01X58970Y41131D01*
G01X58951Y41237D01*
G01X58930Y41342D01*
G01X58906Y41447D01*
G01X58881Y41551D01*
G01X58854Y41656D01*
G01X58825Y41759D01*
G01X58794Y41862D01*
G01X58761Y41964D01*
G01X58726Y42065D01*
G01X58689Y42166D01*
G01X58650Y42267D01*
G01X58609Y42366D01*
G01X58567Y42464D01*
G01X58523Y42562D01*
G01X58476Y42659D01*
G01X58429Y42755D01*
G01X58379Y42850D01*
G01X58327Y42944D01*
G01X58274Y43038D01*
G01X58218Y43130D01*
G01X58161Y43221D01*
G01X58103Y43311D01*
G01X58043Y43400D01*
G01X57981Y43487D01*
G01X57917Y43574D01*
G01X57852Y43659D01*
G01X57785Y43743D01*
G01X57717Y43826D01*
G01X57647Y43907D01*
G01X57575Y43988D01*
G01X57502Y44066D01*
G01X57428Y44144D01*
G01X57352Y44220D01*
G01X57274Y44294D01*
G01X57196Y44367D01*
G01X57115Y44439D01*
G01X57034Y44509D01*
G01X56951Y44577D01*
G01X56867Y44644D01*
G01X56782Y44709D01*
G01X56695Y44773D01*
G01X56608Y44835D01*
G01X56519Y44895D01*
G01X56429Y44953D01*
G01X56338Y45010D01*
G01X56246Y45066D01*
G01X56152Y45119D01*
G01X56058Y45171D01*
G01X55963Y45221D01*
G01X55867Y45268D01*
G01X55770Y45315D01*
G01X55672Y45359D01*
G01X55574Y45401D01*
G01X55475Y45442D01*
G01X55374Y45481D01*
G01X55273Y45518D01*
G01X55172Y45553D01*
G01X55070Y45586D01*
G01X54967Y45617D01*
G01X54864Y45646D01*
G01X54759Y45673D01*
G01X54655Y45698D01*
G01X54550Y45722D01*
G01X54445Y45743D01*
G01X54339Y45762D01*
G01X54234Y45779D01*
G01X54127Y45794D01*
G01X54020Y45807D01*
G01X53914Y45819D01*
G01X53807Y45828D01*
G01X53700Y45835D01*
G01X53592Y45840D01*
G01X53485Y45843D01*
G01X53378Y45844D01*
G37*

%LPC*%
G36*
G01X50086Y26759D02*
G01X50038Y26760D01*
G01X49989Y26759D01*
G01X49941Y26756D01*
G01X49893Y26751D01*
G01X49845Y26743D01*
G01X49798Y26734D01*
G01X49751Y26722D01*
G01X49705Y26709D01*
G01X49659Y26693D01*
G01X49614Y26676D01*
G01X49570Y26656D01*
G01X49526Y26635D01*
G01X49484Y26612D01*
G01X49443Y26587D01*
G01X49403Y26560D01*
G01X49364Y26531D01*
G01X49326Y26501D01*
G01X49290Y26469D01*
G01X49255Y26436D01*
G01X49222Y26401D01*
G01X49190Y26365D01*
G01X49160Y26327D01*
G01X49131Y26288D01*
G01X49104Y26248D01*
G01X49079Y26207D01*
G01X49056Y26165D01*
G01X49035Y26121D01*
G01X49015Y26077D01*
G01X48998Y26032D01*
G01X48982Y25986D01*
G01X48969Y25940D01*
G01X48957Y25893D01*
G01X48948Y25846D01*
G01X48940Y25798D01*
G01X48935Y25750D01*
G01X48932Y25702D01*
G01X48931Y25654D01*
G01X48932Y25605D01*
G01X48935Y25557D01*
G01X48940Y25509D01*
G01X48948Y25461D01*
G01X48957Y25414D01*
G01X48969Y25367D01*
G01X48982Y25321D01*
G01X48998Y25275D01*
G01X49015Y25230D01*
G01X49035Y25186D01*
G01X49056Y25142D01*
G01X49079Y25100D01*
G01X49104Y25059D01*
G01X49131Y25019D01*
G01X49160Y24980D01*
G01X49190Y24942D01*
G01X49222Y24906D01*
G01X49255Y24871D01*
G01X49290Y24838D01*
G01X49326Y24806D01*
G01X49364Y24776D01*
G01X49403Y24747D01*
G01X49443Y24720D01*
G01X49484Y24695D01*
G01X49526Y24672D01*
G01X49570Y24651D01*
G01X49614Y24631D01*
G01X49659Y24614D01*
G01X49705Y24598D01*
G01X49751Y24585D01*
G01X49798Y24573D01*
G01X49845Y24564D01*
G01X49893Y24556D01*
G01X49941Y24551D01*
G01X49989Y24548D01*
G01X50038Y24547D01*
G01X50085Y24548D01*
G01X50132Y24551D01*
G01X50180Y24556D01*
G01X50227Y24563D01*
G01X50274Y24572D01*
G01X50320Y24584D01*
G01X50346Y24587D01*
G01X50362Y24586D01*
G01X50377Y24582D01*
G01X50392Y24576D01*
G01X50405Y24567D01*
G01X50417Y24557D01*
G01X50793Y24181D01*
G01X50804Y24169D01*
G01X50812Y24155D01*
G01X50818Y24141D01*
G01X50822Y24125D01*
G01X50823Y24109D01*
G01X50822Y24094D01*
G01X50819Y24081D01*
G01X50814Y24067D01*
G01X50807Y24054D01*
G01X50798Y24043D01*
G01X50788Y24032D01*
G01X50777Y24024D01*
G01X50764Y24017D01*
G01X50750Y24012D01*
G01X50737Y24009D01*
G01X50722Y24008D01*
G01X50707Y24009D01*
G01X50692Y24012D01*
G01X50678Y24018D01*
G01X50664Y24025D01*
G01X50620Y24055D01*
G01X50573Y24082D01*
G01X50526Y24106D01*
G01X50526Y23602D01*
G01X51030Y23602D01*
G01X51006Y23649D01*
G01X50979Y23696D01*
G01X50949Y23740D01*
G01X50942Y23754D01*
G01X50936Y23768D01*
G01X50933Y23783D01*
G01X50932Y23798D01*
G01X50933Y23813D01*
G01X50936Y23826D01*
G01X50941Y23840D01*
G01X50948Y23853D01*
G01X50956Y23864D01*
G01X50967Y23874D01*
G01X50978Y23883D01*
G01X50991Y23890D01*
G01X51005Y23895D01*
G01X51018Y23898D01*
G01X51033Y23899D01*
G01X51049Y23898D01*
G01X51065Y23894D01*
G01X51079Y23888D01*
G01X51093Y23880D01*
G01X51105Y23869D01*
G01X53184Y21791D01*
G01X53195Y21778D01*
G01X53203Y21765D01*
G01X53209Y21750D01*
G01X53213Y21734D01*
G01X53214Y21719D01*
G01X53214Y6347D01*
G01X53213Y6332D01*
G01X53209Y6316D01*
G01X53203Y6301D01*
G01X53195Y6288D01*
G01X53184Y6275D01*
G01X53131Y6222D01*
G01X53119Y6211D01*
G01X53105Y6203D01*
G01X53090Y6197D01*
G01X53074Y6194D01*
G01X53059Y6192D01*
G01X53044Y6193D01*
G01X53030Y6196D01*
G01X53016Y6201D01*
G01X53004Y6208D01*
G01X52992Y6217D01*
G01X52982Y6227D01*
G01X52973Y6239D01*
G01X52966Y6251D01*
G01X52961Y6265D01*
G01X52958Y6279D01*
G01X52957Y6294D01*
G01X52957Y18161D01*
G01X52956Y18194D01*
G01X52953Y18227D01*
G01X52947Y18260D01*
G01X52940Y18292D01*
G01X52930Y18324D01*
G01X52918Y18355D01*
G01X52905Y18385D01*
G01X52889Y18414D01*
G01X52872Y18442D01*
G01X52852Y18469D01*
G01X52832Y18494D01*
G01X52809Y18519D01*
G01X51134Y20194D01*
G01X51124Y20206D01*
G01X51115Y20219D01*
G01X51109Y20234D01*
G01X51105Y20249D01*
G01X51104Y20265D01*
G01X51107Y20291D01*
G01X51119Y20337D01*
G01X51128Y20384D01*
G01X51135Y20431D01*
G01X51140Y20479D01*
G01X51143Y20526D01*
G01X51144Y20574D01*
G01X51143Y20622D01*
G01X51140Y20670D01*
G01X51135Y20718D01*
G01X51127Y20766D01*
G01X51118Y20813D01*
G01X51106Y20860D01*
G01X51093Y20906D01*
G01X51077Y20952D01*
G01X51060Y20997D01*
G01X51040Y21041D01*
G01X51019Y21085D01*
G01X50996Y21127D01*
G01X50971Y21168D01*
G01X50944Y21208D01*
G01X50915Y21247D01*
G01X50885Y21285D01*
G01X50853Y21321D01*
G01X50820Y21356D01*
G01X50785Y21389D01*
G01X50749Y21421D01*
G01X50711Y21451D01*
G01X50672Y21480D01*
G01X50632Y21507D01*
G01X50591Y21532D01*
G01X50549Y21555D01*
G01X50505Y21576D01*
G01X50461Y21596D01*
G01X50416Y21613D01*
G01X50370Y21629D01*
G01X50324Y21642D01*
G01X50277Y21654D01*
G01X50230Y21663D01*
G01X50182Y21671D01*
G01X50134Y21676D01*
G01X50086Y21679D01*
G01X50038Y21680D01*
G01X49989Y21679D01*
G01X49941Y21676D01*
G01X49893Y21671D01*
G01X49845Y21663D01*
G01X49798Y21654D01*
G01X49751Y21642D01*
G01X49705Y21629D01*
G01X49659Y21613D01*
G01X49614Y21596D01*
G01X49570Y21576D01*
G01X49526Y21555D01*
G01X49484Y21532D01*
G01X49443Y21507D01*
G01X49403Y21480D01*
G01X49364Y21451D01*
G01X49326Y21421D01*
G01X49290Y21389D01*
G01X49255Y21356D01*
G01X49222Y21321D01*
G01X49190Y21285D01*
G01X49160Y21247D01*
G01X49131Y21208D01*
G01X49104Y21168D01*
G01X49079Y21127D01*
G01X49056Y21085D01*
G01X49035Y21041D01*
G01X49015Y20997D01*
G01X48998Y20952D01*
G01X48982Y20906D01*
G01X48969Y20860D01*
G01X48957Y20813D01*
G01X48948Y20766D01*
G01X48940Y20718D01*
G01X48935Y20670D01*
G01X48932Y20622D01*
G01X48931Y20574D01*
G01X48932Y20525D01*
G01X48935Y20477D01*
G01X48940Y20429D01*
G01X48948Y20381D01*
G01X48957Y20334D01*
G01X48969Y20287D01*
G01X48982Y20241D01*
G01X48998Y20195D01*
G01X49015Y20150D01*
G01X49035Y20106D01*
G01X49056Y20062D01*
G01X49079Y20020D01*
G01X49104Y19979D01*
G01X49131Y19939D01*
G01X49160Y19900D01*
G01X49190Y19862D01*
G01X49222Y19826D01*
G01X49255Y19791D01*
G01X49290Y19758D01*
G01X49326Y19726D01*
G01X49364Y19696D01*
G01X49403Y19667D01*
G01X49443Y19640D01*
G01X49484Y19615D01*
G01X49526Y19592D01*
G01X49570Y19571D01*
G01X49614Y19551D01*
G01X49659Y19534D01*
G01X49705Y19518D01*
G01X49751Y19505D01*
G01X49798Y19493D01*
G01X49845Y19484D01*
G01X49893Y19476D01*
G01X49941Y19471D01*
G01X49989Y19468D01*
G01X50038Y19467D01*
G01X50085Y19468D01*
G01X50132Y19471D01*
G01X50180Y19476D01*
G01X50227Y19483D01*
G01X50274Y19492D01*
G01X50320Y19504D01*
G01X50346Y19507D01*
G01X50362Y19506D01*
G01X50377Y19502D01*
G01X50392Y19496D01*
G01X50405Y19487D01*
G01X50417Y19477D01*
G01X50793Y19101D01*
G01X50804Y19089D01*
G01X50812Y19075D01*
G01X50818Y19061D01*
G01X50822Y19045D01*
G01X50823Y19029D01*
G01X50822Y19014D01*
G01X50819Y19001D01*
G01X50814Y18987D01*
G01X50807Y18974D01*
G01X50798Y18963D01*
G01X50788Y18952D01*
G01X50777Y18944D01*
G01X50764Y18937D01*
G01X50750Y18932D01*
G01X50737Y18929D01*
G01X50722Y18928D01*
G01X50707Y18929D01*
G01X50692Y18932D01*
G01X50678Y18938D01*
G01X50664Y18945D01*
G01X50620Y18975D01*
G01X50573Y19002D01*
G01X50526Y19026D01*
G01X50526Y18522D01*
G01X51030Y18522D01*
G01X51006Y18569D01*
G01X50979Y18616D01*
G01X50949Y18660D01*
G01X50942Y18674D01*
G01X50936Y18688D01*
G01X50933Y18703D01*
G01X50932Y18718D01*
G01X50933Y18733D01*
G01X50936Y18746D01*
G01X50941Y18760D01*
G01X50948Y18773D01*
G01X50956Y18784D01*
G01X50967Y18794D01*
G01X50978Y18803D01*
G01X50991Y18810D01*
G01X51005Y18815D01*
G01X51018Y18818D01*
G01X51033Y18819D01*
G01X51049Y18818D01*
G01X51065Y18814D01*
G01X51079Y18808D01*
G01X51093Y18800D01*
G01X51105Y18789D01*
G01X51914Y17981D01*
G01X51925Y17968D01*
G01X51933Y17955D01*
G01X51939Y17940D01*
G01X51943Y17924D01*
G01X51944Y17909D01*
G01X51944Y6474D01*
G01X51943Y6459D01*
G01X51939Y6443D01*
G01X51933Y6428D01*
G01X51925Y6415D01*
G01X51914Y6402D01*
G01X49223Y3711D01*
G01X49210Y3700D01*
G01X49197Y3692D01*
G01X49182Y3686D01*
G01X49166Y3683D01*
G01X49151Y3681D01*
G01X15999Y3681D01*
G01X15984Y3683D01*
G01X15968Y3686D01*
G01X15953Y3692D01*
G01X15940Y3700D01*
G01X15927Y3711D01*
G01X8969Y10670D01*
G01X8958Y10682D01*
G01X8950Y10695D01*
G01X8944Y10710D01*
G01X8940Y10726D01*
G01X8939Y10742D01*
G01X8939Y12788D01*
G01X8940Y12804D01*
G01X8944Y12819D01*
G01X8949Y12834D01*
G01X8958Y12847D01*
G01X8968Y12860D01*
G01X8979Y12870D01*
G01X8993Y12878D01*
G01X9007Y12884D01*
G01X9023Y12888D01*
G01X9038Y12890D01*
G01X9061Y12892D01*
G01X9085Y12895D01*
G01X9107Y12901D01*
G01X9129Y12909D01*
G01X9150Y12918D01*
G01X9170Y12930D01*
G01X9190Y12944D01*
G01X9208Y12959D01*
G01X9224Y12976D01*
G01X9238Y12994D01*
G01X9252Y13013D01*
G01X9263Y13034D01*
G01X9272Y13055D01*
G01X9279Y13077D01*
G01X9285Y13100D01*
G01X9288Y13123D01*
G01X9289Y13147D01*
G01X9289Y15046D01*
G01X9288Y15070D01*
G01X9285Y15094D01*
G01X9279Y15117D01*
G01X9272Y15139D01*
G01X9262Y15161D01*
G01X9251Y15182D01*
G01X9237Y15201D01*
G01X9222Y15219D01*
G01X9205Y15236D01*
G01X9187Y15251D01*
G01X9167Y15264D01*
G01X9147Y15276D01*
G01X9125Y15286D01*
G01X9102Y15293D01*
G01X9079Y15299D01*
G01X9056Y15302D01*
G01X9032Y15303D01*
G01X7832Y15303D01*
G01X7808Y15302D01*
G01X7785Y15299D01*
G01X7762Y15293D01*
G01X7740Y15286D01*
G01X7718Y15276D01*
G01X7697Y15264D01*
G01X7678Y15251D01*
G01X7660Y15236D01*
G01X7643Y15219D01*
G01X7628Y15201D01*
G01X7614Y15182D01*
G01X7603Y15161D01*
G01X7593Y15139D01*
G01X7585Y15117D01*
G01X7580Y15094D01*
G01X7577Y15070D01*
G01X7576Y15046D01*
G01X7576Y14955D01*
G01X7575Y14940D01*
G01X7572Y14926D01*
G01X7567Y14912D01*
G01X7560Y14900D01*
G01X7551Y14888D01*
G01X7541Y14878D01*
G01X7529Y14869D01*
G01X7516Y14862D01*
G01X7503Y14857D01*
G01X7488Y14854D01*
G01X7474Y14853D01*
G01X5794Y14853D01*
G01X5779Y14854D01*
G01X5764Y14857D01*
G01X5750Y14863D01*
G01X5737Y14871D01*
G01X5725Y14880D01*
G01X5706Y14896D01*
G01X5687Y14910D01*
G01X5666Y14922D01*
G01X5644Y14932D01*
G01X5621Y14940D01*
G01X5598Y14945D01*
G01X5573Y14949D01*
G01X5549Y14950D01*
G01X1054Y14950D01*
G01X1030Y14949D01*
G01X1006Y14945D01*
G01X983Y14940D01*
G01X961Y14933D01*
G01X939Y14923D01*
G01X918Y14911D01*
G01X899Y14898D01*
G01X881Y14883D01*
G01X864Y14866D01*
G01X849Y14848D01*
G01X836Y14829D01*
G01X824Y14808D01*
G01X814Y14786D01*
G01X807Y14764D01*
G01X802Y14741D01*
G01X798Y14717D01*
G01X797Y14693D01*
G01X797Y13500D01*
G01X798Y13476D01*
G01X802Y13452D01*
G01X807Y13429D01*
G01X814Y13407D01*
G01X824Y13385D01*
G01X836Y13364D01*
G01X849Y13345D01*
G01X864Y13327D01*
G01X881Y13310D01*
G01X899Y13295D01*
G01X918Y13282D01*
G01X939Y13270D01*
G01X961Y13260D01*
G01X983Y13253D01*
G01X1006Y13248D01*
G01X1030Y13244D01*
G01X1054Y13243D01*
G01X5549Y13243D01*
G01X5573Y13244D01*
G01X5598Y13248D01*
G01X5621Y13253D01*
G01X5644Y13261D01*
G01X5666Y13271D01*
G01X5687Y13283D01*
G01X5706Y13297D01*
G01X5725Y13313D01*
G01X5737Y13322D01*
G01X5750Y13330D01*
G01X5764Y13336D01*
G01X5779Y13339D01*
G01X5794Y13340D01*
G01X7474Y13340D01*
G01X7488Y13339D01*
G01X7503Y13336D01*
G01X7516Y13331D01*
G01X7529Y13324D01*
G01X7541Y13315D01*
G01X7551Y13305D01*
G01X7560Y13293D01*
G01X7567Y13281D01*
G01X7572Y13267D01*
G01X7575Y13253D01*
G01X7576Y13238D01*
G01X7576Y13147D01*
G01X7577Y13123D01*
G01X7580Y13100D01*
G01X7585Y13077D01*
G01X7593Y13055D01*
G01X7602Y13034D01*
G01X7613Y13013D01*
G01X7626Y12994D01*
G01X7641Y12976D01*
G01X7657Y12959D01*
G01X7675Y12944D01*
G01X7694Y12931D01*
G01X7714Y12919D01*
G01X7735Y12909D01*
G01X7758Y12901D01*
G01X7780Y12895D01*
G01X7803Y12892D01*
G01X7826Y12890D01*
G01X7842Y12888D01*
G01X7857Y12884D01*
G01X7872Y12878D01*
G01X7885Y12870D01*
G01X7897Y12860D01*
G01X7907Y12847D01*
G01X7915Y12834D01*
G01X7921Y12819D01*
G01X7924Y12804D01*
G01X7926Y12788D01*
G01X7926Y10490D01*
G01X7927Y10457D01*
G01X7930Y10424D01*
G01X7935Y10391D01*
G01X7943Y10359D01*
G01X7953Y10327D01*
G01X7964Y10296D01*
G01X7978Y10266D01*
G01X7993Y10236D01*
G01X8011Y10208D01*
G01X8030Y10181D01*
G01X8051Y10156D01*
G01X8074Y10132D01*
G01X15367Y2839D01*
G01X15378Y2827D01*
G01X15386Y2813D01*
G01X15392Y2798D01*
G01X15395Y2782D01*
G01X15397Y2767D01*
G01X15396Y2752D01*
G01X15393Y2738D01*
G01X15388Y2724D01*
G01X15381Y2712D01*
G01X15372Y2700D01*
G01X15362Y2690D01*
G01X15350Y2681D01*
G01X15338Y2674D01*
G01X15324Y2669D01*
G01X15310Y2666D01*
G01X15295Y2665D01*
G01X11046Y2665D01*
G01X11031Y2667D01*
G01X11015Y2670D01*
G01X11000Y2676D01*
G01X10987Y2684D01*
G01X10974Y2695D01*
G01X10324Y3346D01*
G01X10310Y3362D01*
G01X10301Y3380D01*
G01X10287Y3413D01*
G01X10271Y3444D01*
G01X10253Y3475D01*
G01X10233Y3504D01*
G01X10212Y3532D01*
G01X10188Y3559D01*
G01X10164Y3583D01*
G01X10137Y3607D01*
G01X10109Y3629D01*
G01X10080Y3648D01*
G01X10049Y3666D01*
G01X10018Y3683D01*
G01X9985Y3697D01*
G01X9952Y3708D01*
G01X9918Y3719D01*
G01X9884Y3726D01*
G01X9849Y3732D01*
G01X9814Y3735D01*
G01X9779Y3736D01*
G01X9744Y3735D01*
G01X9711Y3732D01*
G01X9677Y3727D01*
G01X9644Y3720D01*
G01X9611Y3710D01*
G01X9579Y3700D01*
G01X9548Y3687D01*
G01X9517Y3672D01*
G01X9488Y3655D01*
G01X9459Y3637D01*
G01X9432Y3616D01*
G01X9406Y3595D01*
G01X9381Y3572D01*
G01X9358Y3547D01*
G01X9337Y3521D01*
G01X9316Y3494D01*
G01X9298Y3465D01*
G01X9281Y3436D01*
G01X9266Y3405D01*
G01X9253Y3374D01*
G01X9243Y3342D01*
G01X9233Y3309D01*
G01X9226Y3276D01*
G01X9221Y3242D01*
G01X9218Y3209D01*
G01X9217Y3175D01*
G01X9218Y3139D01*
G01X9221Y3104D01*
G01X9227Y3069D01*
G01X9234Y3035D01*
G01X9245Y3001D01*
G01X9256Y2968D01*
G01X9271Y2935D01*
G01X9287Y2904D01*
G01X9305Y2873D01*
G01X9324Y2844D01*
G01X9346Y2816D01*
G01X9370Y2789D01*
G01X9394Y2765D01*
G01X9421Y2741D01*
G01X9449Y2720D01*
G01X9478Y2700D01*
G01X9509Y2682D01*
G01X9540Y2666D01*
G01X9573Y2652D01*
G01X9591Y2643D01*
G01X9607Y2629D01*
G01X10436Y1800D01*
G01X10461Y1778D01*
G01X10486Y1757D01*
G01X10513Y1737D01*
G01X10541Y1720D01*
G01X10570Y1704D01*
G01X10600Y1691D01*
G01X10631Y1679D01*
G01X10663Y1669D01*
G01X10695Y1662D01*
G01X10728Y1656D01*
G01X10761Y1653D01*
G01X10795Y1652D01*
G01X49784Y1652D01*
G01X49817Y1653D01*
G01X49850Y1656D01*
G01X49883Y1662D01*
G01X49915Y1669D01*
G01X49947Y1679D01*
G01X49978Y1691D01*
G01X50008Y1704D01*
G01X50037Y1720D01*
G01X50065Y1737D01*
G01X50092Y1757D01*
G01X50117Y1778D01*
G01X50142Y1800D01*
G01X54079Y5737D01*
G01X54102Y5762D01*
G01X54122Y5787D01*
G01X54142Y5814D01*
G01X54159Y5842D01*
G01X54175Y5871D01*
G01X54188Y5901D01*
G01X54200Y5932D01*
G01X54210Y5964D01*
G01X54217Y5996D01*
G01X54223Y6029D01*
G01X54226Y6062D01*
G01X54227Y6096D01*
G01X54227Y21971D01*
G01X54226Y22004D01*
G01X54223Y22037D01*
G01X54217Y22070D01*
G01X54210Y22102D01*
G01X54200Y22134D01*
G01X54188Y22165D01*
G01X54175Y22195D01*
G01X54159Y22224D01*
G01X54142Y22252D01*
G01X54122Y22279D01*
G01X54102Y22304D01*
G01X54079Y22329D01*
G01X51134Y25274D01*
G01X51124Y25286D01*
G01X51115Y25299D01*
G01X51109Y25314D01*
G01X51105Y25329D01*
G01X51104Y25345D01*
G01X51107Y25371D01*
G01X51119Y25417D01*
G01X51128Y25464D01*
G01X51135Y25511D01*
G01X51140Y25559D01*
G01X51143Y25606D01*
G01X51144Y25654D01*
G01X51143Y25702D01*
G01X51140Y25750D01*
G01X51135Y25798D01*
G01X51127Y25846D01*
G01X51118Y25893D01*
G01X51106Y25940D01*
G01X51093Y25986D01*
G01X51077Y26032D01*
G01X51060Y26077D01*
G01X51040Y26121D01*
G01X51019Y26165D01*
G01X50996Y26207D01*
G01X50971Y26248D01*
G01X50944Y26288D01*
G01X50915Y26327D01*
G01X50885Y26365D01*
G01X50853Y26401D01*
G01X50820Y26436D01*
G01X50785Y26469D01*
G01X50749Y26501D01*
G01X50711Y26531D01*
G01X50672Y26560D01*
G01X50632Y26587D01*
G01X50591Y26612D01*
G01X50549Y26635D01*
G01X50505Y26656D01*
G01X50461Y26676D01*
G01X50416Y26693D01*
G01X50370Y26709D01*
G01X50324Y26722D01*
G01X50277Y26734D01*
G01X50230Y26743D01*
G01X50182Y26751D01*
G01X50134Y26756D01*
G01X50086Y26759D01*
G37*
G36*
G01X39290Y7024D02*
G01X39243Y7025D01*
G01X39195Y7024D01*
G01X39148Y7021D01*
G01X39101Y7015D01*
G01X39054Y7008D01*
G01X39007Y6999D01*
G01X38962Y6987D01*
G01X38916Y6973D01*
G01X38871Y6958D01*
G01X38827Y6940D01*
G01X38784Y6920D01*
G01X38742Y6899D01*
G01X38700Y6875D01*
G01X38660Y6850D01*
G01X38622Y6823D01*
G01X38584Y6795D01*
G01X38548Y6764D01*
G01X38513Y6732D01*
G01X38479Y6698D01*
G01X38447Y6663D01*
G01X38416Y6627D01*
G01X38388Y6589D01*
G01X38361Y6551D01*
G01X38336Y6511D01*
G01X38312Y6469D01*
G01X38291Y6427D01*
G01X38271Y6384D01*
G01X38253Y6340D01*
G01X38238Y6295D01*
G01X38224Y6249D01*
G01X38212Y6204D01*
G01X38203Y6157D01*
G01X38196Y6110D01*
G01X38190Y6063D01*
G01X38187Y6016D01*
G01X38186Y5969D01*
G01X38187Y5919D01*
G01X38190Y5870D01*
G01X38196Y5822D01*
G01X38204Y5773D01*
G01X38214Y5725D01*
G01X38217Y5702D01*
G01X38216Y5686D01*
G01X38212Y5670D01*
G01X38206Y5656D01*
G01X38198Y5642D01*
G01X38187Y5630D01*
G01X37711Y5154D01*
G01X37699Y5143D01*
G01X37685Y5135D01*
G01X37671Y5129D01*
G01X37655Y5125D01*
G01X37639Y5124D01*
G01X36402Y5124D01*
G01X36387Y5125D01*
G01X36373Y5128D01*
G01X36360Y5133D01*
G01X36347Y5140D01*
G01X36335Y5149D01*
G01X36325Y5159D01*
G01X36316Y5170D01*
G01X36309Y5183D01*
G01X36304Y5197D01*
G01X36301Y5211D01*
G01X36300Y5225D01*
G01X36300Y5390D01*
G01X35857Y5390D01*
G01X35857Y5225D01*
G01X35856Y5211D01*
G01X35853Y5197D01*
G01X35848Y5183D01*
G01X35841Y5170D01*
G01X35832Y5159D01*
G01X35822Y5149D01*
G01X35810Y5140D01*
G01X35798Y5133D01*
G01X35784Y5128D01*
G01X35770Y5125D01*
G01X35756Y5124D01*
G01X35331Y5124D01*
G01X35317Y5125D01*
G01X35303Y5128D01*
G01X35289Y5133D01*
G01X35277Y5140D01*
G01X35265Y5149D01*
G01X35255Y5159D01*
G01X35246Y5170D01*
G01X35239Y5183D01*
G01X35234Y5197D01*
G01X35231Y5211D01*
G01X35230Y5225D01*
G01X35230Y5390D01*
G01X34787Y5390D01*
G01X34787Y5225D01*
G01X34786Y5211D01*
G01X34783Y5197D01*
G01X34778Y5183D01*
G01X34771Y5170D01*
G01X34762Y5159D01*
G01X34752Y5149D01*
G01X34740Y5140D01*
G01X34727Y5133D01*
G01X34714Y5128D01*
G01X34700Y5125D01*
G01X34685Y5124D01*
G01X34402Y5124D01*
G01X34387Y5125D01*
G01X34373Y5128D01*
G01X34360Y5133D01*
G01X34347Y5140D01*
G01X34335Y5149D01*
G01X34325Y5159D01*
G01X34316Y5170D01*
G01X34309Y5183D01*
G01X34304Y5197D01*
G01X34301Y5211D01*
G01X34300Y5225D01*
G01X34300Y6617D01*
G01X34299Y6640D01*
G01X34296Y6663D01*
G01X34290Y6687D01*
G01X34283Y6709D01*
G01X34273Y6731D01*
G01X34262Y6751D01*
G01X34248Y6771D01*
G01X34233Y6789D01*
G01X34216Y6806D01*
G01X34198Y6821D01*
G01X34179Y6835D01*
G01X34158Y6846D01*
G01X34136Y6855D01*
G01X34114Y6863D01*
G01X34091Y6869D01*
G01X34067Y6872D01*
G01X34044Y6873D01*
G01X33043Y6873D01*
G01X33020Y6872D01*
G01X32996Y6869D01*
G01X32973Y6863D01*
G01X32951Y6855D01*
G01X32929Y6846D01*
G01X32908Y6835D01*
G01X32889Y6821D01*
G01X32871Y6806D01*
G01X32854Y6789D01*
G01X32839Y6771D01*
G01X32825Y6751D01*
G01X32814Y6731D01*
G01X32804Y6709D01*
G01X32797Y6687D01*
G01X32791Y6663D01*
G01X32788Y6640D01*
G01X32787Y6617D01*
G01X32787Y5066D01*
G01X32788Y5043D01*
G01X32791Y5021D01*
G01X32796Y4998D01*
G01X32804Y4976D01*
G01X32813Y4955D01*
G01X32823Y4934D01*
G01X32836Y4915D01*
G01X32851Y4897D01*
G01X32867Y4880D01*
G01X32884Y4865D01*
G01X32903Y4852D01*
G01X32923Y4840D01*
G01X32944Y4830D01*
G01X32966Y4822D01*
G01X32980Y4816D01*
G01X32994Y4808D01*
G01X33006Y4798D01*
G01X33016Y4785D01*
G01X33025Y4772D01*
G01X33031Y4757D01*
G01X33035Y4741D01*
G01X33036Y4725D01*
G01X33036Y4617D01*
G01X33037Y4584D01*
G01X33040Y4551D01*
G01X33046Y4518D01*
G01X33054Y4486D01*
G01X33063Y4454D01*
G01X33075Y4423D01*
G01X33089Y4393D01*
G01X33104Y4364D01*
G01X33122Y4336D01*
G01X33141Y4309D01*
G01X33162Y4283D01*
G01X33185Y4259D01*
G01X33209Y4236D01*
G01X33234Y4215D01*
G01X33261Y4196D01*
G01X33289Y4178D01*
G01X33319Y4163D01*
G01X33349Y4149D01*
G01X33380Y4138D01*
G01X33412Y4128D01*
G01X33444Y4120D01*
G01X33477Y4115D01*
G01X33510Y4112D01*
G01X33543Y4111D01*
G01X37891Y4111D01*
G01X37924Y4112D01*
G01X37957Y4115D01*
G01X37990Y4120D01*
G01X38022Y4128D01*
G01X38054Y4138D01*
G01X38085Y4149D01*
G01X38115Y4163D01*
G01X38145Y4178D01*
G01X38173Y4196D01*
G01X38200Y4215D01*
G01X38225Y4236D01*
G01X38249Y4259D01*
G01X38904Y4913D01*
G01X38916Y4924D01*
G01X38930Y4932D01*
G01X38944Y4938D01*
G01X38960Y4942D01*
G01X38976Y4943D01*
G01X38999Y4940D01*
G01X39047Y4930D01*
G01X39096Y4922D01*
G01X39144Y4916D01*
G01X39193Y4913D01*
G01X39243Y4912D01*
G01X39290Y4913D01*
G01X39337Y4916D01*
G01X39384Y4922D01*
G01X39431Y4929D01*
G01X39478Y4938D01*
G01X39523Y4950D01*
G01X39569Y4964D01*
G01X39614Y4979D01*
G01X39658Y4997D01*
G01X39701Y5017D01*
G01X39743Y5038D01*
G01X39785Y5062D01*
G01X39825Y5087D01*
G01X39863Y5114D01*
G01X39901Y5142D01*
G01X39937Y5173D01*
G01X39972Y5205D01*
G01X40006Y5239D01*
G01X40038Y5274D01*
G01X40069Y5310D01*
G01X40097Y5348D01*
G01X40124Y5386D01*
G01X40149Y5426D01*
G01X40173Y5468D01*
G01X40194Y5510D01*
G01X40214Y5553D01*
G01X40232Y5597D01*
G01X40247Y5642D01*
G01X40261Y5688D01*
G01X40273Y5733D01*
G01X40282Y5780D01*
G01X40289Y5827D01*
G01X40295Y5874D01*
G01X40298Y5921D01*
G01X40299Y5969D01*
G01X40298Y6016D01*
G01X40295Y6063D01*
G01X40289Y6110D01*
G01X40282Y6157D01*
G01X40273Y6204D01*
G01X40261Y6249D01*
G01X40247Y6295D01*
G01X40232Y6340D01*
G01X40214Y6384D01*
G01X40194Y6427D01*
G01X40173Y6469D01*
G01X40149Y6511D01*
G01X40124Y6551D01*
G01X40097Y6589D01*
G01X40069Y6627D01*
G01X40038Y6663D01*
G01X40006Y6698D01*
G01X39972Y6732D01*
G01X39937Y6764D01*
G01X39901Y6795D01*
G01X39863Y6823D01*
G01X39825Y6850D01*
G01X39785Y6875D01*
G01X39743Y6899D01*
G01X39701Y6920D01*
G01X39658Y6940D01*
G01X39614Y6958D01*
G01X39569Y6973D01*
G01X39523Y6987D01*
G01X39478Y6999D01*
G01X39431Y7008D01*
G01X39384Y7015D01*
G01X39337Y7021D01*
G01X39290Y7024D01*
G37*
G36*
G01X45272Y5505D02*
G01X44786Y5505D01*
G01X44786Y5019D01*
G01X44827Y5040D01*
G01X44868Y5064D01*
G01X44907Y5089D01*
G01X44946Y5115D01*
G01X44983Y5144D01*
G01X45018Y5173D01*
G01X45053Y5205D01*
G01X45086Y5238D01*
G01X45118Y5273D01*
G01X45147Y5308D01*
G01X45176Y5345D01*
G01X45202Y5384D01*
G01X45227Y5423D01*
G01X45251Y5464D01*
G01X45272Y5505D01*
G37*
G36*
G01X43859Y5505D02*
G01X43373Y5505D01*
G01X43394Y5464D01*
G01X43418Y5423D01*
G01X43443Y5384D01*
G01X43469Y5345D01*
G01X43498Y5308D01*
G01X43527Y5273D01*
G01X43559Y5238D01*
G01X43592Y5205D01*
G01X43627Y5173D01*
G01X43662Y5144D01*
G01X43699Y5115D01*
G01X43738Y5089D01*
G01X43777Y5064D01*
G01X43818Y5040D01*
G01X43859Y5019D01*
G01X43859Y5505D01*
G37*
G36*
G01X35230Y6873D02*
G01X35043Y6873D01*
G01X35020Y6872D01*
G01X34996Y6869D01*
G01X34973Y6863D01*
G01X34951Y6855D01*
G01X34929Y6846D01*
G01X34908Y6835D01*
G01X34889Y6821D01*
G01X34871Y6806D01*
G01X34854Y6789D01*
G01X34839Y6771D01*
G01X34825Y6751D01*
G01X34814Y6731D01*
G01X34804Y6709D01*
G01X34797Y6687D01*
G01X34791Y6663D01*
G01X34788Y6640D01*
G01X34787Y6617D01*
G01X34787Y6293D01*
G01X35230Y6293D01*
G01X35230Y6873D01*
G37*
G36*
G01X36044Y6873D02*
G01X35857Y6873D01*
G01X35857Y6293D01*
G01X36300Y6293D01*
G01X36300Y6617D01*
G01X36299Y6640D01*
G01X36296Y6663D01*
G01X36290Y6687D01*
G01X36283Y6709D01*
G01X36273Y6731D01*
G01X36262Y6751D01*
G01X36248Y6771D01*
G01X36233Y6789D01*
G01X36216Y6806D01*
G01X36198Y6821D01*
G01X36179Y6835D01*
G01X36158Y6846D01*
G01X36136Y6855D01*
G01X36114Y6863D01*
G01X36091Y6869D01*
G01X36067Y6872D01*
G01X36044Y6873D01*
G37*
G36*
G01X43859Y6432D02*
G01X43859Y6918D01*
G01X43818Y6897D01*
G01X43777Y6873D01*
G01X43738Y6848D01*
G01X43699Y6822D01*
G01X43662Y6793D01*
G01X43627Y6764D01*
G01X43592Y6732D01*
G01X43559Y6699D01*
G01X43527Y6664D01*
G01X43498Y6629D01*
G01X43469Y6592D01*
G01X43443Y6553D01*
G01X43418Y6514D01*
G01X43394Y6473D01*
G01X43373Y6432D01*
G01X43859Y6432D01*
G37*
G36*
G01X44827Y6897D02*
G01X44786Y6918D01*
G01X44786Y6432D01*
G01X45272Y6432D01*
G01X45251Y6473D01*
G01X45227Y6514D01*
G01X45202Y6553D01*
G01X45176Y6592D01*
G01X45147Y6629D01*
G01X45118Y6664D01*
G01X45086Y6699D01*
G01X45053Y6732D01*
G01X45018Y6764D01*
G01X44983Y6793D01*
G01X44946Y6822D01*
G01X44907Y6848D01*
G01X44868Y6873D01*
G01X44827Y6897D01*
G37*
G36*
G01X38983Y44262D02*
G01X34714Y44262D01*
G01X34685Y44261D01*
G01X34656Y44257D01*
G01X34627Y44252D01*
G01X34599Y44244D01*
G01X34571Y44235D01*
G01X34545Y44223D01*
G01X34519Y44209D01*
G01X34494Y44193D01*
G01X34471Y44176D01*
G01X34449Y44157D01*
G01X34428Y44136D01*
G01X34409Y44114D01*
G01X34392Y44090D01*
G01X34377Y44065D01*
G01X34364Y44040D01*
G01X34352Y44013D01*
G01X34343Y43985D01*
G01X34336Y43957D01*
G01X34331Y43928D01*
G01X34328Y43914D01*
G01X34323Y43900D01*
G01X34316Y43887D01*
G01X34307Y43875D01*
G01X34297Y43865D01*
G01X34285Y43857D01*
G01X34272Y43850D01*
G01X34259Y43844D01*
G01X34245Y43841D01*
G01X34230Y43840D01*
G01X34214Y43840D01*
G01X34191Y43839D01*
G01X34168Y43836D01*
G01X34144Y43830D01*
G01X34122Y43823D01*
G01X34100Y43813D01*
G01X34080Y43802D01*
G01X34060Y43788D01*
G01X34042Y43773D01*
G01X34025Y43757D01*
G01X34010Y43738D01*
G01X33996Y43718D01*
G01X33985Y43698D01*
G01X33975Y43676D01*
G01X33968Y43654D01*
G01X33962Y43631D01*
G01X33959Y43607D01*
G01X33958Y43583D01*
G01X33958Y42497D01*
G01X33957Y42483D01*
G01X33954Y42468D01*
G01X33949Y42455D01*
G01X33942Y42442D01*
G01X33933Y42431D01*
G01X33923Y42420D01*
G01X33911Y42411D01*
G01X33898Y42405D01*
G01X33885Y42400D01*
G01X33871Y42397D01*
G01X33856Y42396D01*
G01X33840Y42397D01*
G01X33825Y42400D01*
G01X33810Y42406D01*
G01X33797Y42415D01*
G01X33785Y42425D01*
G01X33262Y42947D01*
G01X33240Y42968D01*
G01X33216Y42987D01*
G01X33191Y43004D01*
G01X33164Y43018D01*
G01X33137Y43031D01*
G01X33108Y43042D01*
G01X33079Y43050D01*
G01X33049Y43056D01*
G01X33020Y43060D01*
G01X32989Y43061D01*
G01X23327Y43061D01*
G01X23296Y43060D01*
G01X23266Y43056D01*
G01X23236Y43050D01*
G01X23207Y43042D01*
G01X23179Y43031D01*
G01X23152Y43018D01*
G01X23125Y43004D01*
G01X23100Y42987D01*
G01X23076Y42968D01*
G01X23054Y42947D01*
G01X18022Y37918D01*
G01X18001Y37896D01*
G01X17983Y37872D01*
G01X17965Y37847D01*
G01X17951Y37821D01*
G01X17938Y37793D01*
G01X17927Y37764D01*
G01X17919Y37735D01*
G01X17913Y37705D01*
G01X17910Y37675D01*
G01X17909Y37645D01*
G01X17909Y33652D01*
G01X17910Y33621D01*
G01X17913Y33592D01*
G01X17919Y33562D01*
G01X17927Y33533D01*
G01X17938Y33504D01*
G01X17951Y33476D01*
G01X17966Y33450D01*
G01X17983Y33424D01*
G01X18001Y33401D01*
G01X18022Y33378D01*
G01X18907Y32496D01*
G01X18917Y32484D01*
G01X18926Y32470D01*
G01X18932Y32455D01*
G01X18935Y32440D01*
G01X18937Y32424D01*
G01X18935Y32404D01*
G01X18929Y32386D01*
G01X18921Y32363D01*
G01X18915Y32339D01*
G01X18912Y32314D01*
G01X18910Y32290D01*
G01X18910Y31090D01*
G01X18911Y31066D01*
G01X18915Y31042D01*
G01X18920Y31020D01*
G01X18928Y30997D01*
G01X18937Y30975D01*
G01X18949Y30954D01*
G01X18962Y30935D01*
G01X18977Y30917D01*
G01X18994Y30900D01*
G01X19012Y30885D01*
G01X19032Y30872D01*
G01X19053Y30860D01*
G01X19074Y30850D01*
G01X19097Y30843D01*
G01X19120Y30837D01*
G01X19143Y30834D01*
G01X19167Y30833D01*
G01X19567Y30833D01*
G01X19596Y30835D01*
G01X19624Y30839D01*
G01X19651Y30847D01*
G01X19668Y30851D01*
G01X19685Y30853D01*
G01X19701Y30851D01*
G01X19718Y30847D01*
G01X19745Y30839D01*
G01X19773Y30835D01*
G01X19802Y30833D01*
G01X20202Y30833D01*
G01X20231Y30835D01*
G01X20259Y30839D01*
G01X20286Y30847D01*
G01X20303Y30851D01*
G01X20320Y30853D01*
G01X20336Y30851D01*
G01X20353Y30847D01*
G01X20380Y30839D01*
G01X20408Y30835D01*
G01X20437Y30833D01*
G01X20784Y30833D01*
G01X20799Y30832D01*
G01X20812Y30829D01*
G01X20826Y30824D01*
G01X20839Y30817D01*
G01X20850Y30808D01*
G01X20861Y30798D01*
G01X20869Y30786D01*
G01X20876Y30774D01*
G01X20881Y30760D01*
G01X20884Y30746D01*
G01X20885Y30731D01*
G01X20885Y28209D01*
G01X20887Y28178D01*
G01X20890Y28147D01*
G01X20897Y28117D01*
G01X20905Y28087D01*
G01X20916Y28058D01*
G01X20922Y28039D01*
G01X20924Y28018D01*
G01X20924Y27995D01*
G01X20925Y27961D01*
G01X20928Y27928D01*
G01X20933Y27894D01*
G01X20940Y27861D01*
G01X20949Y27828D01*
G01X20960Y27796D01*
G01X20973Y27765D01*
G01X20988Y27734D01*
G01X21005Y27705D01*
G01X21023Y27676D01*
G01X21043Y27649D01*
G01X21065Y27623D01*
G01X21088Y27598D01*
G01X21113Y27575D01*
G01X21139Y27553D01*
G01X21166Y27533D01*
G01X21195Y27515D01*
G01X21224Y27498D01*
G01X21255Y27483D01*
G01X21286Y27470D01*
G01X21318Y27459D01*
G01X21351Y27450D01*
G01X21384Y27443D01*
G01X21418Y27438D01*
G01X21451Y27435D01*
G01X21485Y27434D01*
G01X21519Y27435D01*
G01X21553Y27438D01*
G01X21586Y27443D01*
G01X21620Y27450D01*
G01X21652Y27459D01*
G01X21684Y27470D01*
G01X21716Y27483D01*
G01X21746Y27498D01*
G01X21776Y27515D01*
G01X21804Y27533D01*
G01X21832Y27553D01*
G01X21858Y27575D01*
G01X21883Y27598D01*
G01X21905Y27623D01*
G01X21927Y27649D01*
G01X21948Y27676D01*
G01X21966Y27705D01*
G01X21983Y27734D01*
G01X22011Y27796D01*
G01X22021Y27828D01*
G01X22030Y27861D01*
G01X22038Y27894D01*
G01X22043Y27928D01*
G01X22046Y27961D01*
G01X22047Y27995D01*
G01X22046Y28029D01*
G01X22043Y28063D01*
G01X22038Y28096D01*
G01X22031Y28129D01*
G01X22022Y28162D01*
G01X22011Y28194D01*
G01X21998Y28225D01*
G01X21983Y28255D01*
G01X21966Y28285D01*
G01X21948Y28313D01*
G01X21928Y28341D01*
G01X21906Y28367D01*
G01X21884Y28391D01*
G01X21859Y28414D01*
G01X21833Y28436D01*
G01X21806Y28456D01*
G01X21778Y28475D01*
G01X21749Y28492D01*
G01X21718Y28506D01*
G01X21705Y28514D01*
G01X21694Y28522D01*
G01X21683Y28532D01*
G01X21675Y28544D01*
G01X21668Y28557D01*
G01X21663Y28570D01*
G01X21660Y28585D01*
G01X21659Y28599D01*
G01X21659Y30332D01*
G01X21660Y30346D01*
G01X21663Y30360D01*
G01X21668Y30374D01*
G01X21675Y30387D01*
G01X21683Y30398D01*
G01X21694Y30408D01*
G01X21705Y30417D01*
G01X21718Y30424D01*
G01X21732Y30429D01*
G01X21745Y30432D01*
G01X21760Y30433D01*
G01X21775Y30432D01*
G01X21819Y30421D01*
G01X21848Y30415D01*
G01X21878Y30411D01*
G01X21907Y30410D01*
G01X22040Y30410D01*
G01X22056Y30409D01*
G01X22072Y30405D01*
G01X22086Y30399D01*
G01X22100Y30391D01*
G01X22112Y30381D01*
G01X22698Y29795D01*
G01X22708Y29783D01*
G01X22716Y29770D01*
G01X22722Y29757D01*
G01X22726Y29742D01*
G01X22728Y29727D01*
G01X22730Y29693D01*
G01X22735Y29659D01*
G01X22742Y29625D01*
G01X22750Y29592D01*
G01X22761Y29559D01*
G01X22774Y29528D01*
G01X22788Y29496D01*
G01X22805Y29466D01*
G01X22823Y29437D01*
G01X22843Y29409D01*
G01X22865Y29383D01*
G01X22888Y29357D01*
G01X22913Y29333D01*
G01X22939Y29311D01*
G01X22966Y29291D01*
G01X22995Y29272D01*
G01X23025Y29255D01*
G01X23056Y29239D01*
G01X23087Y29226D01*
G01X23120Y29215D01*
G01X23153Y29206D01*
G01X23186Y29198D01*
G01X23220Y29193D01*
G01X23254Y29190D01*
G01X23289Y29189D01*
G01X23323Y29190D01*
G01X23356Y29193D01*
G01X23390Y29198D01*
G01X23423Y29205D01*
G01X23456Y29215D01*
G01X23488Y29225D01*
G01X23519Y29238D01*
G01X23550Y29253D01*
G01X23579Y29270D01*
G01X23608Y29288D01*
G01X23635Y29309D01*
G01X23661Y29330D01*
G01X23686Y29353D01*
G01X23709Y29378D01*
G01X23731Y29404D01*
G01X23751Y29431D01*
G01X23769Y29460D01*
G01X23786Y29489D01*
G01X23801Y29520D01*
G01X23814Y29551D01*
G01X23825Y29583D01*
G01X23834Y29616D01*
G01X23841Y29649D01*
G01X23846Y29683D01*
G01X23849Y29716D01*
G01X23850Y29751D01*
G01X23849Y29786D01*
G01X23846Y29822D01*
G01X23840Y29857D01*
G01X23832Y29892D01*
G01X23822Y29926D01*
G01X23810Y29959D01*
G01X23805Y29978D01*
G01X23803Y29997D01*
G01X23804Y30012D01*
G01X23807Y30026D01*
G01X23812Y30040D01*
G01X23819Y30052D01*
G01X23828Y30064D01*
G01X23838Y30074D01*
G01X23850Y30083D01*
G01X23893Y30105D01*
G01X23923Y30121D01*
G01X23951Y30140D01*
G01X23978Y30159D01*
G01X24005Y30181D01*
G01X24029Y30205D01*
G01X24052Y30229D01*
G01X24074Y30255D01*
G01X24094Y30283D01*
G01X24112Y30311D01*
G01X24129Y30341D01*
G01X24144Y30371D01*
G01X24157Y30402D01*
G01X24168Y30434D01*
G01X24177Y30467D01*
G01X24184Y30500D01*
G01X24189Y30534D01*
G01X24192Y30567D01*
G01X24193Y30601D01*
G01X24192Y30635D01*
G01X24189Y30670D01*
G01X24188Y30682D01*
G01X24190Y30703D01*
G01X24197Y30742D01*
G01X24199Y30757D01*
G01X24204Y30771D01*
G01X24211Y30784D01*
G01X24219Y30796D01*
G01X24230Y30807D01*
G01X24242Y30816D01*
G01X24255Y30823D01*
G01X24269Y30829D01*
G01X24283Y30832D01*
G01X24283Y31375D01*
G01X24275Y31391D01*
G01X24270Y31409D01*
G01X24269Y31427D01*
G01X24269Y31952D01*
G01X24270Y31970D01*
G01X24275Y31988D01*
G01X24283Y32005D01*
G01X24283Y32168D01*
G01X24284Y32183D01*
G01X24287Y32197D01*
G01X24293Y32210D01*
G01X24300Y32223D01*
G01X24308Y32235D01*
G01X24318Y32245D01*
G01X24330Y32253D01*
G01X24343Y32261D01*
G01X24357Y32266D01*
G01X24371Y32269D01*
G01X24385Y32270D01*
G01X24509Y32270D01*
G01X24523Y32269D01*
G01X24537Y32266D01*
G01X24551Y32261D01*
G01X24564Y32253D01*
G01X24576Y32245D01*
G01X24586Y32235D01*
G01X24594Y32223D01*
G01X24601Y32210D01*
G01X24607Y32197D01*
G01X24610Y32183D01*
G01X24611Y32168D01*
G01X24611Y32005D01*
G01X24619Y31988D01*
G01X24624Y31970D01*
G01X24625Y31952D01*
G01X24625Y31427D01*
G01X24624Y31409D01*
G01X24619Y31391D01*
G01X24611Y31375D01*
G01X24611Y30832D01*
G01X24625Y30830D01*
G01X24639Y30824D01*
G01X24652Y30817D01*
G01X24664Y30809D01*
G01X24675Y30799D01*
G01X24684Y30786D01*
G01X24691Y30774D01*
G01X24696Y30759D01*
G01X24699Y30745D01*
G01X24704Y30716D01*
G01X24711Y30688D01*
G01X24720Y30660D01*
G01X24732Y30633D01*
G01X24745Y30608D01*
G01X24760Y30583D01*
G01X24778Y30559D01*
G01X24797Y30536D01*
G01X24817Y30516D01*
G01X24839Y30496D01*
G01X24862Y30479D01*
G01X24887Y30463D01*
G01X24913Y30450D01*
G01X24939Y30438D01*
G01X24967Y30428D01*
G01X24995Y30421D01*
G01X25024Y30415D01*
G01X25053Y30411D01*
G01X25082Y30410D01*
G01X25717Y30410D01*
G01X25747Y30411D01*
G01X25777Y30415D01*
G01X25807Y30421D01*
G01X25836Y30429D01*
G01X25865Y30440D01*
G01X25892Y30453D01*
G01X25919Y30467D01*
G01X25944Y30484D01*
G01X25967Y30503D01*
G01X25982Y30513D01*
G01X25998Y30521D01*
G01X26016Y30525D01*
G01X26033Y30527D01*
G01X26049Y30526D01*
G01X26065Y30522D01*
G01X26080Y30516D01*
G01X26093Y30507D01*
G01X26105Y30497D01*
G01X26119Y30484D01*
G01X26129Y30472D01*
G01X26137Y30458D01*
G01X26143Y30443D01*
G01X26147Y30428D01*
G01X26148Y30412D01*
G01X26148Y27260D01*
G01X26147Y27245D01*
G01X26143Y27229D01*
G01X26137Y27214D01*
G01X26129Y27200D01*
G01X26119Y27189D01*
G01X24893Y25962D01*
G01X24881Y25952D01*
G01X24868Y25945D01*
G01X24854Y25938D01*
G01X24840Y25934D01*
G01X24825Y25932D01*
G01X24790Y25930D01*
G01X24756Y25926D01*
G01X24723Y25919D01*
G01X24690Y25910D01*
G01X24657Y25899D01*
G01X24625Y25887D01*
G01X24594Y25872D01*
G01X24564Y25856D01*
G01X24535Y25837D01*
G01X24507Y25818D01*
G01X24481Y25796D01*
G01X24455Y25772D01*
G01X24431Y25747D01*
G01X24409Y25722D01*
G01X24389Y25694D01*
G01X24370Y25665D01*
G01X24353Y25635D01*
G01X24337Y25605D01*
G01X24324Y25573D01*
G01X24313Y25541D01*
G01X24304Y25508D01*
G01X24296Y25474D01*
G01X24291Y25440D01*
G01X24288Y25406D01*
G01X24287Y25372D01*
G01X24288Y25336D01*
G01X24291Y25301D01*
G01X24297Y25266D01*
G01X24305Y25231D01*
G01X24314Y25197D01*
G01X24327Y25164D01*
G01X24340Y25132D01*
G01X24357Y25100D01*
G01X24375Y25070D01*
G01X24395Y25040D01*
G01X24417Y25013D01*
G01X24440Y24986D01*
G01X24465Y24961D01*
G01X24492Y24938D01*
G01X24520Y24916D01*
G01X24549Y24897D01*
G01X24580Y24879D01*
G01X24592Y24870D01*
G01X24604Y24859D01*
G01X24614Y24848D01*
G01X24622Y24835D01*
G01X24628Y24820D01*
G01X24631Y24805D01*
G01X24632Y24789D01*
G01X24631Y24774D01*
G01X24627Y24758D01*
G01X24621Y24743D01*
G01X24613Y24729D01*
G01X24602Y24718D01*
G01X20300Y20415D01*
G01X20279Y20392D01*
G01X20260Y20368D01*
G01X20243Y20342D01*
G01X20228Y20315D01*
G01X20215Y20287D01*
G01X20205Y20258D01*
G01X20197Y20228D01*
G01X20191Y20198D01*
G01X20187Y20182D01*
G01X20182Y20168D01*
G01X20174Y20154D01*
G01X20164Y20142D01*
G01X20152Y20132D01*
G01X20152Y19461D01*
G01X20162Y19451D01*
G01X20171Y19440D01*
G01X20178Y19427D01*
G01X20183Y19413D01*
G01X20186Y19399D01*
G01X20187Y19385D01*
G01X20187Y18562D01*
G01X20186Y18548D01*
G01X20183Y18533D01*
G01X20178Y18520D01*
G01X20171Y18507D01*
G01X20162Y18495D01*
G01X20152Y18485D01*
G01X20152Y17809D01*
G01X20162Y17799D01*
G01X20171Y17788D01*
G01X20178Y17775D01*
G01X20183Y17761D01*
G01X20186Y17747D01*
G01X20187Y17733D01*
G01X20187Y16872D01*
G01X20186Y16856D01*
G01X20182Y16840D01*
G01X20176Y16825D01*
G01X20168Y16812D01*
G01X20157Y16800D01*
G01X19665Y16308D01*
G01X19644Y16285D01*
G01X19626Y16262D01*
G01X19609Y16237D01*
G01X19594Y16210D01*
G01X19581Y16182D01*
G01X19571Y16154D01*
G01X19563Y16125D01*
G01X19556Y16095D01*
G01X19553Y16065D01*
G01X19552Y16035D01*
G01X19552Y14070D01*
G01X19551Y14055D01*
G01X19548Y14041D01*
G01X19542Y14027D01*
G01X19535Y14014D01*
G01X19525Y14002D01*
G01X19502Y13974D01*
G01X19480Y13944D01*
G01X19459Y13912D01*
G01X19442Y13879D01*
G01X19426Y13846D01*
G01X19413Y13810D01*
G01X19402Y13775D01*
G01X19396Y13761D01*
G01X19390Y13748D01*
G01X19381Y13736D01*
G01X19371Y13726D01*
G01X19359Y13717D01*
G01X19346Y13709D01*
G01X19332Y13704D01*
G01X19318Y13701D01*
G01X19304Y13700D01*
G01X19289Y13701D01*
G01X19275Y13704D01*
G01X19261Y13709D01*
G01X19248Y13717D01*
G01X19236Y13726D01*
G01X19226Y13736D01*
G01X19217Y13748D01*
G01X19211Y13761D01*
G01X19205Y13775D01*
G01X19195Y13808D01*
G01X19183Y13840D01*
G01X19169Y13872D01*
G01X19153Y13902D01*
G01X19135Y13932D01*
G01X19116Y13960D01*
G01X19094Y13988D01*
G01X19071Y14013D01*
G01X19046Y14038D01*
G01X19020Y14060D01*
G01X18993Y14081D01*
G01X18964Y14101D01*
G01X18934Y14118D01*
G01X18903Y14134D01*
G01X18871Y14147D01*
G01X18839Y14158D01*
G01X18805Y14168D01*
G01X18772Y14176D01*
G01X18738Y14181D01*
G01X18703Y14184D01*
G01X18669Y14185D01*
G01X18633Y14184D01*
G01X18598Y14181D01*
G01X18564Y14175D01*
G01X18529Y14168D01*
G01X18463Y14146D01*
G01X18430Y14132D01*
G01X18399Y14116D01*
G01X18369Y14098D01*
G01X18340Y14078D01*
G01X18312Y14056D01*
G01X18286Y14033D01*
G01X18261Y14008D01*
G01X18238Y13982D01*
G01X18217Y13954D01*
G01X18197Y13924D01*
G01X18179Y13894D01*
G01X18164Y13863D01*
G01X18150Y13830D01*
G01X18138Y13797D01*
G01X18128Y13763D01*
G01X18124Y13749D01*
G01X18117Y13736D01*
G01X18109Y13724D01*
G01X18098Y13712D01*
G01X18086Y13703D01*
G01X18074Y13696D01*
G01X18059Y13691D01*
G01X18045Y13688D01*
G01X18030Y13687D01*
G01X18009Y13689D01*
G01X17971Y13695D01*
G01X17932Y13699D01*
G01X17894Y13700D01*
G01X17860Y13699D01*
G01X17826Y13696D01*
G01X17793Y13691D01*
G01X17759Y13684D01*
G01X17727Y13675D01*
G01X17695Y13664D01*
G01X17663Y13651D01*
G01X17633Y13636D01*
G01X17603Y13619D01*
G01X17575Y13601D01*
G01X17547Y13581D01*
G01X17521Y13559D01*
G01X17497Y13536D01*
G01X17474Y13511D01*
G01X17452Y13485D01*
G01X17432Y13458D01*
G01X17413Y13429D01*
G01X17396Y13400D01*
G01X17382Y13370D01*
G01X17369Y13338D01*
G01X17358Y13306D01*
G01X17349Y13274D01*
G01X17342Y13240D01*
G01X17337Y13206D01*
G01X17333Y13173D01*
G01X17332Y13139D01*
G01X17333Y13105D01*
G01X17337Y13071D01*
G01X17342Y13038D01*
G01X17349Y13004D01*
G01X17358Y12972D01*
G01X17369Y12940D01*
G01X17382Y12908D01*
G01X17396Y12878D01*
G01X17413Y12848D01*
G01X17432Y12820D01*
G01X17452Y12792D01*
G01X17474Y12767D01*
G01X17497Y12742D01*
G01X17521Y12719D01*
G01X17547Y12697D01*
G01X17575Y12677D01*
G01X17603Y12658D01*
G01X17633Y12642D01*
G01X17663Y12627D01*
G01X17695Y12614D01*
G01X17727Y12603D01*
G01X17759Y12594D01*
G01X17793Y12587D01*
G01X17826Y12582D01*
G01X17860Y12579D01*
G01X17894Y12578D01*
G01X17944Y12580D01*
G01X17992Y12586D01*
G01X18010Y12588D01*
G01X18025Y12587D01*
G01X18039Y12584D01*
G01X18053Y12579D01*
G01X18066Y12571D01*
G01X18077Y12563D01*
G01X18087Y12553D01*
G01X18096Y12541D01*
G01X18103Y12528D01*
G01X18108Y12515D01*
G01X18111Y12500D01*
G01X18112Y12486D01*
G01X18112Y12431D01*
G01X18114Y12386D01*
G01X18119Y12340D01*
G01X18121Y12324D01*
G01X18120Y12309D01*
G01X18116Y12296D01*
G01X18112Y12282D01*
G01X18105Y12269D01*
G01X18096Y12258D01*
G01X18086Y12247D01*
G01X18074Y12239D01*
G01X18061Y12232D01*
G01X18048Y12227D01*
G01X18034Y12224D01*
G01X18019Y12222D01*
G01X12851Y12222D01*
G01X12835Y12224D01*
G01X12820Y12228D01*
G01X12805Y12234D01*
G01X12791Y12242D01*
G01X12779Y12252D01*
G01X12292Y12741D01*
G01X12281Y12753D01*
G01X12273Y12767D01*
G01X12267Y12782D01*
G01X12263Y12797D01*
G01X12262Y12813D01*
G01X12263Y12828D01*
G01X12266Y12843D01*
G01X12272Y12857D01*
G01X12279Y12870D01*
G01X12289Y12882D01*
G01X12300Y12893D01*
G01X12312Y12901D01*
G01X12326Y12908D01*
G01X12348Y12917D01*
G01X12368Y12929D01*
G01X12388Y12942D01*
G01X12406Y12958D01*
G01X12423Y12974D01*
G01X12451Y13012D01*
G01X12462Y13033D01*
G01X12472Y13054D01*
G01X12480Y13076D01*
G01X12485Y13099D01*
G01X12488Y13123D01*
G01X12489Y13147D01*
G01X12489Y15046D01*
G01X12488Y15070D01*
G01X12485Y15094D01*
G01X12479Y15117D01*
G01X12472Y15139D01*
G01X12462Y15161D01*
G01X12451Y15182D01*
G01X12437Y15201D01*
G01X12422Y15219D01*
G01X12405Y15236D01*
G01X12387Y15251D01*
G01X12368Y15264D01*
G01X12347Y15276D01*
G01X12325Y15286D01*
G01X12303Y15293D01*
G01X12279Y15299D01*
G01X12256Y15302D01*
G01X12233Y15303D01*
G01X11032Y15303D01*
G01X11009Y15302D01*
G01X10986Y15299D01*
G01X10962Y15293D01*
G01X10940Y15286D01*
G01X10918Y15276D01*
G01X10898Y15264D01*
G01X10878Y15251D01*
G01X10860Y15236D01*
G01X10843Y15219D01*
G01X10828Y15201D01*
G01X10814Y15182D01*
G01X10803Y15161D01*
G01X10793Y15139D01*
G01X10786Y15117D01*
G01X10780Y15094D01*
G01X10777Y15070D01*
G01X10776Y15046D01*
G01X10776Y13147D01*
G01X10777Y13123D01*
G01X10780Y13099D01*
G01X10786Y13076D01*
G01X10793Y13054D01*
G01X10803Y13032D01*
G01X10814Y13011D01*
G01X10828Y12992D01*
G01X10843Y12974D01*
G01X10860Y12957D01*
G01X10878Y12942D01*
G01X10898Y12929D01*
G01X10918Y12917D01*
G01X10940Y12907D01*
G01X10962Y12900D01*
G01X10986Y12894D01*
G01X11009Y12891D01*
G01X11032Y12890D01*
G01X11149Y12890D01*
G01X11164Y12889D01*
G01X11178Y12886D01*
G01X11191Y12881D01*
G01X11204Y12874D01*
G01X11216Y12865D01*
G01X11226Y12854D01*
G01X11235Y12843D01*
G01X11242Y12830D01*
G01X11247Y12816D01*
G01X11250Y12802D01*
G01X11255Y12771D01*
G01X11263Y12741D01*
G01X11274Y12712D01*
G01X11286Y12683D01*
G01X11301Y12655D01*
G01X11319Y12629D01*
G01X11338Y12605D01*
G01X11359Y12582D01*
G01X12375Y11563D01*
G01X12397Y11542D01*
G01X12421Y11523D01*
G01X12473Y11491D01*
G01X12500Y11479D01*
G01X12529Y11468D01*
G01X12558Y11460D01*
G01X12588Y11454D01*
G01X12618Y11450D01*
G01X12649Y11449D01*
G01X21531Y11449D01*
G01X21562Y11450D01*
G01X21592Y11454D01*
G01X21622Y11460D01*
G01X21650Y11468D01*
G01X21679Y11479D01*
G01X21706Y11491D01*
G01X21733Y11506D01*
G01X21758Y11523D01*
G01X21782Y11542D01*
G01X21804Y11563D01*
G01X22142Y11900D01*
G01X22154Y11911D01*
G01X22168Y11919D01*
G01X22182Y11925D01*
G01X22198Y11928D01*
G01X22214Y11930D01*
G01X22235Y11928D01*
G01X22254Y11921D01*
G01X22286Y11909D01*
G01X22319Y11897D01*
G01X22353Y11889D01*
G01X22387Y11882D01*
G01X22401Y11879D01*
G01X22414Y11873D01*
G01X22427Y11865D01*
G01X22439Y11856D01*
G01X22449Y11846D01*
G01X22457Y11833D01*
G01X22464Y11820D01*
G01X22468Y11806D01*
G01X22471Y11792D01*
G01X22475Y11757D01*
G01X22482Y11724D01*
G01X22490Y11690D01*
G01X22501Y11657D01*
G01X22514Y11625D01*
G01X22528Y11594D01*
G01X22545Y11564D01*
G01X22563Y11534D01*
G01X22583Y11506D01*
G01X22604Y11479D01*
G01X22627Y11454D01*
G01X22652Y11430D01*
G01X22679Y11408D01*
G01X22706Y11387D01*
G01X22735Y11368D01*
G01X22765Y11351D01*
G01X22795Y11336D01*
G01X22827Y11322D01*
G01X22860Y11311D01*
G01X22893Y11301D01*
G01X22927Y11294D01*
G01X22961Y11289D01*
G01X22995Y11286D01*
G01X23030Y11285D01*
G01X23064Y11286D01*
G01X23099Y11289D01*
G01X23133Y11294D01*
G01X23167Y11301D01*
G01X23200Y11311D01*
G01X23233Y11323D01*
G01X23265Y11337D01*
G01X23296Y11352D01*
G01X23312Y11358D01*
G01X23328Y11362D01*
G01X23345Y11364D01*
G01X23360Y11363D01*
G01X23376Y11359D01*
G01X23391Y11353D01*
G01X23404Y11345D01*
G01X23416Y11335D01*
G01X26815Y7935D01*
G01X26838Y7915D01*
G01X26862Y7896D01*
G01X26886Y7879D01*
G01X26913Y7864D01*
G01X26941Y7852D01*
G01X26969Y7841D01*
G01X26998Y7833D01*
G01X27028Y7827D01*
G01X27058Y7823D01*
G01X27089Y7822D01*
G01X46375Y7822D01*
G01X46405Y7823D01*
G01X46435Y7827D01*
G01X46465Y7833D01*
G01X46494Y7841D01*
G01X46523Y7852D01*
G01X46551Y7864D01*
G01X46577Y7879D01*
G01X46602Y7896D01*
G01X46626Y7915D01*
G01X46648Y7935D01*
G01X50311Y11601D01*
G01X50332Y11624D01*
G01X50351Y11648D01*
G01X50369Y11675D01*
G01X50384Y11702D01*
G01X50397Y11731D01*
G01X50407Y11761D01*
G01X50415Y11791D01*
G01X50421Y11822D01*
G01X50424Y11836D01*
G01X50429Y11850D01*
G01X50435Y11862D01*
G01X50444Y11874D01*
G01X50455Y11885D01*
G01X50466Y11893D01*
G01X50479Y11900D01*
G01X50492Y11905D01*
G01X50506Y11909D01*
G01X50521Y11910D01*
G01X50887Y11910D01*
G01X50911Y11911D01*
G01X50935Y11914D01*
G01X50957Y11919D01*
G01X50980Y11927D01*
G01X51002Y11936D01*
G01X51023Y11948D01*
G01X51042Y11961D01*
G01X51060Y11977D01*
G01X51077Y11993D01*
G01X51092Y12012D01*
G01X51106Y12031D01*
G01X51117Y12052D01*
G01X51127Y12074D01*
G01X51134Y12096D01*
G01X51140Y12119D01*
G01X51143Y12142D01*
G01X51144Y12166D01*
G01X51144Y13741D01*
G01X51143Y13765D01*
G01X51140Y13788D01*
G01X51134Y13811D01*
G01X51127Y13833D01*
G01X51117Y13855D01*
G01X51106Y13876D01*
G01X51092Y13895D01*
G01X51077Y13914D01*
G01X51060Y13930D01*
G01X51042Y13946D01*
G01X51023Y13959D01*
G01X51002Y13971D01*
G01X50980Y13980D01*
G01X50957Y13988D01*
G01X50935Y13993D01*
G01X50911Y13996D01*
G01X50887Y13997D01*
G01X49333Y13997D01*
G01X49319Y13998D01*
G01X49305Y14002D01*
G01X49291Y14007D01*
G01X49279Y14014D01*
G01X49267Y14022D01*
G01X49257Y14032D01*
G01X49248Y14044D01*
G01X49241Y14057D01*
G01X49236Y14071D01*
G01X49233Y14085D01*
G01X49232Y14099D01*
G01X49233Y14115D01*
G01X49237Y14131D01*
G01X49243Y14145D01*
G01X49251Y14159D01*
G01X49261Y14171D01*
G01X49530Y14439D01*
G01X49542Y14449D01*
G01X49555Y14457D01*
G01X49570Y14463D01*
G01X49585Y14467D01*
G01X49601Y14468D01*
G01X49620Y14467D01*
G01X49638Y14462D01*
G01X49686Y14444D01*
G01X49735Y14429D01*
G01X49784Y14417D01*
G01X49834Y14406D01*
G01X49885Y14398D01*
G01X49935Y14392D01*
G01X49986Y14388D01*
G01X50038Y14387D01*
G01X50086Y14388D01*
G01X50134Y14391D01*
G01X50182Y14396D01*
G01X50230Y14404D01*
G01X50277Y14413D01*
G01X50324Y14425D01*
G01X50370Y14438D01*
G01X50416Y14454D01*
G01X50461Y14471D01*
G01X50505Y14491D01*
G01X50549Y14512D01*
G01X50591Y14535D01*
G01X50632Y14560D01*
G01X50672Y14587D01*
G01X50711Y14616D01*
G01X50749Y14646D01*
G01X50785Y14678D01*
G01X50820Y14711D01*
G01X50853Y14746D01*
G01X50885Y14782D01*
G01X50915Y14820D01*
G01X50944Y14859D01*
G01X50971Y14899D01*
G01X50996Y14940D01*
G01X51019Y14982D01*
G01X51040Y15026D01*
G01X51060Y15070D01*
G01X51077Y15115D01*
G01X51093Y15161D01*
G01X51106Y15207D01*
G01X51118Y15254D01*
G01X51127Y15301D01*
G01X51135Y15349D01*
G01X51140Y15397D01*
G01X51143Y15445D01*
G01X51144Y15494D01*
G01X51143Y15542D01*
G01X51140Y15590D01*
G01X51135Y15638D01*
G01X51127Y15686D01*
G01X51118Y15733D01*
G01X51106Y15780D01*
G01X51093Y15826D01*
G01X51077Y15872D01*
G01X51060Y15917D01*
G01X51040Y15961D01*
G01X51019Y16005D01*
G01X50996Y16047D01*
G01X50971Y16088D01*
G01X50944Y16128D01*
G01X50915Y16167D01*
G01X50885Y16205D01*
G01X50853Y16241D01*
G01X50820Y16276D01*
G01X50785Y16309D01*
G01X50749Y16341D01*
G01X50711Y16371D01*
G01X50672Y16400D01*
G01X50632Y16427D01*
G01X50591Y16452D01*
G01X50549Y16475D01*
G01X50505Y16496D01*
G01X50461Y16516D01*
G01X50416Y16533D01*
G01X50370Y16549D01*
G01X50324Y16562D01*
G01X50277Y16574D01*
G01X50230Y16583D01*
G01X50182Y16591D01*
G01X50134Y16596D01*
G01X50086Y16599D01*
G01X50038Y16600D01*
G01X49989Y16599D01*
G01X49941Y16596D01*
G01X49893Y16591D01*
G01X49845Y16583D01*
G01X49798Y16574D01*
G01X49751Y16562D01*
G01X49705Y16549D01*
G01X49659Y16533D01*
G01X49614Y16516D01*
G01X49570Y16496D01*
G01X49526Y16475D01*
G01X49484Y16452D01*
G01X49443Y16427D01*
G01X49403Y16400D01*
G01X49364Y16371D01*
G01X49326Y16341D01*
G01X49290Y16309D01*
G01X49255Y16276D01*
G01X49222Y16241D01*
G01X49190Y16205D01*
G01X49160Y16167D01*
G01X49131Y16128D01*
G01X49104Y16088D01*
G01X49079Y16047D01*
G01X49056Y16005D01*
G01X49035Y15961D01*
G01X49015Y15917D01*
G01X48998Y15872D01*
G01X48982Y15826D01*
G01X48969Y15780D01*
G01X48957Y15733D01*
G01X48948Y15686D01*
G01X48940Y15638D01*
G01X48935Y15590D01*
G01X48932Y15542D01*
G01X48931Y15494D01*
G01X48932Y15442D01*
G01X48936Y15391D01*
G01X48942Y15341D01*
G01X48950Y15290D01*
G01X48961Y15240D01*
G01X48973Y15191D01*
G01X48988Y15142D01*
G01X49006Y15094D01*
G01X49011Y15076D01*
G01X49012Y15057D01*
G01X49011Y15041D01*
G01X49007Y15026D01*
G01X49001Y15011D01*
G01X48993Y14998D01*
G01X48983Y14986D01*
G01X48485Y14487D01*
G01X48473Y14477D01*
G01X48459Y14469D01*
G01X48444Y14463D01*
G01X48429Y14459D01*
G01X48413Y14458D01*
G01X43311Y14458D01*
G01X43296Y14459D01*
G01X43282Y14462D01*
G01X43268Y14467D01*
G01X43256Y14474D01*
G01X43244Y14483D01*
G01X43234Y14493D01*
G01X43225Y14504D01*
G01X43218Y14517D01*
G01X43213Y14531D01*
G01X43210Y14545D01*
G01X43209Y14559D01*
G01X43210Y14574D01*
G01X43213Y14589D01*
G01X43219Y14602D01*
G01X43226Y14616D01*
G01X43235Y14627D01*
G01X43246Y14638D01*
G01X43283Y14670D01*
G01X43319Y14703D01*
G01X43353Y14738D01*
G01X43386Y14775D01*
G01X43417Y14812D01*
G01X43446Y14851D01*
G01X43473Y14892D01*
G01X43499Y14934D01*
G01X43523Y14976D01*
G01X43545Y15020D01*
G01X43565Y15065D01*
G01X43582Y15110D01*
G01X43599Y15157D01*
G01X43612Y15203D01*
G01X43624Y15251D01*
G01X43634Y15299D01*
G01X43641Y15347D01*
G01X43647Y15396D01*
G01X43650Y15445D01*
G01X43651Y15494D01*
G01X43650Y15542D01*
G01X43647Y15590D01*
G01X43642Y15638D01*
G01X43634Y15686D01*
G01X43625Y15733D01*
G01X43613Y15780D01*
G01X43600Y15826D01*
G01X43584Y15872D01*
G01X43567Y15917D01*
G01X43547Y15961D01*
G01X43526Y16005D01*
G01X43503Y16047D01*
G01X43478Y16088D01*
G01X43451Y16128D01*
G01X43422Y16167D01*
G01X43392Y16205D01*
G01X43360Y16241D01*
G01X43327Y16276D01*
G01X43292Y16309D01*
G01X43256Y16341D01*
G01X43218Y16371D01*
G01X43179Y16400D01*
G01X43139Y16427D01*
G01X43098Y16452D01*
G01X43056Y16475D01*
G01X43012Y16496D01*
G01X42968Y16516D01*
G01X42923Y16533D01*
G01X42877Y16549D01*
G01X42831Y16562D01*
G01X42784Y16574D01*
G01X42737Y16583D01*
G01X42689Y16591D01*
G01X42641Y16596D01*
G01X42593Y16599D01*
G01X42545Y16600D01*
G01X42495Y16599D01*
G01X42446Y16596D01*
G01X42397Y16590D01*
G01X42348Y16583D01*
G01X42299Y16572D01*
G01X42251Y16560D01*
G01X42204Y16547D01*
G01X42157Y16530D01*
G01X42111Y16512D01*
G01X42066Y16491D01*
G01X42022Y16469D01*
G01X41979Y16445D01*
G01X41937Y16419D01*
G01X41897Y16391D01*
G01X41857Y16361D01*
G01X41819Y16329D01*
G01X41783Y16296D01*
G01X41747Y16261D01*
G01X41714Y16225D01*
G01X41682Y16187D01*
G01X41652Y16148D01*
G01X41623Y16107D01*
G01X41597Y16066D01*
G01X41588Y16053D01*
G01X41578Y16043D01*
G01X41567Y16034D01*
G01X41553Y16026D01*
G01X41540Y16021D01*
G01X41525Y16017D01*
G01X41510Y16016D01*
G01X41494Y16017D01*
G01X41479Y16021D01*
G01X41464Y16027D01*
G01X41450Y16036D01*
G01X41439Y16046D01*
G01X40001Y17483D01*
G01X39990Y17496D01*
G01X39982Y17509D01*
G01X39976Y17524D01*
G01X39972Y17540D01*
G01X39971Y17555D01*
G01X39972Y17570D01*
G01X39976Y17584D01*
G01X39981Y17599D01*
G01X39988Y17611D01*
G01X39997Y17623D01*
G01X40008Y17633D01*
G01X40020Y17642D01*
G01X40033Y17649D01*
G01X40047Y17654D01*
G01X40061Y17657D01*
G01X40107Y17663D01*
G01X40153Y17671D01*
G01X40198Y17681D01*
G01X40243Y17694D01*
G01X40287Y17708D01*
G01X40331Y17725D01*
G01X40373Y17743D01*
G01X40415Y17764D01*
G01X40456Y17786D01*
G01X40495Y17810D01*
G01X40534Y17836D01*
G01X40571Y17863D01*
G01X40607Y17892D01*
G01X40642Y17923D01*
G01X40675Y17956D01*
G01X40707Y17990D01*
G01X40737Y18025D01*
G01X40765Y18061D01*
G01X40792Y18100D01*
G01X40817Y18139D01*
G01X40841Y18179D01*
G01X40862Y18220D01*
G01X40881Y18262D01*
G01X40899Y18305D01*
G01X40915Y18349D01*
G01X40928Y18393D01*
G01X40940Y18438D01*
G01X40949Y18484D01*
G01X40956Y18530D01*
G01X40962Y18576D01*
G01X40965Y18622D01*
G01X40966Y18669D01*
G01X40965Y18718D01*
G01X40961Y18768D01*
G01X40955Y18817D01*
G01X40954Y18832D01*
G01X40955Y18846D01*
G01X40958Y18861D01*
G01X40963Y18874D01*
G01X40970Y18887D01*
G01X40979Y18899D01*
G01X40989Y18909D01*
G01X41013Y18925D01*
G01X41027Y18930D01*
G01X41041Y18933D01*
G01X41056Y18934D01*
G01X41071Y18932D01*
G01X41087Y18929D01*
G01X41102Y18923D01*
G01X41115Y18914D01*
G01X41128Y18904D01*
G01X41490Y18542D01*
G01X41500Y18529D01*
G01X41508Y18516D01*
G01X41514Y18501D01*
G01X41518Y18486D01*
G01X41519Y18470D01*
G01X41518Y18451D01*
G01X41513Y18433D01*
G01X41495Y18385D01*
G01X41480Y18336D01*
G01X41468Y18287D01*
G01X41457Y18237D01*
G01X41449Y18186D01*
G01X41443Y18136D01*
G01X41439Y18085D01*
G01X41438Y18034D01*
G01X41439Y17985D01*
G01X41442Y17937D01*
G01X41447Y17889D01*
G01X41455Y17841D01*
G01X41464Y17794D01*
G01X41476Y17747D01*
G01X41489Y17701D01*
G01X41505Y17655D01*
G01X41522Y17610D01*
G01X41542Y17566D01*
G01X41563Y17522D01*
G01X41586Y17480D01*
G01X41611Y17439D01*
G01X41638Y17399D01*
G01X41667Y17360D01*
G01X41697Y17322D01*
G01X41729Y17286D01*
G01X41762Y17251D01*
G01X41797Y17218D01*
G01X41833Y17186D01*
G01X41871Y17156D01*
G01X41910Y17127D01*
G01X41950Y17100D01*
G01X41991Y17075D01*
G01X42033Y17052D01*
G01X42077Y17031D01*
G01X42121Y17011D01*
G01X42166Y16994D01*
G01X42212Y16978D01*
G01X42258Y16965D01*
G01X42305Y16953D01*
G01X42352Y16944D01*
G01X42400Y16936D01*
G01X42448Y16931D01*
G01X42496Y16928D01*
G01X42545Y16927D01*
G01X42593Y16928D01*
G01X42641Y16931D01*
G01X42689Y16936D01*
G01X42737Y16944D01*
G01X42784Y16953D01*
G01X42831Y16965D01*
G01X42877Y16978D01*
G01X42923Y16994D01*
G01X42968Y17011D01*
G01X43012Y17031D01*
G01X43056Y17052D01*
G01X43098Y17075D01*
G01X43139Y17100D01*
G01X43179Y17127D01*
G01X43218Y17156D01*
G01X43256Y17186D01*
G01X43292Y17218D01*
G01X43327Y17251D01*
G01X43360Y17286D01*
G01X43392Y17322D01*
G01X43422Y17360D01*
G01X43451Y17399D01*
G01X43478Y17439D01*
G01X43503Y17480D01*
G01X43526Y17522D01*
G01X43547Y17566D01*
G01X43567Y17610D01*
G01X43584Y17655D01*
G01X43600Y17701D01*
G01X43613Y17747D01*
G01X43625Y17794D01*
G01X43634Y17841D01*
G01X43642Y17889D01*
G01X43647Y17937D01*
G01X43650Y17985D01*
G01X43651Y18034D01*
G01X43650Y18082D01*
G01X43647Y18130D01*
G01X43642Y18178D01*
G01X43634Y18226D01*
G01X43625Y18273D01*
G01X43613Y18320D01*
G01X43600Y18366D01*
G01X43584Y18412D01*
G01X43567Y18457D01*
G01X43547Y18501D01*
G01X43526Y18545D01*
G01X43503Y18587D01*
G01X43478Y18628D01*
G01X43451Y18668D01*
G01X43422Y18707D01*
G01X43392Y18745D01*
G01X43360Y18781D01*
G01X43327Y18816D01*
G01X43292Y18849D01*
G01X43256Y18881D01*
G01X43218Y18911D01*
G01X43179Y18940D01*
G01X43139Y18967D01*
G01X43098Y18992D01*
G01X43056Y19015D01*
G01X43012Y19036D01*
G01X42968Y19056D01*
G01X42923Y19073D01*
G01X42877Y19089D01*
G01X42831Y19102D01*
G01X42784Y19114D01*
G01X42737Y19123D01*
G01X42689Y19131D01*
G01X42641Y19136D01*
G01X42593Y19139D01*
G01X42545Y19140D01*
G01X42493Y19139D01*
G01X42442Y19135D01*
G01X42392Y19129D01*
G01X42341Y19121D01*
G01X42291Y19110D01*
G01X42242Y19098D01*
G01X42193Y19083D01*
G01X42145Y19065D01*
G01X42127Y19060D01*
G01X42108Y19059D01*
G01X42092Y19060D01*
G01X42077Y19064D01*
G01X42062Y19070D01*
G01X42049Y19078D01*
G01X42037Y19088D01*
G01X41111Y20014D01*
G01X41101Y20026D01*
G01X41093Y20039D01*
G01X41087Y20054D01*
G01X41082Y20070D01*
G01X41081Y20085D01*
G01X41082Y20100D01*
G01X41086Y20114D01*
G01X41091Y20127D01*
G01X41098Y20140D01*
G01X41106Y20152D01*
G01X41117Y20162D01*
G01X41128Y20171D01*
G01X41141Y20178D01*
G01X41154Y20183D01*
G01X41168Y20186D01*
G01X41183Y20187D01*
G01X41440Y20187D01*
G01X41454Y20186D01*
G01X41468Y20183D01*
G01X41482Y20178D01*
G01X41495Y20171D01*
G01X41507Y20162D01*
G01X41517Y20151D01*
G01X41525Y20139D01*
G01X41532Y20126D01*
G01X41553Y20082D01*
G01X41576Y20039D01*
G01X41601Y19996D01*
G01X41627Y19955D01*
G01X41656Y19915D01*
G01X41686Y19876D01*
G01X41717Y19838D01*
G01X41751Y19802D01*
G01X41786Y19768D01*
G01X41823Y19735D01*
G01X41861Y19704D01*
G01X41900Y19674D01*
G01X41940Y19646D01*
G01X41982Y19620D01*
G01X42025Y19597D01*
G01X42069Y19574D01*
G01X42114Y19554D01*
G01X42159Y19536D01*
G01X42206Y19520D01*
G01X42253Y19506D01*
G01X42301Y19494D01*
G01X42349Y19484D01*
G01X42398Y19477D01*
G01X42446Y19471D01*
G01X42495Y19468D01*
G01X42545Y19467D01*
G01X42593Y19468D01*
G01X42641Y19471D01*
G01X42689Y19476D01*
G01X42737Y19484D01*
G01X42784Y19493D01*
G01X42831Y19505D01*
G01X42877Y19518D01*
G01X42923Y19534D01*
G01X42968Y19551D01*
G01X43012Y19571D01*
G01X43056Y19592D01*
G01X43098Y19615D01*
G01X43139Y19640D01*
G01X43179Y19667D01*
G01X43218Y19696D01*
G01X43256Y19726D01*
G01X43292Y19758D01*
G01X43327Y19791D01*
G01X43360Y19826D01*
G01X43392Y19862D01*
G01X43422Y19900D01*
G01X43451Y19939D01*
G01X43478Y19979D01*
G01X43503Y20020D01*
G01X43526Y20062D01*
G01X43547Y20106D01*
G01X43567Y20150D01*
G01X43584Y20195D01*
G01X43600Y20241D01*
G01X43613Y20287D01*
G01X43625Y20334D01*
G01X43634Y20381D01*
G01X43642Y20429D01*
G01X43647Y20477D01*
G01X43650Y20525D01*
G01X43651Y20574D01*
G01X43650Y20622D01*
G01X43647Y20670D01*
G01X43642Y20718D01*
G01X43634Y20766D01*
G01X43625Y20813D01*
G01X43613Y20860D01*
G01X43600Y20906D01*
G01X43584Y20952D01*
G01X43567Y20997D01*
G01X43547Y21041D01*
G01X43526Y21085D01*
G01X43503Y21127D01*
G01X43478Y21168D01*
G01X43451Y21208D01*
G01X43422Y21247D01*
G01X43392Y21285D01*
G01X43360Y21321D01*
G01X43327Y21356D01*
G01X43292Y21389D01*
G01X43256Y21421D01*
G01X43218Y21451D01*
G01X43179Y21480D01*
G01X43139Y21507D01*
G01X43098Y21532D01*
G01X43056Y21555D01*
G01X43012Y21576D01*
G01X42968Y21596D01*
G01X42923Y21613D01*
G01X42877Y21629D01*
G01X42831Y21642D01*
G01X42784Y21654D01*
G01X42737Y21663D01*
G01X42689Y21671D01*
G01X42641Y21676D01*
G01X42593Y21679D01*
G01X42545Y21680D01*
G01X42495Y21679D01*
G01X42446Y21676D01*
G01X42398Y21670D01*
G01X42349Y21663D01*
G01X42301Y21653D01*
G01X42253Y21641D01*
G01X42206Y21627D01*
G01X42159Y21611D01*
G01X42114Y21593D01*
G01X42069Y21573D01*
G01X42025Y21550D01*
G01X41982Y21527D01*
G01X41940Y21501D01*
G01X41900Y21473D01*
G01X41861Y21443D01*
G01X41823Y21412D01*
G01X41786Y21379D01*
G01X41751Y21345D01*
G01X41717Y21309D01*
G01X41686Y21271D01*
G01X41656Y21232D01*
G01X41627Y21192D01*
G01X41601Y21151D01*
G01X41576Y21108D01*
G01X41553Y21065D01*
G01X41532Y21021D01*
G01X41525Y21008D01*
G01X41517Y20996D01*
G01X41507Y20985D01*
G01X41495Y20976D01*
G01X41482Y20969D01*
G01X41468Y20964D01*
G01X41454Y20961D01*
G01X41440Y20960D01*
G01X41183Y20960D01*
G01X41168Y20961D01*
G01X41154Y20964D01*
G01X41141Y20969D01*
G01X41128Y20976D01*
G01X41117Y20985D01*
G01X41106Y20995D01*
G01X41098Y21007D01*
G01X41091Y21020D01*
G01X41086Y21033D01*
G01X41082Y21047D01*
G01X41081Y21062D01*
G01X41082Y21077D01*
G01X41087Y21093D01*
G01X41093Y21108D01*
G01X41101Y21121D01*
G01X41111Y21133D01*
G01X42037Y22059D01*
G01X42049Y22069D01*
G01X42062Y22077D01*
G01X42077Y22083D01*
G01X42092Y22087D01*
G01X42108Y22088D01*
G01X42127Y22087D01*
G01X42145Y22082D01*
G01X42193Y22064D01*
G01X42242Y22049D01*
G01X42291Y22037D01*
G01X42341Y22026D01*
G01X42392Y22018D01*
G01X42442Y22012D01*
G01X42493Y22008D01*
G01X42545Y22007D01*
G01X42593Y22008D01*
G01X42641Y22011D01*
G01X42689Y22016D01*
G01X42737Y22024D01*
G01X42784Y22033D01*
G01X42831Y22045D01*
G01X42877Y22058D01*
G01X42923Y22074D01*
G01X42968Y22091D01*
G01X43012Y22111D01*
G01X43056Y22132D01*
G01X43098Y22155D01*
G01X43139Y22180D01*
G01X43179Y22207D01*
G01X43218Y22236D01*
G01X43256Y22266D01*
G01X43292Y22298D01*
G01X43327Y22331D01*
G01X43360Y22366D01*
G01X43392Y22402D01*
G01X43422Y22440D01*
G01X43451Y22479D01*
G01X43478Y22519D01*
G01X43503Y22560D01*
G01X43526Y22602D01*
G01X43547Y22646D01*
G01X43567Y22690D01*
G01X43584Y22735D01*
G01X43600Y22781D01*
G01X43613Y22827D01*
G01X43625Y22874D01*
G01X43634Y22921D01*
G01X43642Y22969D01*
G01X43647Y23017D01*
G01X43650Y23065D01*
G01X43651Y23114D01*
G01X43650Y23162D01*
G01X43647Y23210D01*
G01X43642Y23258D01*
G01X43634Y23306D01*
G01X43625Y23353D01*
G01X43613Y23400D01*
G01X43600Y23446D01*
G01X43584Y23492D01*
G01X43567Y23537D01*
G01X43547Y23581D01*
G01X43526Y23625D01*
G01X43503Y23667D01*
G01X43478Y23708D01*
G01X43451Y23748D01*
G01X43422Y23787D01*
G01X43392Y23825D01*
G01X43360Y23861D01*
G01X43327Y23896D01*
G01X43292Y23929D01*
G01X43256Y23961D01*
G01X43218Y23991D01*
G01X43179Y24020D01*
G01X43139Y24047D01*
G01X43098Y24072D01*
G01X43056Y24095D01*
G01X43012Y24116D01*
G01X42968Y24136D01*
G01X42923Y24153D01*
G01X42877Y24169D01*
G01X42831Y24182D01*
G01X42784Y24194D01*
G01X42737Y24203D01*
G01X42689Y24211D01*
G01X42641Y24216D01*
G01X42593Y24219D01*
G01X42545Y24220D01*
G01X42496Y24219D01*
G01X42448Y24216D01*
G01X42400Y24211D01*
G01X42352Y24203D01*
G01X42305Y24194D01*
G01X42258Y24182D01*
G01X42212Y24169D01*
G01X42166Y24153D01*
G01X42121Y24136D01*
G01X42077Y24116D01*
G01X42033Y24095D01*
G01X41991Y24072D01*
G01X41950Y24047D01*
G01X41910Y24020D01*
G01X41871Y23991D01*
G01X41833Y23961D01*
G01X41797Y23929D01*
G01X41762Y23896D01*
G01X41729Y23861D01*
G01X41697Y23825D01*
G01X41667Y23787D01*
G01X41638Y23748D01*
G01X41611Y23708D01*
G01X41586Y23667D01*
G01X41563Y23625D01*
G01X41542Y23581D01*
G01X41522Y23537D01*
G01X41505Y23492D01*
G01X41489Y23446D01*
G01X41476Y23400D01*
G01X41464Y23353D01*
G01X41455Y23306D01*
G01X41447Y23258D01*
G01X41442Y23210D01*
G01X41439Y23162D01*
G01X41438Y23114D01*
G01X41439Y23062D01*
G01X41443Y23011D01*
G01X41449Y22961D01*
G01X41457Y22910D01*
G01X41468Y22860D01*
G01X41480Y22811D01*
G01X41495Y22762D01*
G01X41513Y22714D01*
G01X41518Y22696D01*
G01X41519Y22677D01*
G01X41518Y22661D01*
G01X41514Y22646D01*
G01X41508Y22631D01*
G01X41500Y22618D01*
G01X41490Y22606D01*
G01X40654Y21769D01*
G01X40642Y21759D01*
G01X40628Y21751D01*
G01X40614Y21745D01*
G01X40598Y21741D01*
G01X40582Y21740D01*
G01X39425Y21740D01*
G01X39411Y21741D01*
G01X39396Y21744D01*
G01X39383Y21749D01*
G01X39370Y21756D01*
G01X39358Y21765D01*
G01X39348Y21775D01*
G01X39332Y21799D01*
G01X39327Y21813D01*
G01X39324Y21827D01*
G01X39323Y21841D01*
G01X39325Y21857D01*
G01X39328Y21873D01*
G01X39334Y21888D01*
G01X39343Y21901D01*
G01X39353Y21913D01*
G01X42037Y24598D01*
G01X42049Y24609D01*
G01X42062Y24617D01*
G01X42077Y24623D01*
G01X42093Y24627D01*
G01X42109Y24628D01*
G01X42127Y24627D01*
G01X42145Y24622D01*
G01X42193Y24604D01*
G01X42242Y24589D01*
G01X42292Y24576D01*
G01X42341Y24566D01*
G01X42392Y24558D01*
G01X42442Y24552D01*
G01X42494Y24548D01*
G01X42545Y24547D01*
G01X42593Y24548D01*
G01X42641Y24551D01*
G01X42689Y24556D01*
G01X42737Y24564D01*
G01X42784Y24573D01*
G01X42831Y24585D01*
G01X42877Y24598D01*
G01X42923Y24614D01*
G01X42968Y24631D01*
G01X43012Y24651D01*
G01X43056Y24672D01*
G01X43098Y24695D01*
G01X43139Y24720D01*
G01X43179Y24747D01*
G01X43218Y24776D01*
G01X43256Y24806D01*
G01X43292Y24838D01*
G01X43327Y24871D01*
G01X43360Y24906D01*
G01X43392Y24942D01*
G01X43422Y24980D01*
G01X43451Y25019D01*
G01X43478Y25059D01*
G01X43503Y25100D01*
G01X43526Y25142D01*
G01X43547Y25186D01*
G01X43567Y25230D01*
G01X43584Y25275D01*
G01X43600Y25321D01*
G01X43613Y25367D01*
G01X43625Y25414D01*
G01X43634Y25461D01*
G01X43642Y25509D01*
G01X43647Y25557D01*
G01X43650Y25605D01*
G01X43651Y25654D01*
G01X43650Y25705D01*
G01X43646Y25756D01*
G01X43640Y25806D01*
G01X43632Y25857D01*
G01X43621Y25907D01*
G01X43609Y25956D01*
G01X43594Y26005D01*
G01X43576Y26053D01*
G01X43571Y26071D01*
G01X43570Y26090D01*
G01X43571Y26106D01*
G01X43575Y26121D01*
G01X43581Y26136D01*
G01X43589Y26149D01*
G01X43599Y26162D01*
G01X44540Y27102D01*
G01X44561Y27125D01*
G01X44580Y27149D01*
G01X44596Y27173D01*
G01X44611Y27200D01*
G01X44624Y27228D01*
G01X44634Y27256D01*
G01X44643Y27285D01*
G01X44649Y27315D01*
G01X44652Y27345D01*
G01X44653Y27376D01*
G01X44653Y31822D01*
G01X44654Y31836D01*
G01X44657Y31850D01*
G01X44662Y31864D01*
G01X44669Y31877D01*
G01X44678Y31888D01*
G01X44688Y31898D01*
G01X44700Y31907D01*
G01X44713Y31914D01*
G01X44726Y31919D01*
G01X44740Y31922D01*
G01X44755Y31923D01*
G01X44772Y31922D01*
G01X44788Y31918D01*
G01X44803Y31911D01*
G01X44817Y31901D01*
G01X44873Y31863D01*
G01X44903Y31847D01*
G01X44933Y31832D01*
G01X44965Y31819D01*
G01X44997Y31808D01*
G01X45029Y31799D01*
G01X45062Y31792D01*
G01X45096Y31787D01*
G01X45129Y31784D01*
G01X45163Y31783D01*
G01X45198Y31784D01*
G01X45233Y31787D01*
G01X45267Y31792D01*
G01X45301Y31799D01*
G01X45334Y31809D01*
G01X45367Y31821D01*
G01X45399Y31834D01*
G01X45430Y31850D01*
G01X45460Y31867D01*
G01X45489Y31887D01*
G01X45517Y31908D01*
G01X45543Y31930D01*
G01X45555Y31940D01*
G01X45568Y31948D01*
G01X45582Y31953D01*
G01X45597Y31956D01*
G01X45612Y31957D01*
G01X48225Y31957D01*
G01X48241Y31956D01*
G01X48256Y31952D01*
G01X48271Y31946D01*
G01X48285Y31938D01*
G01X48297Y31928D01*
G01X48983Y31242D01*
G01X48993Y31229D01*
G01X49001Y31216D01*
G01X49007Y31201D01*
G01X49011Y31186D01*
G01X49012Y31170D01*
G01X49011Y31151D01*
G01X49006Y31133D01*
G01X48988Y31085D01*
G01X48973Y31036D01*
G01X48961Y30987D01*
G01X48950Y30937D01*
G01X48942Y30886D01*
G01X48936Y30836D01*
G01X48932Y30785D01*
G01X48931Y30734D01*
G01X48932Y30685D01*
G01X48935Y30637D01*
G01X48940Y30589D01*
G01X48948Y30541D01*
G01X48957Y30494D01*
G01X48969Y30447D01*
G01X48982Y30401D01*
G01X48998Y30355D01*
G01X49015Y30310D01*
G01X49035Y30266D01*
G01X49056Y30222D01*
G01X49079Y30180D01*
G01X49104Y30139D01*
G01X49131Y30099D01*
G01X49160Y30060D01*
G01X49190Y30022D01*
G01X49222Y29986D01*
G01X49255Y29951D01*
G01X49290Y29918D01*
G01X49326Y29886D01*
G01X49364Y29856D01*
G01X49403Y29827D01*
G01X49443Y29800D01*
G01X49484Y29775D01*
G01X49526Y29752D01*
G01X49570Y29731D01*
G01X49614Y29711D01*
G01X49659Y29694D01*
G01X49705Y29678D01*
G01X49751Y29665D01*
G01X49798Y29653D01*
G01X49845Y29644D01*
G01X49893Y29636D01*
G01X49941Y29631D01*
G01X49989Y29628D01*
G01X50038Y29627D01*
G01X50086Y29628D01*
G01X50134Y29631D01*
G01X50182Y29636D01*
G01X50230Y29644D01*
G01X50277Y29653D01*
G01X50324Y29665D01*
G01X50370Y29678D01*
G01X50416Y29694D01*
G01X50461Y29711D01*
G01X50505Y29731D01*
G01X50549Y29752D01*
G01X50591Y29775D01*
G01X50632Y29800D01*
G01X50672Y29827D01*
G01X50711Y29856D01*
G01X50749Y29886D01*
G01X50785Y29918D01*
G01X50820Y29951D01*
G01X50853Y29986D01*
G01X50885Y30022D01*
G01X50915Y30060D01*
G01X50944Y30099D01*
G01X50971Y30139D01*
G01X50996Y30180D01*
G01X51019Y30222D01*
G01X51040Y30266D01*
G01X51060Y30310D01*
G01X51077Y30355D01*
G01X51093Y30401D01*
G01X51106Y30447D01*
G01X51118Y30494D01*
G01X51127Y30541D01*
G01X51135Y30589D01*
G01X51140Y30637D01*
G01X51143Y30685D01*
G01X51144Y30734D01*
G01X51143Y30782D01*
G01X51140Y30830D01*
G01X51135Y30878D01*
G01X51127Y30926D01*
G01X51118Y30973D01*
G01X51106Y31020D01*
G01X51093Y31066D01*
G01X51077Y31112D01*
G01X51060Y31157D01*
G01X51040Y31201D01*
G01X51019Y31245D01*
G01X50996Y31287D01*
G01X50971Y31328D01*
G01X50944Y31368D01*
G01X50915Y31407D01*
G01X50885Y31445D01*
G01X50853Y31481D01*
G01X50820Y31516D01*
G01X50785Y31549D01*
G01X50749Y31581D01*
G01X50711Y31611D01*
G01X50672Y31640D01*
G01X50632Y31667D01*
G01X50591Y31692D01*
G01X50549Y31715D01*
G01X50505Y31736D01*
G01X50461Y31756D01*
G01X50416Y31773D01*
G01X50370Y31789D01*
G01X50324Y31802D01*
G01X50277Y31814D01*
G01X50230Y31823D01*
G01X50182Y31831D01*
G01X50134Y31836D01*
G01X50086Y31839D01*
G01X50038Y31840D01*
G01X49986Y31839D01*
G01X49935Y31835D01*
G01X49885Y31829D01*
G01X49834Y31821D01*
G01X49784Y31810D01*
G01X49735Y31798D01*
G01X49686Y31783D01*
G01X49638Y31765D01*
G01X49620Y31760D01*
G01X49601Y31759D01*
G01X49585Y31760D01*
G01X49570Y31764D01*
G01X49555Y31770D01*
G01X49542Y31778D01*
G01X49530Y31788D01*
G01X48700Y32617D01*
G01X48678Y32638D01*
G01X48654Y32657D01*
G01X48629Y32674D01*
G01X48602Y32688D01*
G01X48575Y32701D01*
G01X48547Y32712D01*
G01X48518Y32720D01*
G01X48488Y32726D01*
G01X48458Y32729D01*
G01X48427Y32730D01*
G01X45612Y32730D01*
G01X45597Y32731D01*
G01X45582Y32735D01*
G01X45568Y32740D01*
G01X45555Y32748D01*
G01X45543Y32757D01*
G01X45517Y32780D01*
G01X45489Y32801D01*
G01X45460Y32820D01*
G01X45430Y32838D01*
G01X45399Y32853D01*
G01X45367Y32867D01*
G01X45334Y32879D01*
G01X45301Y32888D01*
G01X45267Y32896D01*
G01X45233Y32901D01*
G01X45198Y32904D01*
G01X45163Y32905D01*
G01X45129Y32904D01*
G01X45096Y32901D01*
G01X45062Y32896D01*
G01X45029Y32889D01*
G01X44997Y32880D01*
G01X44965Y32869D01*
G01X44933Y32856D01*
G01X44903Y32841D01*
G01X44873Y32824D01*
G01X44845Y32806D01*
G01X44817Y32786D01*
G01X44803Y32777D01*
G01X44788Y32770D01*
G01X44772Y32766D01*
G01X44755Y32764D01*
G01X44740Y32766D01*
G01X44726Y32769D01*
G01X44713Y32774D01*
G01X44700Y32781D01*
G01X44688Y32789D01*
G01X44678Y32800D01*
G01X44669Y32811D01*
G01X44662Y32824D01*
G01X44657Y32838D01*
G01X44654Y32852D01*
G01X44653Y32866D01*
G01X44653Y35920D01*
G01X44652Y35951D01*
G01X44649Y35981D01*
G01X44643Y36011D01*
G01X44634Y36040D01*
G01X44624Y36068D01*
G01X44611Y36095D01*
G01X44596Y36122D01*
G01X44580Y36147D01*
G01X44561Y36171D01*
G01X44540Y36193D01*
G01X43300Y37433D01*
G01X43290Y37445D01*
G01X43282Y37458D01*
G01X43276Y37473D01*
G01X43272Y37489D01*
G01X43271Y37505D01*
G01X43272Y37519D01*
G01X43275Y37533D01*
G01X43280Y37547D01*
G01X43287Y37559D01*
G01X43296Y37571D01*
G01X43306Y37581D01*
G01X43318Y37590D01*
G01X43330Y37597D01*
G01X43344Y37602D01*
G01X43358Y37605D01*
G01X43373Y37606D01*
G01X48986Y37606D01*
G01X49016Y37607D01*
G01X49046Y37611D01*
G01X49076Y37617D01*
G01X49105Y37625D01*
G01X49134Y37636D01*
G01X49161Y37648D01*
G01X49188Y37663D01*
G01X49213Y37680D01*
G01X49237Y37699D01*
G01X49259Y37720D01*
G01X49669Y38129D01*
G01X49681Y38139D01*
G01X49695Y38148D01*
G01X49709Y38154D01*
G01X49725Y38157D01*
G01X49741Y38159D01*
G01X49758Y38157D01*
G01X49774Y38153D01*
G01X49820Y38138D01*
G01X49867Y38126D01*
G01X49915Y38115D01*
G01X49962Y38107D01*
G01X50011Y38102D01*
G01X50059Y38098D01*
G01X50108Y38097D01*
G01X50153Y38098D01*
G01X50199Y38101D01*
G01X50244Y38106D01*
G01X50289Y38113D01*
G01X50334Y38122D01*
G01X50378Y38134D01*
G01X50422Y38147D01*
G01X50465Y38162D01*
G01X50508Y38179D01*
G01X50550Y38198D01*
G01X50590Y38218D01*
G01X50630Y38241D01*
G01X50668Y38266D01*
G01X50706Y38292D01*
G01X50743Y38319D01*
G01X50778Y38348D01*
G01X50811Y38379D01*
G01X50844Y38411D01*
G01X50875Y38445D01*
G01X50904Y38481D01*
G01X50932Y38517D01*
G01X50957Y38554D01*
G01X50982Y38593D01*
G01X51004Y38633D01*
G01X51025Y38674D01*
G01X51044Y38715D01*
G01X51061Y38757D01*
G01X51076Y38801D01*
G01X51090Y38845D01*
G01X51101Y38889D01*
G01X51110Y38934D01*
G01X51117Y38979D01*
G01X51122Y39024D01*
G01X51125Y39070D01*
G01X51126Y39116D01*
G01X51125Y39161D01*
G01X51122Y39207D01*
G01X51117Y39252D01*
G01X51110Y39297D01*
G01X51101Y39342D01*
G01X51090Y39386D01*
G01X51076Y39430D01*
G01X51061Y39474D01*
G01X51044Y39516D01*
G01X51025Y39557D01*
G01X51004Y39598D01*
G01X50982Y39638D01*
G01X50957Y39677D01*
G01X50932Y39714D01*
G01X50904Y39751D01*
G01X50875Y39786D01*
G01X50844Y39820D01*
G01X50811Y39852D01*
G01X50778Y39883D01*
G01X50743Y39912D01*
G01X50706Y39939D01*
G01X50668Y39965D01*
G01X50630Y39990D01*
G01X50590Y40013D01*
G01X50550Y40033D01*
G01X50508Y40052D01*
G01X50465Y40069D01*
G01X50422Y40084D01*
G01X50378Y40097D01*
G01X50334Y40109D01*
G01X50289Y40118D01*
G01X50244Y40125D01*
G01X50199Y40130D01*
G01X50153Y40133D01*
G01X50108Y40134D01*
G01X50062Y40133D01*
G01X50016Y40130D01*
G01X49971Y40125D01*
G01X49926Y40118D01*
G01X49881Y40109D01*
G01X49836Y40097D01*
G01X49793Y40084D01*
G01X49749Y40069D01*
G01X49707Y40052D01*
G01X49666Y40033D01*
G01X49625Y40013D01*
G01X49585Y39990D01*
G01X49546Y39965D01*
G01X49509Y39939D01*
G01X49473Y39912D01*
G01X49438Y39883D01*
G01X49404Y39852D01*
G01X49372Y39820D01*
G01X49341Y39786D01*
G01X49311Y39751D01*
G01X49257Y39677D01*
G01X49233Y39638D01*
G01X49210Y39598D01*
G01X49190Y39557D01*
G01X49171Y39516D01*
G01X49154Y39474D01*
G01X49139Y39430D01*
G01X49126Y39386D01*
G01X49114Y39342D01*
G01X49105Y39297D01*
G01X49098Y39252D01*
G01X49093Y39207D01*
G01X49090Y39161D01*
G01X49089Y39116D01*
G01X49090Y39067D01*
G01X49094Y39018D01*
G01X49099Y38970D01*
G01X49107Y38921D01*
G01X49118Y38874D01*
G01X49131Y38827D01*
G01X49145Y38780D01*
G01X49150Y38764D01*
G01X49152Y38747D01*
G01X49150Y38731D01*
G01X49146Y38716D01*
G01X49140Y38701D01*
G01X49132Y38687D01*
G01X49122Y38675D01*
G01X48855Y38409D01*
G01X48844Y38399D01*
G01X48830Y38391D01*
G01X48815Y38384D01*
G01X48800Y38380D01*
G01X48784Y38379D01*
G01X40730Y38379D01*
G01X40716Y38380D01*
G01X40702Y38383D01*
G01X40688Y38389D01*
G01X40676Y38396D01*
G01X40664Y38404D01*
G01X40654Y38414D01*
G01X40645Y38426D01*
G01X40638Y38439D01*
G01X40633Y38453D01*
G01X40630Y38466D01*
G01X40629Y38481D01*
G01X40630Y38496D01*
G01X40633Y38511D01*
G01X40639Y38525D01*
G01X40647Y38538D01*
G01X40673Y38578D01*
G01X40719Y38660D01*
G01X40739Y38703D01*
G01X40757Y38747D01*
G01X40773Y38791D01*
G01X40787Y38836D01*
G01X40799Y38882D01*
G01X40809Y38928D01*
G01X40816Y38974D01*
G01X40822Y39021D01*
G01X40825Y39068D01*
G01X40826Y39116D01*
G01X40825Y39161D01*
G01X40822Y39207D01*
G01X40817Y39252D01*
G01X40810Y39297D01*
G01X40801Y39342D01*
G01X40789Y39386D01*
G01X40776Y39430D01*
G01X40761Y39474D01*
G01X40744Y39516D01*
G01X40725Y39557D01*
G01X40705Y39598D01*
G01X40682Y39638D01*
G01X40658Y39677D01*
G01X40604Y39751D01*
G01X40574Y39786D01*
G01X40543Y39820D01*
G01X40511Y39852D01*
G01X40477Y39883D01*
G01X40442Y39912D01*
G01X40406Y39939D01*
G01X40369Y39965D01*
G01X40330Y39990D01*
G01X40290Y40013D01*
G01X40249Y40033D01*
G01X40208Y40052D01*
G01X40166Y40069D01*
G01X40122Y40084D01*
G01X40079Y40097D01*
G01X40034Y40109D01*
G01X39989Y40118D01*
G01X39944Y40125D01*
G01X39899Y40130D01*
G01X39853Y40133D01*
G01X39807Y40134D01*
G01X39760Y40133D01*
G01X39712Y40129D01*
G01X39665Y40124D01*
G01X39618Y40116D01*
G01X39572Y40107D01*
G01X39526Y40094D01*
G01X39480Y40080D01*
G01X39436Y40064D01*
G01X39392Y40045D01*
G01X39349Y40025D01*
G01X39307Y40002D01*
G01X39266Y39978D01*
G01X39226Y39952D01*
G01X39213Y39944D01*
G01X39199Y39938D01*
G01X39184Y39935D01*
G01X39168Y39934D01*
G01X34888Y39934D01*
G01X34873Y39935D01*
G01X34857Y39939D01*
G01X34842Y39945D01*
G01X34828Y39953D01*
G01X34816Y39964D01*
G01X34132Y40651D01*
G01X34109Y40672D01*
G01X34085Y40690D01*
G01X34060Y40707D01*
G01X34033Y40722D01*
G01X34006Y40735D01*
G01X33978Y40746D01*
G01X33948Y40754D01*
G01X33918Y40759D01*
G01X33888Y40763D01*
G01X33858Y40764D01*
G01X30729Y40764D01*
G01X30715Y40765D01*
G01X30700Y40769D01*
G01X30687Y40774D01*
G01X30674Y40781D01*
G01X30662Y40789D01*
G01X30652Y40800D01*
G01X30644Y40811D01*
G01X30636Y40824D01*
G01X30631Y40838D01*
G01X30628Y40851D01*
G01X30627Y40866D01*
G01X30628Y40881D01*
G01X30632Y40896D01*
G01X30637Y40909D01*
G01X30658Y40956D01*
G01X30676Y41003D01*
G01X30693Y41051D01*
G01X30707Y41100D01*
G01X30719Y41150D01*
G01X30729Y41199D01*
G01X30737Y41250D01*
G01X30743Y41300D01*
G01X30746Y41351D01*
G01X30747Y41402D01*
G01X30746Y41450D01*
G01X30743Y41499D01*
G01X30738Y41547D01*
G01X30730Y41595D01*
G01X30721Y41643D01*
G01X30710Y41691D01*
G01X30697Y41737D01*
G01X30682Y41784D01*
G01X30665Y41829D01*
G01X30646Y41874D01*
G01X30625Y41918D01*
G01X30603Y41961D01*
G01X30579Y42003D01*
G01X30552Y42044D01*
G01X30524Y42084D01*
G01X30495Y42122D01*
G01X30485Y42137D01*
G01X30478Y42152D01*
G01X30474Y42169D01*
G01X30472Y42186D01*
G01X30473Y42201D01*
G01X30476Y42214D01*
G01X30482Y42228D01*
G01X30489Y42241D01*
G01X30497Y42252D01*
G01X30507Y42263D01*
G01X30519Y42271D01*
G01X30532Y42278D01*
G01X30546Y42283D01*
G01X30560Y42286D01*
G01X30574Y42287D01*
G01X32787Y42287D01*
G01X32803Y42286D01*
G01X32818Y42282D01*
G01X32833Y42276D01*
G01X32847Y42268D01*
G01X32858Y42258D01*
G01X33648Y41469D01*
G01X33670Y41448D01*
G01X33694Y41429D01*
G01X33719Y41412D01*
G01X33746Y41397D01*
G01X33773Y41385D01*
G01X33802Y41374D01*
G01X33831Y41366D01*
G01X33861Y41360D01*
G01X33891Y41356D01*
G01X33921Y41355D01*
G01X34714Y41355D01*
G01X34743Y41356D01*
G01X34772Y41360D01*
G01X34801Y41365D01*
G01X34828Y41373D01*
G01X34856Y41383D01*
G01X34883Y41394D01*
G01X34909Y41408D01*
G01X34933Y41424D01*
G01X34957Y41441D01*
G01X34978Y41460D01*
G01X34999Y41481D01*
G01X35018Y41504D01*
G01X35035Y41527D01*
G01X35050Y41552D01*
G01X35064Y41578D01*
G01X35075Y41605D01*
G01X35085Y41632D01*
G01X35092Y41661D01*
G01X35097Y41690D01*
G01X35100Y41704D01*
G01X35105Y41717D01*
G01X35111Y41730D01*
G01X35120Y41742D01*
G01X35131Y41752D01*
G01X35142Y41761D01*
G01X35155Y41768D01*
G01X35168Y41773D01*
G01X35183Y41776D01*
G01X35197Y41777D01*
G01X35215Y41777D01*
G01X35238Y41778D01*
G01X35262Y41781D01*
G01X35285Y41787D01*
G01X35307Y41794D01*
G01X35329Y41804D01*
G01X35350Y41816D01*
G01X35369Y41829D01*
G01X35387Y41844D01*
G01X35404Y41861D01*
G01X35419Y41879D01*
G01X35433Y41898D01*
G01X35444Y41919D01*
G01X35454Y41941D01*
G01X35461Y41963D01*
G01X35467Y41987D01*
G01X35470Y42010D01*
G01X35471Y42033D01*
G01X35471Y43387D01*
G01X35472Y43402D01*
G01X35475Y43416D01*
G01X35480Y43429D01*
G01X35487Y43442D01*
G01X35496Y43454D01*
G01X35506Y43464D01*
G01X35518Y43473D01*
G01X35531Y43480D01*
G01X35544Y43485D01*
G01X35558Y43488D01*
G01X35573Y43489D01*
G01X35856Y43489D01*
G01X35871Y43488D01*
G01X35885Y43485D01*
G01X35898Y43480D01*
G01X35911Y43473D01*
G01X35923Y43464D01*
G01X35933Y43454D01*
G01X35942Y43442D01*
G01X35949Y43429D01*
G01X35954Y43416D01*
G01X35957Y43402D01*
G01X35958Y43387D01*
G01X35958Y42033D01*
G01X35959Y42010D01*
G01X35962Y41987D01*
G01X35968Y41963D01*
G01X35975Y41941D01*
G01X35985Y41919D01*
G01X35996Y41898D01*
G01X36010Y41879D01*
G01X36025Y41861D01*
G01X36042Y41844D01*
G01X36060Y41829D01*
G01X36080Y41816D01*
G01X36100Y41804D01*
G01X36122Y41794D01*
G01X36144Y41787D01*
G01X36168Y41781D01*
G01X36191Y41778D01*
G01X36214Y41777D01*
G01X36232Y41777D01*
G01X36246Y41776D01*
G01X36261Y41773D01*
G01X36274Y41768D01*
G01X36287Y41761D01*
G01X36298Y41752D01*
G01X36309Y41742D01*
G01X36317Y41730D01*
G01X36324Y41717D01*
G01X36329Y41704D01*
G01X36332Y41690D01*
G01X36337Y41661D01*
G01X36344Y41632D01*
G01X36354Y41605D01*
G01X36365Y41578D01*
G01X36378Y41552D01*
G01X36394Y41527D01*
G01X36411Y41504D01*
G01X36430Y41481D01*
G01X36451Y41460D01*
G01X36472Y41441D01*
G01X36496Y41424D01*
G01X36520Y41408D01*
G01X36546Y41394D01*
G01X36573Y41383D01*
G01X36600Y41373D01*
G01X36628Y41365D01*
G01X36657Y41360D01*
G01X36686Y41356D01*
G01X36715Y41355D01*
G01X48795Y41355D01*
G01X48826Y41356D01*
G01X48856Y41360D01*
G01X48885Y41366D01*
G01X48915Y41374D01*
G01X48943Y41385D01*
G01X48971Y41397D01*
G01X48997Y41412D01*
G01X49023Y41429D01*
G01X49046Y41448D01*
G01X49069Y41468D01*
G01X49668Y42066D01*
G01X49680Y42077D01*
G01X49694Y42085D01*
G01X49708Y42091D01*
G01X49724Y42095D01*
G01X49740Y42096D01*
G01X49757Y42095D01*
G01X49773Y42090D01*
G01X49819Y42076D01*
G01X49866Y42063D01*
G01X49914Y42053D01*
G01X49962Y42045D01*
G01X50010Y42039D01*
G01X50059Y42035D01*
G01X50108Y42034D01*
G01X50153Y42035D01*
G01X50199Y42038D01*
G01X50244Y42043D01*
G01X50289Y42050D01*
G01X50334Y42059D01*
G01X50378Y42071D01*
G01X50422Y42084D01*
G01X50465Y42099D01*
G01X50508Y42116D01*
G01X50550Y42135D01*
G01X50590Y42155D01*
G01X50630Y42178D01*
G01X50668Y42203D01*
G01X50706Y42229D01*
G01X50743Y42256D01*
G01X50778Y42285D01*
G01X50811Y42316D01*
G01X50844Y42348D01*
G01X50875Y42382D01*
G01X50904Y42418D01*
G01X50932Y42454D01*
G01X50957Y42491D01*
G01X50982Y42530D01*
G01X51004Y42570D01*
G01X51025Y42611D01*
G01X51044Y42652D01*
G01X51061Y42694D01*
G01X51076Y42738D01*
G01X51090Y42782D01*
G01X51101Y42826D01*
G01X51110Y42871D01*
G01X51117Y42916D01*
G01X51122Y42961D01*
G01X51125Y43007D01*
G01X51126Y43053D01*
G01X51125Y43098D01*
G01X51122Y43144D01*
G01X51117Y43189D01*
G01X51110Y43234D01*
G01X51101Y43279D01*
G01X51090Y43323D01*
G01X51076Y43367D01*
G01X51061Y43411D01*
G01X51044Y43453D01*
G01X51025Y43494D01*
G01X51004Y43535D01*
G01X50982Y43575D01*
G01X50957Y43614D01*
G01X50932Y43651D01*
G01X50904Y43688D01*
G01X50875Y43723D01*
G01X50844Y43757D01*
G01X50811Y43789D01*
G01X50778Y43820D01*
G01X50743Y43849D01*
G01X50706Y43876D01*
G01X50668Y43902D01*
G01X50630Y43927D01*
G01X50590Y43950D01*
G01X50550Y43970D01*
G01X50508Y43989D01*
G01X50465Y44006D01*
G01X50422Y44021D01*
G01X50378Y44034D01*
G01X50334Y44046D01*
G01X50289Y44055D01*
G01X50244Y44062D01*
G01X50199Y44067D01*
G01X50153Y44070D01*
G01X50108Y44071D01*
G01X50062Y44070D01*
G01X50016Y44067D01*
G01X49971Y44062D01*
G01X49926Y44055D01*
G01X49881Y44046D01*
G01X49836Y44034D01*
G01X49793Y44021D01*
G01X49749Y44006D01*
G01X49707Y43989D01*
G01X49666Y43970D01*
G01X49625Y43950D01*
G01X49585Y43927D01*
G01X49546Y43902D01*
G01X49509Y43876D01*
G01X49473Y43849D01*
G01X49438Y43820D01*
G01X49404Y43789D01*
G01X49372Y43757D01*
G01X49341Y43723D01*
G01X49311Y43688D01*
G01X49257Y43614D01*
G01X49233Y43575D01*
G01X49210Y43535D01*
G01X49190Y43494D01*
G01X49171Y43453D01*
G01X49154Y43411D01*
G01X49139Y43367D01*
G01X49126Y43323D01*
G01X49114Y43279D01*
G01X49105Y43234D01*
G01X49098Y43189D01*
G01X49093Y43144D01*
G01X49090Y43098D01*
G01X49089Y43053D01*
G01X49090Y43004D01*
G01X49094Y42955D01*
G01X49099Y42907D01*
G01X49107Y42859D01*
G01X49118Y42812D01*
G01X49131Y42764D01*
G01X49145Y42718D01*
G01X49150Y42702D01*
G01X49151Y42685D01*
G01X49150Y42669D01*
G01X49146Y42654D01*
G01X49140Y42639D01*
G01X49132Y42625D01*
G01X49121Y42613D01*
G01X48665Y42158D01*
G01X48653Y42148D01*
G01X48639Y42140D01*
G01X48625Y42134D01*
G01X48610Y42129D01*
G01X48594Y42128D01*
G01X40568Y42128D01*
G01X40554Y42129D01*
G01X40539Y42133D01*
G01X40526Y42138D01*
G01X40513Y42145D01*
G01X40501Y42153D01*
G01X40491Y42164D01*
G01X40483Y42175D01*
G01X40475Y42188D01*
G01X40470Y42202D01*
G01X40467Y42215D01*
G01X40466Y42230D01*
G01X40468Y42247D01*
G01X40472Y42263D01*
G01X40478Y42278D01*
G01X40488Y42292D01*
G01X40499Y42305D01*
G01X40532Y42337D01*
G01X40564Y42371D01*
G01X40595Y42406D01*
G01X40624Y42443D01*
G01X40651Y42481D01*
G01X40676Y42520D01*
G01X40699Y42561D01*
G01X40721Y42602D01*
G01X40741Y42645D01*
G01X40758Y42688D01*
G01X40774Y42731D01*
G01X40788Y42776D01*
G01X40800Y42821D01*
G01X40809Y42867D01*
G01X40816Y42913D01*
G01X40822Y42960D01*
G01X40825Y43006D01*
G01X40826Y43053D01*
G01X40825Y43098D01*
G01X40822Y43144D01*
G01X40817Y43189D01*
G01X40810Y43234D01*
G01X40801Y43279D01*
G01X40789Y43323D01*
G01X40776Y43367D01*
G01X40761Y43411D01*
G01X40744Y43453D01*
G01X40725Y43494D01*
G01X40705Y43535D01*
G01X40682Y43575D01*
G01X40658Y43614D01*
G01X40604Y43688D01*
G01X40574Y43723D01*
G01X40543Y43757D01*
G01X40511Y43789D01*
G01X40477Y43820D01*
G01X40442Y43849D01*
G01X40406Y43876D01*
G01X40369Y43902D01*
G01X40330Y43927D01*
G01X40290Y43950D01*
G01X40249Y43970D01*
G01X40208Y43989D01*
G01X40166Y44006D01*
G01X40122Y44021D01*
G01X40079Y44034D01*
G01X40034Y44046D01*
G01X39989Y44055D01*
G01X39944Y44062D01*
G01X39899Y44067D01*
G01X39853Y44070D01*
G01X39807Y44071D01*
G01X39759Y44070D01*
G01X39710Y44066D01*
G01X39662Y44060D01*
G01X39613Y44052D01*
G01X39566Y44042D01*
G01X39519Y44029D01*
G01X39472Y44014D01*
G01X39456Y44010D01*
G01X39439Y44009D01*
G01X39423Y44010D01*
G01X39408Y44014D01*
G01X39393Y44020D01*
G01X39379Y44028D01*
G01X39367Y44039D01*
G01X39257Y44149D01*
G01X39234Y44170D01*
G01X39210Y44188D01*
G01X39186Y44205D01*
G01X39159Y44220D01*
G01X39131Y44233D01*
G01X39103Y44243D01*
G01X39074Y44251D01*
G01X39044Y44257D01*
G01X39014Y44261D01*
G01X38983Y44262D01*
G37*
G36*
G01X5806Y11163D02*
G01X4489Y11163D01*
G01X4489Y10589D01*
G01X5549Y10589D01*
G01X5573Y10590D01*
G01X5597Y10593D01*
G01X5620Y10598D01*
G01X5642Y10606D01*
G01X5664Y10616D01*
G01X5685Y10627D01*
G01X5704Y10641D01*
G01X5722Y10656D01*
G01X5739Y10673D01*
G01X5754Y10691D01*
G01X5767Y10710D01*
G01X5779Y10731D01*
G01X5789Y10753D01*
G01X5796Y10775D01*
G01X5801Y10798D01*
G01X5805Y10821D01*
G01X5806Y10845D01*
G01X5806Y11163D01*
G37*
G36*
G01X2114Y11163D02*
G01X797Y11163D01*
G01X797Y10845D01*
G01X798Y10821D01*
G01X802Y10798D01*
G01X807Y10775D01*
G01X814Y10753D01*
G01X824Y10731D01*
G01X836Y10710D01*
G01X849Y10691D01*
G01X864Y10673D01*
G01X881Y10656D01*
G01X899Y10641D01*
G01X918Y10627D01*
G01X939Y10616D01*
G01X961Y10606D01*
G01X983Y10598D01*
G01X1006Y10593D01*
G01X1030Y10590D01*
G01X1054Y10589D01*
G01X2114Y10589D01*
G01X2114Y11163D01*
G37*
G36*
G01X5549Y12626D02*
G01X4489Y12626D01*
G01X4489Y12052D01*
G01X5806Y12052D01*
G01X5806Y12369D01*
G01X5805Y12393D01*
G01X5801Y12417D01*
G01X5796Y12439D01*
G01X5789Y12462D01*
G01X5779Y12484D01*
G01X5767Y12504D01*
G01X5754Y12524D01*
G01X5739Y12542D01*
G01X5722Y12559D01*
G01X5704Y12574D01*
G01X5685Y12587D01*
G01X5664Y12599D01*
G01X5642Y12609D01*
G01X5620Y12616D01*
G01X5597Y12621D01*
G01X5573Y12625D01*
G01X5549Y12626D01*
G37*
G36*
G01X2114Y12626D02*
G01X1054Y12626D01*
G01X1030Y12625D01*
G01X1006Y12621D01*
G01X983Y12616D01*
G01X961Y12609D01*
G01X939Y12599D01*
G01X918Y12587D01*
G01X899Y12574D01*
G01X881Y12559D01*
G01X864Y12542D01*
G01X849Y12524D01*
G01X836Y12504D01*
G01X824Y12484D01*
G01X814Y12462D01*
G01X807Y12439D01*
G01X802Y12417D01*
G01X798Y12393D01*
G01X797Y12369D01*
G01X797Y12052D01*
G01X2114Y12052D01*
G01X2114Y12626D01*
G37*
G36*
G01X5806Y16141D02*
G01X4489Y16141D01*
G01X4489Y15567D01*
G01X5549Y15567D01*
G01X5573Y15568D01*
G01X5597Y15572D01*
G01X5620Y15577D01*
G01X5642Y15584D01*
G01X5664Y15594D01*
G01X5685Y15606D01*
G01X5704Y15619D01*
G01X5722Y15634D01*
G01X5739Y15651D01*
G01X5754Y15669D01*
G01X5767Y15689D01*
G01X5779Y15709D01*
G01X5789Y15731D01*
G01X5796Y15754D01*
G01X5801Y15776D01*
G01X5805Y15800D01*
G01X5806Y15824D01*
G01X5806Y16141D01*
G37*
G36*
G01X2114Y16141D02*
G01X797Y16141D01*
G01X797Y15824D01*
G01X798Y15800D01*
G01X802Y15776D01*
G01X807Y15754D01*
G01X814Y15731D01*
G01X824Y15709D01*
G01X836Y15689D01*
G01X849Y15669D01*
G01X864Y15651D01*
G01X881Y15634D01*
G01X899Y15619D01*
G01X918Y15606D01*
G01X939Y15594D01*
G01X961Y15584D01*
G01X983Y15577D01*
G01X1006Y15572D01*
G01X1030Y15568D01*
G01X1054Y15567D01*
G01X2114Y15567D01*
G01X2114Y16141D01*
G37*
G36*
G01X5549Y17604D02*
G01X4489Y17604D01*
G01X4489Y17030D01*
G01X5806Y17030D01*
G01X5806Y17348D01*
G01X5805Y17372D01*
G01X5801Y17395D01*
G01X5796Y17418D01*
G01X5789Y17440D01*
G01X5779Y17462D01*
G01X5767Y17483D01*
G01X5754Y17502D01*
G01X5739Y17520D01*
G01X5722Y17537D01*
G01X5704Y17552D01*
G01X5685Y17566D01*
G01X5664Y17577D01*
G01X5642Y17587D01*
G01X5620Y17595D01*
G01X5597Y17600D01*
G01X5573Y17603D01*
G01X5549Y17604D01*
G37*
G36*
G01X2114Y17604D02*
G01X1054Y17604D01*
G01X1030Y17603D01*
G01X1006Y17600D01*
G01X983Y17595D01*
G01X961Y17587D01*
G01X939Y17577D01*
G01X918Y17566D01*
G01X899Y17552D01*
G01X881Y17537D01*
G01X864Y17520D01*
G01X849Y17502D01*
G01X836Y17483D01*
G01X824Y17462D01*
G01X814Y17440D01*
G01X807Y17418D01*
G01X802Y17395D01*
G01X798Y17372D01*
G01X797Y17348D01*
G01X797Y17030D01*
G01X2114Y17030D01*
G01X2114Y17604D01*
G37*
G36*
G01X51030Y17545D02*
G01X50526Y17545D01*
G01X50526Y17041D01*
G01X50569Y17063D01*
G01X50611Y17087D01*
G01X50652Y17113D01*
G01X50691Y17141D01*
G01X50730Y17170D01*
G01X50767Y17201D01*
G01X50803Y17234D01*
G01X50837Y17268D01*
G01X50870Y17304D01*
G01X50901Y17341D01*
G01X50930Y17380D01*
G01X50958Y17419D01*
G01X50984Y17460D01*
G01X51008Y17502D01*
G01X51030Y17545D01*
G37*
G36*
G01X49549Y17545D02*
G01X49045Y17545D01*
G01X49067Y17502D01*
G01X49091Y17460D01*
G01X49117Y17419D01*
G01X49145Y17380D01*
G01X49174Y17341D01*
G01X49205Y17304D01*
G01X49238Y17268D01*
G01X49272Y17234D01*
G01X49308Y17201D01*
G01X49345Y17170D01*
G01X49384Y17141D01*
G01X49423Y17113D01*
G01X49464Y17087D01*
G01X49506Y17063D01*
G01X49549Y17041D01*
G01X49549Y17545D01*
G37*
G36*
G01X16142Y25283D02*
G01X14591Y25283D01*
G01X14568Y25282D01*
G01X14545Y25279D01*
G01X14521Y25273D01*
G01X14499Y25266D01*
G01X14477Y25256D01*
G01X14457Y25245D01*
G01X14437Y25231D01*
G01X14419Y25216D01*
G01X14402Y25199D01*
G01X14387Y25181D01*
G01X14373Y25162D01*
G01X14362Y25141D01*
G01X14353Y25119D01*
G01X14345Y25097D01*
G01X14339Y25074D01*
G01X14336Y25050D01*
G01X14335Y25027D01*
G01X14335Y24026D01*
G01X14336Y24004D01*
G01X14339Y23981D01*
G01X14344Y23958D01*
G01X14352Y23936D01*
G01X14361Y23915D01*
G01X14371Y23895D01*
G01X14384Y23876D01*
G01X14399Y23857D01*
G01X14415Y23841D01*
G01X14432Y23826D01*
G01X14451Y23812D01*
G01X14470Y23800D01*
G01X14491Y23790D01*
G01X14504Y23784D01*
G01X14517Y23775D01*
G01X14527Y23765D01*
G01X14536Y23753D01*
G01X14544Y23740D01*
G01X14549Y23726D01*
G01X14552Y23711D01*
G01X14553Y23697D01*
G01X14552Y23680D01*
G01X14548Y23664D01*
G01X14541Y23648D01*
G01X14532Y23635D01*
G01X14532Y23634D01*
G01X14504Y23597D01*
G01X14478Y23559D01*
G01X14454Y23519D01*
G01X14431Y23478D01*
G01X14410Y23437D01*
G01X14392Y23394D01*
G01X14375Y23351D01*
G01X14360Y23307D01*
G01X14346Y23262D01*
G01X14335Y23217D01*
G01X14326Y23171D01*
G01X14319Y23126D01*
G01X14314Y23079D01*
G01X14311Y23033D01*
G01X14310Y22987D01*
G01X14311Y22939D01*
G01X14314Y22892D01*
G01X14320Y22844D01*
G01X14327Y22798D01*
G01X14336Y22751D01*
G01X14348Y22705D01*
G01X14362Y22659D01*
G01X14377Y22615D01*
G01X14395Y22571D01*
G01X14415Y22528D01*
G01X14436Y22485D01*
G01X14460Y22444D01*
G01X14485Y22404D01*
G01X14512Y22365D01*
G01X14541Y22327D01*
G01X14571Y22291D01*
G01X14603Y22255D01*
G01X14637Y22222D01*
G01X14672Y22190D01*
G01X14709Y22159D01*
G01X14720Y22149D01*
G01X14729Y22138D01*
G01X14737Y22124D01*
G01X14743Y22110D01*
G01X14746Y22095D01*
G01X14747Y22080D01*
G01X14746Y22065D01*
G01X14743Y22052D01*
G01X14738Y22038D01*
G01X14731Y22025D01*
G01X14722Y22014D01*
G01X14712Y22004D01*
G01X14701Y21995D01*
G01X14688Y21988D01*
G01X14674Y21983D01*
G01X14660Y21980D01*
G01X14646Y21979D01*
G01X13588Y21979D01*
G01X13573Y21980D01*
G01X13558Y21983D01*
G01X13544Y21988D01*
G01X13531Y21996D01*
G01X13519Y22006D01*
G01X13492Y22028D01*
G01X13465Y22049D01*
G01X13436Y22069D01*
G01X13406Y22086D01*
G01X13375Y22102D01*
G01X13343Y22115D01*
G01X13310Y22127D01*
G01X13277Y22137D01*
G01X13243Y22144D01*
G01X13209Y22149D01*
G01X13173Y22152D01*
G01X13139Y22153D01*
G01X13105Y22152D01*
G01X13071Y22149D01*
G01X13038Y22144D01*
G01X13004Y22137D01*
G01X12972Y22128D01*
G01X12940Y22117D01*
G01X12908Y22104D01*
G01X12878Y22089D01*
G01X12848Y22073D01*
G01X12820Y22054D01*
G01X12792Y22034D01*
G01X12767Y22012D01*
G01X12742Y21989D01*
G01X12719Y21964D01*
G01X12697Y21938D01*
G01X12677Y21911D01*
G01X12658Y21883D01*
G01X12642Y21853D01*
G01X12627Y21823D01*
G01X12614Y21791D01*
G01X12603Y21759D01*
G01X12594Y21727D01*
G01X12587Y21693D01*
G01X12582Y21660D01*
G01X12579Y21626D01*
G01X12578Y21592D01*
G01X12579Y21558D01*
G01X12582Y21524D01*
G01X12587Y21491D01*
G01X12594Y21457D01*
G01X12603Y21425D01*
G01X12614Y21393D01*
G01X12627Y21361D01*
G01X12642Y21331D01*
G01X12658Y21301D01*
G01X12677Y21273D01*
G01X12697Y21246D01*
G01X12719Y21220D01*
G01X12742Y21195D01*
G01X12767Y21172D01*
G01X12792Y21150D01*
G01X12820Y21130D01*
G01X12848Y21111D01*
G01X12878Y21095D01*
G01X12908Y21080D01*
G01X12940Y21067D01*
G01X12972Y21056D01*
G01X13004Y21047D01*
G01X13038Y21040D01*
G01X13071Y21035D01*
G01X13105Y21032D01*
G01X13139Y21031D01*
G01X13173Y21032D01*
G01X13209Y21035D01*
G01X13243Y21040D01*
G01X13277Y21047D01*
G01X13310Y21057D01*
G01X13343Y21069D01*
G01X13375Y21083D01*
G01X13406Y21098D01*
G01X13436Y21116D01*
G01X13465Y21135D01*
G01X13492Y21156D01*
G01X13519Y21179D01*
G01X13531Y21188D01*
G01X13544Y21196D01*
G01X13558Y21201D01*
G01X13573Y21204D01*
G01X13588Y21205D01*
G01X15848Y21205D01*
G01X15863Y21204D01*
G01X15879Y21200D01*
G01X15894Y21194D01*
G01X15908Y21186D01*
G01X15919Y21176D01*
G01X18082Y19013D01*
G01X18092Y19001D01*
G01X18101Y18987D01*
G01X18107Y18972D01*
G01X18111Y18957D01*
G01X18112Y18941D01*
G01X18112Y18374D01*
G01X18113Y18341D01*
G01X18116Y18307D01*
G01X18121Y18274D01*
G01X18128Y18241D01*
G01X18137Y18209D01*
G01X18148Y18177D01*
G01X18161Y18146D01*
G01X18176Y18116D01*
G01X18192Y18086D01*
G01X18210Y18058D01*
G01X18231Y18031D01*
G01X18252Y18005D01*
G01X18275Y17981D01*
G01X18300Y17958D01*
G01X18325Y17936D01*
G01X18353Y17916D01*
G01X18380Y17898D01*
G01X18410Y17882D01*
G01X18440Y17867D01*
G01X18471Y17854D01*
G01X18503Y17843D01*
G01X18535Y17834D01*
G01X18568Y17827D01*
G01X18601Y17822D01*
G01X18635Y17819D01*
G01X18669Y17818D01*
G01X18703Y17819D01*
G01X18738Y17822D01*
G01X18772Y17827D01*
G01X18805Y17835D01*
G01X18839Y17845D01*
G01X18871Y17856D01*
G01X18903Y17869D01*
G01X18934Y17885D01*
G01X18964Y17902D01*
G01X18993Y17922D01*
G01X19020Y17943D01*
G01X19046Y17965D01*
G01X19071Y17990D01*
G01X19094Y18015D01*
G01X19116Y18043D01*
G01X19135Y18071D01*
G01X19153Y18101D01*
G01X19169Y18131D01*
G01X19183Y18163D01*
G01X19195Y18195D01*
G01X19205Y18228D01*
G01X19211Y18242D01*
G01X19217Y18255D01*
G01X19226Y18267D01*
G01X19236Y18277D01*
G01X19248Y18286D01*
G01X19261Y18294D01*
G01X19275Y18299D01*
G01X19289Y18302D01*
G01X19304Y18303D01*
G01X19318Y18302D01*
G01X19332Y18299D01*
G01X19346Y18294D01*
G01X19359Y18286D01*
G01X19371Y18277D01*
G01X19381Y18267D01*
G01X19390Y18255D01*
G01X19396Y18242D01*
G01X19402Y18228D01*
G01X19411Y18196D01*
G01X19423Y18164D01*
G01X19437Y18133D01*
G01X19452Y18103D01*
G01X19470Y18074D01*
G01X19489Y18046D01*
G01X19510Y18020D01*
G01X19532Y17994D01*
G01X19556Y17970D01*
G01X19581Y17948D01*
G01X19608Y17927D01*
G01X19635Y17908D01*
G01X19664Y17890D01*
G01X19694Y17874D01*
G01X19725Y17860D01*
G01X19725Y18460D01*
G01X19327Y18460D01*
G01X19312Y18461D01*
G01X19298Y18464D01*
G01X19284Y18469D01*
G01X19271Y18476D01*
G01X19260Y18485D01*
G01X19250Y18495D01*
G01X19241Y18507D01*
G01X19234Y18520D01*
G01X19229Y18533D01*
G01X19226Y18548D01*
G01X19225Y18562D01*
G01X19225Y19385D01*
G01X19226Y19399D01*
G01X19229Y19413D01*
G01X19234Y19427D01*
G01X19241Y19440D01*
G01X19250Y19451D01*
G01X19260Y19461D01*
G01X19271Y19470D01*
G01X19284Y19477D01*
G01X19298Y19482D01*
G01X19312Y19485D01*
G01X19327Y19486D01*
G01X19725Y19486D01*
G01X19725Y20086D01*
G01X19694Y20072D01*
G01X19664Y20056D01*
G01X19635Y20039D01*
G01X19608Y20020D01*
G01X19581Y19999D01*
G01X19556Y19977D01*
G01X19532Y19952D01*
G01X19510Y19927D01*
G01X19489Y19900D01*
G01X19470Y19872D01*
G01X19452Y19844D01*
G01X19437Y19814D01*
G01X19423Y19783D01*
G01X19411Y19751D01*
G01X19402Y19719D01*
G01X19396Y19705D01*
G01X19390Y19692D01*
G01X19381Y19680D01*
G01X19371Y19669D01*
G01X19359Y19660D01*
G01X19346Y19653D01*
G01X19332Y19648D01*
G01X19318Y19645D01*
G01X19304Y19644D01*
G01X19289Y19645D01*
G01X19275Y19648D01*
G01X19261Y19653D01*
G01X19248Y19660D01*
G01X19236Y19669D01*
G01X19226Y19680D01*
G01X19217Y19692D01*
G01X19211Y19705D01*
G01X19205Y19719D01*
G01X19195Y19752D01*
G01X19183Y19784D01*
G01X19169Y19816D01*
G01X19153Y19846D01*
G01X19135Y19876D01*
G01X19116Y19904D01*
G01X19094Y19931D01*
G01X19071Y19957D01*
G01X19046Y19981D01*
G01X19020Y20004D01*
G01X18993Y20025D01*
G01X18964Y20044D01*
G01X18934Y20061D01*
G01X18903Y20077D01*
G01X18871Y20090D01*
G01X18839Y20102D01*
G01X18805Y20112D01*
G01X18772Y20119D01*
G01X18738Y20124D01*
G01X18703Y20128D01*
G01X18669Y20129D01*
G01X18634Y20127D01*
G01X18599Y20124D01*
G01X18565Y20119D01*
G01X18531Y20112D01*
G01X18497Y20102D01*
G01X18465Y20090D01*
G01X18433Y20077D01*
G01X18402Y20061D01*
G01X18372Y20043D01*
G01X18343Y20024D01*
G01X18315Y20003D01*
G01X18301Y19993D01*
G01X18285Y19985D01*
G01X18268Y19981D01*
G01X18251Y19980D01*
G01X18235Y19981D01*
G01X18219Y19984D01*
G01X18205Y19990D01*
G01X18191Y19999D01*
G01X18179Y20009D01*
G01X16323Y21865D01*
G01X16301Y21886D01*
G01X16277Y21905D01*
G01X16251Y21922D01*
G01X16225Y21937D01*
G01X16197Y21950D01*
G01X16168Y21960D01*
G01X16139Y21968D01*
G01X16109Y21974D01*
G01X16078Y21978D01*
G01X16063Y21980D01*
G01X16049Y21984D01*
G01X16035Y21991D01*
G01X16022Y21999D01*
G01X16011Y22010D01*
G01X16002Y22022D01*
G01X15994Y22035D01*
G01X15989Y22049D01*
G01X15985Y22063D01*
G01X15984Y22079D01*
G01X15985Y22094D01*
G01X15989Y22109D01*
G01X15994Y22123D01*
G01X16002Y22136D01*
G01X16012Y22148D01*
G01X16023Y22158D01*
G01X16061Y22190D01*
G01X16098Y22225D01*
G01X16134Y22260D01*
G01X16167Y22297D01*
G01X16199Y22336D01*
G01X16229Y22376D01*
G01X16257Y22418D01*
G01X16282Y22460D01*
G01X16307Y22504D01*
G01X16328Y22550D01*
G01X16348Y22595D01*
G01X16365Y22643D01*
G01X16371Y22656D01*
G01X16379Y22670D01*
G01X16390Y22681D01*
G01X16949Y23241D01*
G01X16972Y23265D01*
G01X16993Y23290D01*
G01X17012Y23317D01*
G01X17030Y23345D01*
G01X17045Y23375D01*
G01X17059Y23405D01*
G01X17070Y23436D01*
G01X17080Y23468D01*
G01X17088Y23500D01*
G01X17093Y23533D01*
G01X17096Y23566D01*
G01X17097Y23599D01*
G01X17097Y24526D01*
G01X17096Y24559D01*
G01X17093Y24592D01*
G01X17088Y24625D01*
G01X17080Y24657D01*
G01X17070Y24689D01*
G01X17059Y24720D01*
G01X17045Y24750D01*
G01X17030Y24779D01*
G01X17012Y24807D01*
G01X16993Y24834D01*
G01X16972Y24859D01*
G01X16949Y24884D01*
G01X16925Y24907D01*
G01X16899Y24928D01*
G01X16872Y24947D01*
G01X16844Y24965D01*
G01X16815Y24980D01*
G01X16785Y24994D01*
G01X16754Y25005D01*
G01X16722Y25015D01*
G01X16690Y25023D01*
G01X16657Y25028D01*
G01X16624Y25031D01*
G01X16591Y25032D01*
G01X16483Y25032D01*
G01X16467Y25034D01*
G01X16452Y25037D01*
G01X16437Y25043D01*
G01X16423Y25052D01*
G01X16411Y25063D01*
G01X16401Y25075D01*
G01X16392Y25089D01*
G01X16386Y25103D01*
G01X16378Y25125D01*
G01X16368Y25146D01*
G01X16357Y25166D01*
G01X16343Y25185D01*
G01X16328Y25202D01*
G01X16311Y25219D01*
G01X16293Y25233D01*
G01X16274Y25246D01*
G01X16253Y25257D01*
G01X16232Y25266D01*
G01X16210Y25274D01*
G01X16187Y25279D01*
G01X16165Y25282D01*
G01X16142Y25283D01*
G37*
G36*
G01X49549Y18522D02*
G01X49549Y19026D01*
G01X49506Y19004D01*
G01X49464Y18980D01*
G01X49423Y18954D01*
G01X49384Y18926D01*
G01X49345Y18897D01*
G01X49308Y18866D01*
G01X49272Y18833D01*
G01X49238Y18799D01*
G01X49205Y18763D01*
G01X49174Y18726D01*
G01X49145Y18687D01*
G01X49117Y18648D01*
G01X49091Y18607D01*
G01X49067Y18565D01*
G01X49045Y18522D01*
G01X49549Y18522D01*
G37*
G36*
G01X9032Y26352D02*
G01X7832Y26352D01*
G01X7808Y26351D01*
G01X7785Y26348D01*
G01X7762Y26342D01*
G01X7740Y26335D01*
G01X7718Y26325D01*
G01X7697Y26313D01*
G01X7678Y26300D01*
G01X7660Y26285D01*
G01X7643Y26268D01*
G01X7628Y26250D01*
G01X7614Y26231D01*
G01X7603Y26210D01*
G01X7593Y26188D01*
G01X7585Y26166D01*
G01X7580Y26143D01*
G01X7577Y26119D01*
G01X7576Y26095D01*
G01X7576Y26004D01*
G01X7575Y25989D01*
G01X7572Y25975D01*
G01X7567Y25961D01*
G01X7560Y25949D01*
G01X7551Y25937D01*
G01X7541Y25927D01*
G01X7529Y25918D01*
G01X7516Y25911D01*
G01X7503Y25906D01*
G01X7488Y25903D01*
G01X7474Y25902D01*
G01X5794Y25902D01*
G01X5779Y25903D01*
G01X5764Y25906D01*
G01X5750Y25912D01*
G01X5737Y25920D01*
G01X5725Y25929D01*
G01X5706Y25945D01*
G01X5687Y25959D01*
G01X5666Y25971D01*
G01X5644Y25981D01*
G01X5621Y25989D01*
G01X5598Y25994D01*
G01X5573Y25998D01*
G01X5549Y25999D01*
G01X1054Y25999D01*
G01X1030Y25998D01*
G01X1006Y25994D01*
G01X983Y25989D01*
G01X961Y25982D01*
G01X939Y25972D01*
G01X918Y25960D01*
G01X899Y25947D01*
G01X881Y25932D01*
G01X864Y25915D01*
G01X849Y25897D01*
G01X836Y25878D01*
G01X824Y25857D01*
G01X814Y25835D01*
G01X807Y25813D01*
G01X802Y25790D01*
G01X798Y25766D01*
G01X797Y25742D01*
G01X797Y24549D01*
G01X798Y24525D01*
G01X802Y24501D01*
G01X807Y24478D01*
G01X814Y24456D01*
G01X824Y24434D01*
G01X836Y24413D01*
G01X849Y24394D01*
G01X864Y24376D01*
G01X881Y24359D01*
G01X899Y24344D01*
G01X918Y24331D01*
G01X939Y24319D01*
G01X961Y24309D01*
G01X983Y24302D01*
G01X1006Y24297D01*
G01X1030Y24293D01*
G01X1054Y24292D01*
G01X5549Y24292D01*
G01X5573Y24293D01*
G01X5598Y24297D01*
G01X5621Y24302D01*
G01X5644Y24310D01*
G01X5666Y24320D01*
G01X5687Y24332D01*
G01X5706Y24346D01*
G01X5725Y24362D01*
G01X5737Y24371D01*
G01X5750Y24379D01*
G01X5764Y24385D01*
G01X5779Y24388D01*
G01X5794Y24389D01*
G01X7474Y24389D01*
G01X7488Y24388D01*
G01X7503Y24385D01*
G01X7516Y24380D01*
G01X7529Y24373D01*
G01X7541Y24364D01*
G01X7551Y24354D01*
G01X7560Y24342D01*
G01X7567Y24330D01*
G01X7572Y24316D01*
G01X7575Y24302D01*
G01X7576Y24287D01*
G01X7576Y24196D01*
G01X7577Y24172D01*
G01X7580Y24148D01*
G01X7585Y24125D01*
G01X7593Y24103D01*
G01X7603Y24081D01*
G01X7614Y24060D01*
G01X7628Y24041D01*
G01X7643Y24023D01*
G01X7660Y24006D01*
G01X7678Y23991D01*
G01X7697Y23978D01*
G01X7718Y23966D01*
G01X7740Y23956D01*
G01X7762Y23949D01*
G01X7785Y23943D01*
G01X7808Y23940D01*
G01X7832Y23939D01*
G01X9032Y23939D01*
G01X9058Y23940D01*
G01X9083Y23944D01*
G01X9107Y23950D01*
G01X9131Y23959D01*
G01X9151Y23964D01*
G01X9170Y23966D01*
G01X9185Y23965D01*
G01X9199Y23962D01*
G01X9213Y23957D01*
G01X9225Y23951D01*
G01X9237Y23942D01*
G01X9247Y23931D01*
G01X9256Y23920D01*
G01X9263Y23907D01*
G01X9268Y23894D01*
G01X9271Y23880D01*
G01X9272Y23865D01*
G01X9272Y23165D01*
G01X9271Y23151D01*
G01X9268Y23137D01*
G01X9263Y23123D01*
G01X9256Y23110D01*
G01X9247Y23099D01*
G01X9237Y23089D01*
G01X9225Y23080D01*
G01X9187Y23054D01*
G01X9151Y23026D01*
G01X9115Y22997D01*
G01X9081Y22966D01*
G01X9047Y22934D01*
G01X9016Y22900D01*
G01X8987Y22865D01*
G01X8958Y22828D01*
G01X8932Y22790D01*
G01X8907Y22751D01*
G01X8884Y22712D01*
G01X8863Y22671D01*
G01X8843Y22628D01*
G01X8826Y22586D01*
G01X8811Y22542D01*
G01X8798Y22498D01*
G01X8786Y22453D01*
G01X8777Y22408D01*
G01X8769Y22363D01*
G01X8764Y22316D01*
G01X8761Y22271D01*
G01X8760Y22225D01*
G01X8761Y22179D01*
G01X8764Y22133D01*
G01X8769Y22088D01*
G01X8776Y22043D01*
G01X8785Y21998D01*
G01X8797Y21954D01*
G01X8810Y21910D01*
G01X8825Y21866D01*
G01X8842Y21824D01*
G01X8861Y21783D01*
G01X8881Y21742D01*
G01X8904Y21702D01*
G01X8929Y21663D01*
G01X8955Y21626D01*
G01X8982Y21590D01*
G01X9011Y21554D01*
G01X9042Y21520D01*
G01X9074Y21488D01*
G01X9108Y21457D01*
G01X9144Y21428D01*
G01X9180Y21401D01*
G01X9217Y21375D01*
G01X9256Y21350D01*
G01X9296Y21327D01*
G01X9337Y21307D01*
G01X9378Y21288D01*
G01X9420Y21271D01*
G01X9464Y21256D01*
G01X9508Y21243D01*
G01X9552Y21231D01*
G01X9597Y21222D01*
G01X9642Y21215D01*
G01X9687Y21210D01*
G01X9733Y21207D01*
G01X9779Y21206D01*
G01X9824Y21207D01*
G01X9870Y21210D01*
G01X9915Y21215D01*
G01X9960Y21222D01*
G01X10005Y21231D01*
G01X10049Y21243D01*
G01X10093Y21256D01*
G01X10137Y21271D01*
G01X10179Y21288D01*
G01X10220Y21307D01*
G01X10261Y21327D01*
G01X10301Y21350D01*
G01X10340Y21375D01*
G01X10377Y21401D01*
G01X10414Y21428D01*
G01X10449Y21457D01*
G01X10483Y21488D01*
G01X10515Y21520D01*
G01X10546Y21554D01*
G01X10575Y21590D01*
G01X10602Y21626D01*
G01X10628Y21663D01*
G01X10653Y21702D01*
G01X10676Y21742D01*
G01X10696Y21783D01*
G01X10715Y21824D01*
G01X10732Y21866D01*
G01X10747Y21910D01*
G01X10760Y21954D01*
G01X10772Y21998D01*
G01X10781Y22043D01*
G01X10788Y22088D01*
G01X10793Y22133D01*
G01X10796Y22179D01*
G01X10797Y22225D01*
G01X10796Y22271D01*
G01X10793Y22316D01*
G01X10788Y22363D01*
G01X10780Y22408D01*
G01X10771Y22453D01*
G01X10759Y22498D01*
G01X10746Y22542D01*
G01X10731Y22586D01*
G01X10714Y22628D01*
G01X10694Y22671D01*
G01X10673Y22712D01*
G01X10650Y22751D01*
G01X10625Y22790D01*
G01X10599Y22828D01*
G01X10570Y22865D01*
G01X10541Y22900D01*
G01X10510Y22934D01*
G01X10476Y22966D01*
G01X10442Y22997D01*
G01X10406Y23026D01*
G01X10370Y23054D01*
G01X10332Y23080D01*
G01X10320Y23089D01*
G01X10310Y23099D01*
G01X10301Y23110D01*
G01X10294Y23123D01*
G01X10289Y23137D01*
G01X10286Y23151D01*
G01X10285Y23165D01*
G01X10285Y24563D01*
G01X10284Y24596D01*
G01X10281Y24629D01*
G01X10275Y24662D01*
G01X10268Y24694D01*
G01X10258Y24726D01*
G01X10246Y24757D01*
G01X10233Y24787D01*
G01X10217Y24816D01*
G01X10200Y24844D01*
G01X10180Y24872D01*
G01X10160Y24897D01*
G01X10137Y24921D01*
G01X9554Y25504D01*
G01X9530Y25527D01*
G01X9504Y25547D01*
G01X9477Y25567D01*
G01X9449Y25584D01*
G01X9419Y25600D01*
G01X9389Y25614D01*
G01X9358Y25626D01*
G01X9344Y25632D01*
G01X9330Y25640D01*
G01X9318Y25650D01*
G01X9308Y25663D01*
G01X9300Y25676D01*
G01X9294Y25691D01*
G01X9290Y25706D01*
G01X9289Y25722D01*
G01X9289Y26095D01*
G01X9288Y26119D01*
G01X9285Y26143D01*
G01X9279Y26166D01*
G01X9272Y26188D01*
G01X9262Y26210D01*
G01X9251Y26231D01*
G01X9237Y26250D01*
G01X9222Y26268D01*
G01X9205Y26285D01*
G01X9187Y26300D01*
G01X9167Y26313D01*
G01X9147Y26325D01*
G01X9125Y26335D01*
G01X9102Y26342D01*
G01X9079Y26348D01*
G01X9056Y26351D01*
G01X9032Y26352D01*
G37*
G36*
G01X5806Y22212D02*
G01X4489Y22212D01*
G01X4489Y21638D01*
G01X5549Y21638D01*
G01X5573Y21639D01*
G01X5597Y21642D01*
G01X5620Y21647D01*
G01X5642Y21655D01*
G01X5664Y21665D01*
G01X5685Y21676D01*
G01X5704Y21690D01*
G01X5722Y21705D01*
G01X5739Y21722D01*
G01X5754Y21740D01*
G01X5767Y21759D01*
G01X5779Y21780D01*
G01X5789Y21802D01*
G01X5796Y21824D01*
G01X5801Y21847D01*
G01X5805Y21870D01*
G01X5806Y21894D01*
G01X5806Y22212D01*
G37*
G36*
G01X2114Y22212D02*
G01X797Y22212D01*
G01X797Y21894D01*
G01X798Y21870D01*
G01X802Y21847D01*
G01X807Y21824D01*
G01X814Y21802D01*
G01X824Y21780D01*
G01X836Y21759D01*
G01X849Y21740D01*
G01X864Y21722D01*
G01X881Y21705D01*
G01X899Y21690D01*
G01X918Y21676D01*
G01X939Y21665D01*
G01X961Y21655D01*
G01X983Y21647D01*
G01X1006Y21642D01*
G01X1030Y21639D01*
G01X1054Y21638D01*
G01X2114Y21638D01*
G01X2114Y22212D01*
G37*
G36*
G01X51030Y22625D02*
G01X50526Y22625D01*
G01X50526Y22121D01*
G01X50569Y22143D01*
G01X50611Y22167D01*
G01X50652Y22193D01*
G01X50691Y22221D01*
G01X50730Y22250D01*
G01X50767Y22281D01*
G01X50803Y22314D01*
G01X50837Y22348D01*
G01X50870Y22384D01*
G01X50901Y22421D01*
G01X50930Y22460D01*
G01X50958Y22499D01*
G01X50984Y22540D01*
G01X51008Y22582D01*
G01X51030Y22625D01*
G37*
G36*
G01X49549Y22625D02*
G01X49045Y22625D01*
G01X49067Y22582D01*
G01X49091Y22540D01*
G01X49117Y22499D01*
G01X49145Y22460D01*
G01X49174Y22421D01*
G01X49205Y22384D01*
G01X49238Y22348D01*
G01X49272Y22314D01*
G01X49308Y22281D01*
G01X49345Y22250D01*
G01X49384Y22221D01*
G01X49423Y22193D01*
G01X49464Y22167D01*
G01X49506Y22143D01*
G01X49549Y22121D01*
G01X49549Y22625D01*
G37*
G36*
G01X5549Y23675D02*
G01X4489Y23675D01*
G01X4489Y23101D01*
G01X5806Y23101D01*
G01X5806Y23418D01*
G01X5805Y23442D01*
G01X5801Y23466D01*
G01X5796Y23488D01*
G01X5789Y23511D01*
G01X5779Y23533D01*
G01X5767Y23553D01*
G01X5754Y23573D01*
G01X5739Y23591D01*
G01X5722Y23608D01*
G01X5704Y23623D01*
G01X5685Y23636D01*
G01X5664Y23648D01*
G01X5642Y23658D01*
G01X5620Y23665D01*
G01X5597Y23670D01*
G01X5573Y23674D01*
G01X5549Y23675D01*
G37*
G36*
G01X2114Y23675D02*
G01X1054Y23675D01*
G01X1030Y23674D01*
G01X1006Y23670D01*
G01X983Y23665D01*
G01X961Y23658D01*
G01X939Y23648D01*
G01X918Y23636D01*
G01X899Y23623D01*
G01X881Y23608D01*
G01X864Y23591D01*
G01X849Y23573D01*
G01X836Y23553D01*
G01X824Y23533D01*
G01X814Y23511D01*
G01X807Y23488D01*
G01X802Y23466D01*
G01X798Y23442D01*
G01X797Y23418D01*
G01X797Y23101D01*
G01X2114Y23101D01*
G01X2114Y23675D01*
G37*
G36*
G01X12233Y26352D02*
G01X11032Y26352D01*
G01X11009Y26351D01*
G01X10986Y26348D01*
G01X10962Y26342D01*
G01X10940Y26335D01*
G01X10918Y26325D01*
G01X10898Y26313D01*
G01X10878Y26300D01*
G01X10860Y26285D01*
G01X10843Y26268D01*
G01X10828Y26250D01*
G01X10814Y26231D01*
G01X10803Y26210D01*
G01X10793Y26188D01*
G01X10786Y26166D01*
G01X10780Y26143D01*
G01X10777Y26119D01*
G01X10776Y26095D01*
G01X10776Y24196D01*
G01X10777Y24172D01*
G01X10780Y24148D01*
G01X10786Y24125D01*
G01X10793Y24103D01*
G01X10803Y24081D01*
G01X10814Y24060D01*
G01X10828Y24041D01*
G01X10843Y24023D01*
G01X10860Y24006D01*
G01X10878Y23991D01*
G01X10898Y23978D01*
G01X10918Y23966D01*
G01X10940Y23956D01*
G01X10962Y23949D01*
G01X10986Y23943D01*
G01X11009Y23940D01*
G01X11032Y23939D01*
G01X11149Y23939D01*
G01X11164Y23938D01*
G01X11178Y23935D01*
G01X11191Y23930D01*
G01X11204Y23923D01*
G01X11216Y23914D01*
G01X11226Y23903D01*
G01X11235Y23892D01*
G01X11242Y23879D01*
G01X11247Y23865D01*
G01X11250Y23851D01*
G01X11255Y23823D01*
G01X11262Y23795D01*
G01X11271Y23768D01*
G01X11282Y23741D01*
G01X11295Y23715D01*
G01X11303Y23696D01*
G01X11307Y23676D01*
G01X11312Y23641D01*
G01X11318Y23607D01*
G01X11326Y23574D01*
G01X11337Y23541D01*
G01X11349Y23509D01*
G01X11364Y23477D01*
G01X11380Y23447D01*
G01X11418Y23389D01*
G01X11440Y23362D01*
G01X11464Y23337D01*
G01X11488Y23313D01*
G01X11515Y23290D01*
G01X11542Y23269D01*
G01X11571Y23251D01*
G01X11601Y23233D01*
G01X11632Y23218D01*
G01X11664Y23204D01*
G01X11696Y23193D01*
G01X11730Y23184D01*
G01X11763Y23176D01*
G01X11797Y23171D01*
G01X11832Y23168D01*
G01X11866Y23167D01*
G01X11900Y23168D01*
G01X11934Y23171D01*
G01X11967Y23176D01*
G01X12001Y23183D01*
G01X12034Y23192D01*
G01X12066Y23203D01*
G01X12097Y23216D01*
G01X12127Y23231D01*
G01X12157Y23248D01*
G01X12185Y23266D01*
G01X12213Y23286D01*
G01X12239Y23308D01*
G01X12264Y23331D01*
G01X12286Y23356D01*
G01X12308Y23382D01*
G01X12329Y23409D01*
G01X12347Y23438D01*
G01X12364Y23467D01*
G01X12392Y23529D01*
G01X12402Y23561D01*
G01X12411Y23594D01*
G01X12419Y23627D01*
G01X12424Y23661D01*
G01X12427Y23694D01*
G01X12428Y23728D01*
G01X12427Y23766D01*
G01X12423Y23804D01*
G01X12417Y23841D01*
G01X12407Y23879D01*
G01X12396Y23915D01*
G01X12392Y23931D01*
G01X12390Y23949D01*
G01X12392Y23964D01*
G01X12395Y23979D01*
G01X12401Y23993D01*
G01X12408Y24007D01*
G01X12418Y24019D01*
G01X12434Y24037D01*
G01X12449Y24057D01*
G01X12461Y24078D01*
G01X12471Y24100D01*
G01X12479Y24123D01*
G01X12485Y24147D01*
G01X12488Y24171D01*
G01X12489Y24196D01*
G01X12489Y26095D01*
G01X12488Y26119D01*
G01X12485Y26143D01*
G01X12479Y26166D01*
G01X12472Y26188D01*
G01X12462Y26210D01*
G01X12451Y26231D01*
G01X12437Y26250D01*
G01X12422Y26268D01*
G01X12405Y26285D01*
G01X12387Y26300D01*
G01X12368Y26313D01*
G01X12347Y26325D01*
G01X12325Y26335D01*
G01X12303Y26342D01*
G01X12279Y26348D01*
G01X12256Y26351D01*
G01X12233Y26352D01*
G37*
G36*
G01X49549Y23602D02*
G01X49549Y24106D01*
G01X49506Y24084D01*
G01X49464Y24060D01*
G01X49423Y24034D01*
G01X49384Y24006D01*
G01X49345Y23977D01*
G01X49308Y23946D01*
G01X49272Y23913D01*
G01X49238Y23879D01*
G01X49205Y23843D01*
G01X49174Y23806D01*
G01X49145Y23767D01*
G01X49117Y23728D01*
G01X49091Y23687D01*
G01X49067Y23645D01*
G01X49045Y23602D01*
G01X49549Y23602D01*
G37*
G36*
G01X15414Y29122D02*
G01X15367Y29123D01*
G01X15319Y29122D01*
G01X15272Y29119D01*
G01X15225Y29113D01*
G01X15178Y29106D01*
G01X15131Y29097D01*
G01X15086Y29085D01*
G01X15040Y29071D01*
G01X14995Y29056D01*
G01X14951Y29038D01*
G01X14908Y29018D01*
G01X14866Y28997D01*
G01X14824Y28973D01*
G01X14784Y28948D01*
G01X14746Y28921D01*
G01X14708Y28893D01*
G01X14672Y28862D01*
G01X14637Y28830D01*
G01X14603Y28796D01*
G01X14571Y28761D01*
G01X14540Y28725D01*
G01X14512Y28687D01*
G01X14485Y28649D01*
G01X14460Y28609D01*
G01X14436Y28567D01*
G01X14415Y28525D01*
G01X14395Y28482D01*
G01X14377Y28438D01*
G01X14362Y28393D01*
G01X14348Y28347D01*
G01X14336Y28302D01*
G01X14327Y28255D01*
G01X14320Y28208D01*
G01X14314Y28161D01*
G01X14311Y28114D01*
G01X14310Y28067D01*
G01X14311Y28020D01*
G01X14314Y27974D01*
G01X14319Y27927D01*
G01X14326Y27882D01*
G01X14335Y27836D01*
G01X14346Y27791D01*
G01X14360Y27746D01*
G01X14375Y27702D01*
G01X14392Y27659D01*
G01X14410Y27616D01*
G01X14431Y27575D01*
G01X14454Y27534D01*
G01X14478Y27494D01*
G01X14504Y27456D01*
G01X14532Y27418D01*
G01X14541Y27405D01*
G01X14548Y27389D01*
G01X14552Y27373D01*
G01X14553Y27356D01*
G01X14552Y27342D01*
G01X14549Y27327D01*
G01X14544Y27313D01*
G01X14536Y27300D01*
G01X14527Y27288D01*
G01X14517Y27278D01*
G01X14504Y27269D01*
G01X14491Y27263D01*
G01X14470Y27253D01*
G01X14451Y27241D01*
G01X14432Y27227D01*
G01X14415Y27212D01*
G01X14399Y27196D01*
G01X14384Y27178D01*
G01X14371Y27158D01*
G01X14361Y27138D01*
G01X14352Y27117D01*
G01X14344Y27095D01*
G01X14339Y27072D01*
G01X14336Y27049D01*
G01X14335Y27027D01*
G01X14335Y26026D01*
G01X14336Y26003D01*
G01X14339Y25979D01*
G01X14345Y25956D01*
G01X14353Y25934D01*
G01X14362Y25912D01*
G01X14373Y25891D01*
G01X14387Y25872D01*
G01X14402Y25854D01*
G01X14419Y25837D01*
G01X14437Y25822D01*
G01X14457Y25808D01*
G01X14477Y25797D01*
G01X14499Y25787D01*
G01X14521Y25780D01*
G01X14545Y25774D01*
G01X14568Y25771D01*
G01X14591Y25770D01*
G01X16142Y25770D01*
G01X16165Y25771D01*
G01X16188Y25774D01*
G01X16212Y25780D01*
G01X16234Y25787D01*
G01X16256Y25797D01*
G01X16276Y25808D01*
G01X16296Y25822D01*
G01X16314Y25837D01*
G01X16331Y25854D01*
G01X16346Y25872D01*
G01X16360Y25891D01*
G01X16371Y25912D01*
G01X16380Y25934D01*
G01X16388Y25956D01*
G01X16394Y25979D01*
G01X16397Y26003D01*
G01X16398Y26026D01*
G01X16398Y26044D01*
G01X16399Y26058D01*
G01X16402Y26073D01*
G01X16407Y26086D01*
G01X16415Y26099D01*
G01X16423Y26110D01*
G01X16433Y26121D01*
G01X16445Y26129D01*
G01X16458Y26136D01*
G01X16471Y26141D01*
G01X16486Y26144D01*
G01X16515Y26149D01*
G01X16543Y26156D01*
G01X16570Y26166D01*
G01X16597Y26177D01*
G01X16623Y26190D01*
G01X16648Y26206D01*
G01X16672Y26223D01*
G01X16694Y26242D01*
G01X16715Y26263D01*
G01X16734Y26284D01*
G01X16751Y26308D01*
G01X16767Y26332D01*
G01X16781Y26358D01*
G01X16792Y26385D01*
G01X16802Y26412D01*
G01X16810Y26440D01*
G01X16815Y26469D01*
G01X16819Y26498D01*
G01X16820Y26527D01*
G01X16820Y27266D01*
G01X16819Y27297D01*
G01X16815Y27327D01*
G01X16809Y27357D01*
G01X16801Y27386D01*
G01X16790Y27414D01*
G01X16778Y27442D01*
G01X16763Y27469D01*
G01X16746Y27493D01*
G01X16727Y27517D01*
G01X16707Y27540D01*
G01X16438Y27808D01*
G01X16427Y27821D01*
G01X16419Y27834D01*
G01X16413Y27849D01*
G01X16409Y27864D01*
G01X16408Y27881D01*
G01X16409Y27897D01*
G01X16417Y27953D01*
G01X16422Y28010D01*
G01X16423Y28067D01*
G01X16422Y28114D01*
G01X16419Y28161D01*
G01X16413Y28208D01*
G01X16406Y28255D01*
G01X16397Y28302D01*
G01X16385Y28347D01*
G01X16371Y28393D01*
G01X16356Y28438D01*
G01X16338Y28482D01*
G01X16318Y28525D01*
G01X16297Y28567D01*
G01X16273Y28609D01*
G01X16248Y28649D01*
G01X16221Y28687D01*
G01X16193Y28725D01*
G01X16162Y28761D01*
G01X16130Y28796D01*
G01X16096Y28830D01*
G01X16061Y28862D01*
G01X16025Y28893D01*
G01X15987Y28921D01*
G01X15949Y28948D01*
G01X15909Y28973D01*
G01X15867Y28997D01*
G01X15825Y29018D01*
G01X15782Y29038D01*
G01X15738Y29056D01*
G01X15693Y29071D01*
G01X15647Y29085D01*
G01X15602Y29097D01*
G01X15555Y29106D01*
G01X15508Y29113D01*
G01X15461Y29119D01*
G01X15414Y29122D01*
G37*
G36*
G01X5806Y27190D02*
G01X4489Y27190D01*
G01X4489Y26616D01*
G01X5549Y26616D01*
G01X5573Y26617D01*
G01X5597Y26621D01*
G01X5620Y26626D01*
G01X5642Y26633D01*
G01X5664Y26643D01*
G01X5685Y26655D01*
G01X5704Y26668D01*
G01X5722Y26683D01*
G01X5739Y26700D01*
G01X5754Y26718D01*
G01X5767Y26738D01*
G01X5779Y26758D01*
G01X5789Y26780D01*
G01X5796Y26803D01*
G01X5801Y26825D01*
G01X5805Y26849D01*
G01X5806Y26873D01*
G01X5806Y27190D01*
G37*
G36*
G01X2114Y27190D02*
G01X797Y27190D01*
G01X797Y26873D01*
G01X798Y26849D01*
G01X802Y26825D01*
G01X807Y26803D01*
G01X814Y26780D01*
G01X824Y26758D01*
G01X836Y26738D01*
G01X849Y26718D01*
G01X864Y26700D01*
G01X881Y26683D01*
G01X899Y26668D01*
G01X918Y26655D01*
G01X939Y26643D01*
G01X961Y26633D01*
G01X983Y26626D01*
G01X1006Y26621D01*
G01X1030Y26617D01*
G01X1054Y26616D01*
G01X2114Y26616D01*
G01X2114Y27190D01*
G37*
G36*
G01X49549Y27705D02*
G01X49045Y27705D01*
G01X49067Y27662D01*
G01X49091Y27620D01*
G01X49117Y27579D01*
G01X49145Y27540D01*
G01X49174Y27501D01*
G01X49205Y27464D01*
G01X49238Y27428D01*
G01X49272Y27394D01*
G01X49308Y27361D01*
G01X49345Y27330D01*
G01X49384Y27301D01*
G01X49423Y27273D01*
G01X49464Y27247D01*
G01X49506Y27223D01*
G01X49549Y27201D01*
G01X49549Y27705D01*
G37*
G36*
G01X51030Y27705D02*
G01X50526Y27705D01*
G01X50526Y27201D01*
G01X50569Y27223D01*
G01X50611Y27247D01*
G01X50652Y27273D01*
G01X50691Y27301D01*
G01X50730Y27330D01*
G01X50767Y27361D01*
G01X50803Y27394D01*
G01X50837Y27428D01*
G01X50870Y27464D01*
G01X50901Y27501D01*
G01X50930Y27540D01*
G01X50958Y27579D01*
G01X50984Y27620D01*
G01X51008Y27662D01*
G01X51030Y27705D01*
G37*
G36*
G01X5549Y28653D02*
G01X4489Y28653D01*
G01X4489Y28079D01*
G01X5806Y28079D01*
G01X5806Y28397D01*
G01X5805Y28421D01*
G01X5801Y28444D01*
G01X5796Y28467D01*
G01X5789Y28489D01*
G01X5779Y28511D01*
G01X5767Y28532D01*
G01X5754Y28551D01*
G01X5739Y28569D01*
G01X5722Y28586D01*
G01X5704Y28601D01*
G01X5685Y28615D01*
G01X5664Y28626D01*
G01X5642Y28636D01*
G01X5620Y28644D01*
G01X5597Y28649D01*
G01X5573Y28652D01*
G01X5549Y28653D01*
G37*
G36*
G01X2114Y28653D02*
G01X1054Y28653D01*
G01X1030Y28652D01*
G01X1006Y28649D01*
G01X983Y28644D01*
G01X961Y28636D01*
G01X939Y28626D01*
G01X918Y28615D01*
G01X899Y28601D01*
G01X881Y28586D01*
G01X864Y28569D01*
G01X849Y28551D01*
G01X836Y28532D01*
G01X824Y28511D01*
G01X814Y28489D01*
G01X807Y28467D01*
G01X802Y28444D01*
G01X798Y28421D01*
G01X797Y28397D01*
G01X797Y28079D01*
G01X2114Y28079D01*
G01X2114Y28653D01*
G37*
G36*
G01X50569Y29164D02*
G01X50526Y29186D01*
G01X50526Y28682D01*
G01X51030Y28682D01*
G01X51008Y28725D01*
G01X50984Y28767D01*
G01X50958Y28808D01*
G01X50930Y28847D01*
G01X50901Y28886D01*
G01X50870Y28923D01*
G01X50837Y28959D01*
G01X50803Y28993D01*
G01X50767Y29026D01*
G01X50730Y29057D01*
G01X50691Y29086D01*
G01X50652Y29114D01*
G01X50611Y29140D01*
G01X50569Y29164D01*
G37*
G36*
G01X49549Y28682D02*
G01X49549Y29186D01*
G01X49506Y29164D01*
G01X49464Y29140D01*
G01X49423Y29114D01*
G01X49384Y29086D01*
G01X49345Y29057D01*
G01X49308Y29026D01*
G01X49272Y28993D01*
G01X49238Y28959D01*
G01X49205Y28923D01*
G01X49174Y28886D01*
G01X49145Y28847D01*
G01X49117Y28808D01*
G01X49091Y28767D01*
G01X49067Y28725D01*
G01X49045Y28682D01*
G01X49549Y28682D01*
G37*
G36*
G01X50086Y34379D02*
G01X50038Y34380D01*
G01X49989Y34379D01*
G01X49941Y34376D01*
G01X49893Y34371D01*
G01X49845Y34363D01*
G01X49798Y34354D01*
G01X49751Y34342D01*
G01X49705Y34329D01*
G01X49659Y34313D01*
G01X49614Y34296D01*
G01X49570Y34276D01*
G01X49526Y34255D01*
G01X49484Y34232D01*
G01X49443Y34207D01*
G01X49403Y34180D01*
G01X49364Y34151D01*
G01X49326Y34121D01*
G01X49290Y34089D01*
G01X49255Y34056D01*
G01X49222Y34021D01*
G01X49190Y33985D01*
G01X49160Y33947D01*
G01X49131Y33908D01*
G01X49104Y33868D01*
G01X49079Y33827D01*
G01X49056Y33785D01*
G01X49035Y33741D01*
G01X49015Y33697D01*
G01X48998Y33652D01*
G01X48982Y33606D01*
G01X48969Y33560D01*
G01X48957Y33513D01*
G01X48948Y33466D01*
G01X48940Y33418D01*
G01X48935Y33370D01*
G01X48932Y33322D01*
G01X48931Y33274D01*
G01X48932Y33225D01*
G01X48935Y33177D01*
G01X48940Y33129D01*
G01X48948Y33081D01*
G01X48957Y33034D01*
G01X48969Y32987D01*
G01X48982Y32941D01*
G01X48998Y32895D01*
G01X49015Y32850D01*
G01X49035Y32806D01*
G01X49056Y32762D01*
G01X49079Y32720D01*
G01X49104Y32679D01*
G01X49131Y32639D01*
G01X49160Y32600D01*
G01X49190Y32562D01*
G01X49222Y32526D01*
G01X49255Y32491D01*
G01X49290Y32458D01*
G01X49326Y32426D01*
G01X49364Y32396D01*
G01X49403Y32367D01*
G01X49443Y32340D01*
G01X49484Y32315D01*
G01X49526Y32292D01*
G01X49570Y32271D01*
G01X49614Y32251D01*
G01X49659Y32234D01*
G01X49705Y32218D01*
G01X49751Y32205D01*
G01X49798Y32193D01*
G01X49845Y32184D01*
G01X49893Y32176D01*
G01X49941Y32171D01*
G01X49989Y32168D01*
G01X50038Y32167D01*
G01X50086Y32168D01*
G01X50134Y32171D01*
G01X50182Y32176D01*
G01X50230Y32184D01*
G01X50277Y32193D01*
G01X50324Y32205D01*
G01X50370Y32218D01*
G01X50416Y32234D01*
G01X50461Y32251D01*
G01X50505Y32271D01*
G01X50549Y32292D01*
G01X50591Y32315D01*
G01X50632Y32340D01*
G01X50672Y32367D01*
G01X50711Y32396D01*
G01X50749Y32426D01*
G01X50785Y32458D01*
G01X50820Y32491D01*
G01X50853Y32526D01*
G01X50885Y32562D01*
G01X50915Y32600D01*
G01X50944Y32639D01*
G01X50971Y32679D01*
G01X50996Y32720D01*
G01X51019Y32762D01*
G01X51040Y32806D01*
G01X51060Y32850D01*
G01X51077Y32895D01*
G01X51093Y32941D01*
G01X51106Y32987D01*
G01X51118Y33034D01*
G01X51127Y33081D01*
G01X51135Y33129D01*
G01X51140Y33177D01*
G01X51143Y33225D01*
G01X51144Y33274D01*
G01X51143Y33322D01*
G01X51140Y33370D01*
G01X51135Y33418D01*
G01X51127Y33466D01*
G01X51118Y33513D01*
G01X51106Y33560D01*
G01X51093Y33606D01*
G01X51077Y33652D01*
G01X51060Y33697D01*
G01X51040Y33741D01*
G01X51019Y33785D01*
G01X50996Y33827D01*
G01X50971Y33868D01*
G01X50944Y33908D01*
G01X50915Y33947D01*
G01X50885Y33985D01*
G01X50853Y34021D01*
G01X50820Y34056D01*
G01X50785Y34089D01*
G01X50749Y34121D01*
G01X50711Y34151D01*
G01X50672Y34180D01*
G01X50632Y34207D01*
G01X50591Y34232D01*
G01X50549Y34255D01*
G01X50505Y34276D01*
G01X50461Y34296D01*
G01X50416Y34313D01*
G01X50370Y34329D01*
G01X50324Y34342D01*
G01X50277Y34354D01*
G01X50230Y34363D01*
G01X50182Y34371D01*
G01X50134Y34376D01*
G01X50086Y34379D01*
G37*
G36*
G01X50086Y36919D02*
G01X50038Y36920D01*
G01X49989Y36919D01*
G01X49941Y36916D01*
G01X49893Y36911D01*
G01X49845Y36903D01*
G01X49798Y36894D01*
G01X49751Y36882D01*
G01X49705Y36869D01*
G01X49659Y36853D01*
G01X49614Y36836D01*
G01X49570Y36816D01*
G01X49526Y36795D01*
G01X49484Y36772D01*
G01X49443Y36747D01*
G01X49403Y36720D01*
G01X49364Y36691D01*
G01X49326Y36661D01*
G01X49290Y36629D01*
G01X49255Y36596D01*
G01X49222Y36561D01*
G01X49190Y36525D01*
G01X49160Y36487D01*
G01X49131Y36448D01*
G01X49104Y36408D01*
G01X49079Y36367D01*
G01X49056Y36325D01*
G01X49035Y36281D01*
G01X49015Y36237D01*
G01X48998Y36192D01*
G01X48982Y36146D01*
G01X48969Y36100D01*
G01X48957Y36053D01*
G01X48948Y36006D01*
G01X48940Y35958D01*
G01X48935Y35910D01*
G01X48932Y35862D01*
G01X48931Y35814D01*
G01X48932Y35765D01*
G01X48935Y35717D01*
G01X48940Y35669D01*
G01X48948Y35621D01*
G01X48957Y35574D01*
G01X48969Y35527D01*
G01X48982Y35481D01*
G01X48998Y35435D01*
G01X49015Y35390D01*
G01X49035Y35346D01*
G01X49056Y35302D01*
G01X49079Y35260D01*
G01X49104Y35219D01*
G01X49131Y35179D01*
G01X49160Y35140D01*
G01X49190Y35102D01*
G01X49222Y35066D01*
G01X49255Y35031D01*
G01X49290Y34998D01*
G01X49326Y34966D01*
G01X49364Y34936D01*
G01X49403Y34907D01*
G01X49443Y34880D01*
G01X49484Y34855D01*
G01X49526Y34832D01*
G01X49570Y34811D01*
G01X49614Y34791D01*
G01X49659Y34774D01*
G01X49705Y34758D01*
G01X49751Y34745D01*
G01X49798Y34733D01*
G01X49845Y34724D01*
G01X49893Y34716D01*
G01X49941Y34711D01*
G01X49989Y34708D01*
G01X50038Y34707D01*
G01X50086Y34708D01*
G01X50134Y34711D01*
G01X50182Y34716D01*
G01X50230Y34724D01*
G01X50277Y34733D01*
G01X50324Y34745D01*
G01X50370Y34758D01*
G01X50416Y34774D01*
G01X50461Y34791D01*
G01X50505Y34811D01*
G01X50549Y34832D01*
G01X50591Y34855D01*
G01X50632Y34880D01*
G01X50672Y34907D01*
G01X50711Y34936D01*
G01X50749Y34966D01*
G01X50785Y34998D01*
G01X50820Y35031D01*
G01X50853Y35066D01*
G01X50885Y35102D01*
G01X50915Y35140D01*
G01X50944Y35179D01*
G01X50971Y35219D01*
G01X50996Y35260D01*
G01X51019Y35302D01*
G01X51040Y35346D01*
G01X51060Y35390D01*
G01X51077Y35435D01*
G01X51093Y35481D01*
G01X51106Y35527D01*
G01X51118Y35574D01*
G01X51127Y35621D01*
G01X51135Y35669D01*
G01X51140Y35717D01*
G01X51143Y35765D01*
G01X51144Y35814D01*
G01X51143Y35862D01*
G01X51140Y35910D01*
G01X51135Y35958D01*
G01X51127Y36006D01*
G01X51118Y36053D01*
G01X51106Y36100D01*
G01X51093Y36146D01*
G01X51077Y36192D01*
G01X51060Y36237D01*
G01X51040Y36281D01*
G01X51019Y36325D01*
G01X50996Y36367D01*
G01X50971Y36408D01*
G01X50944Y36448D01*
G01X50915Y36487D01*
G01X50885Y36525D01*
G01X50853Y36561D01*
G01X50820Y36596D01*
G01X50785Y36629D01*
G01X50749Y36661D01*
G01X50711Y36691D01*
G01X50672Y36720D01*
G01X50632Y36747D01*
G01X50591Y36772D01*
G01X50549Y36795D01*
G01X50505Y36816D01*
G01X50461Y36836D01*
G01X50416Y36853D01*
G01X50370Y36869D01*
G01X50324Y36882D01*
G01X50277Y36894D01*
G01X50230Y36903D01*
G01X50182Y36911D01*
G01X50134Y36916D01*
G01X50086Y36919D01*
G37*

%LPD*%
G36*
G01X24922Y42287D02*
G01X24099Y42287D01*
G01X24084Y42286D01*
G01X24070Y42283D01*
G01X24056Y42278D01*
G01X24044Y42271D01*
G01X24032Y42263D01*
G01X24022Y42252D01*
G01X24013Y42241D01*
G01X24006Y42228D01*
G01X24001Y42214D01*
G01X23998Y42201D01*
G01X23997Y42186D01*
G01X23997Y41915D01*
G01X23474Y41915D01*
G01X23502Y41967D01*
G01X23532Y42017D01*
G01X23564Y42066D01*
G01X23599Y42113D01*
G01X23608Y42127D01*
G01X23615Y42143D01*
G01X23619Y42159D01*
G01X23620Y42176D01*
G01X23619Y42190D01*
G01X23616Y42204D01*
G01X23611Y42218D01*
G01X23604Y42231D01*
G01X23596Y42242D01*
G01X23585Y42252D01*
G01X23574Y42261D01*
G01X23561Y42268D01*
G01X23547Y42273D01*
G01X23533Y42276D01*
G01X23519Y42277D01*
G01X23503Y42276D01*
G01X23487Y42272D01*
G01X23473Y42266D01*
G01X23459Y42258D01*
G01X23447Y42247D01*
G01X20739Y39541D01*
G01X20728Y39529D01*
G01X20720Y39515D01*
G01X20714Y39501D01*
G01X20710Y39485D01*
G01X20709Y39469D01*
G01X20710Y39454D01*
G01X20713Y39441D01*
G01X20718Y39427D01*
G01X20725Y39414D01*
G01X20734Y39403D01*
G01X20744Y39392D01*
G01X20756Y39384D01*
G01X20769Y39377D01*
G01X20782Y39372D01*
G01X20797Y39368D01*
G01X20811Y39367D01*
G01X26495Y39367D01*
G01X26511Y39368D01*
G01X26527Y39373D01*
G01X26541Y39379D01*
G01X26555Y39387D01*
G01X26567Y39397D01*
G01X27425Y40255D01*
G01X27436Y40268D01*
G01X27444Y40281D01*
G01X27450Y40296D01*
G01X27454Y40311D01*
G01X27455Y40328D01*
G01X27454Y40344D01*
G01X27450Y40360D01*
G01X27443Y40375D01*
G01X27434Y40390D01*
G01X27422Y40402D01*
G01X27410Y40412D01*
G01X27391Y40426D01*
G01X27374Y40441D01*
G01X27357Y40458D01*
G01X27343Y40475D01*
G01X27330Y40495D01*
G01X27319Y40515D01*
G01X27311Y40536D01*
G01X27303Y40558D01*
G01X27298Y40581D01*
G01X27295Y40603D01*
G01X27294Y40626D01*
G01X27294Y42186D01*
G01X27293Y42201D01*
G01X27290Y42214D01*
G01X27285Y42228D01*
G01X27278Y42241D01*
G01X27269Y42252D01*
G01X27259Y42263D01*
G01X27248Y42271D01*
G01X27235Y42278D01*
G01X27221Y42283D01*
G01X27207Y42286D01*
G01X27192Y42287D01*
G01X26909Y42287D01*
G01X26894Y42286D01*
G01X26880Y42283D01*
G01X26866Y42278D01*
G01X26853Y42271D01*
G01X26842Y42263D01*
G01X26832Y42252D01*
G01X26823Y42241D01*
G01X26816Y42228D01*
G01X26811Y42214D01*
G01X26808Y42201D01*
G01X26807Y42186D01*
G01X26807Y41853D01*
G01X26364Y41853D01*
G01X26364Y42186D01*
G01X26363Y42201D01*
G01X26360Y42214D01*
G01X26355Y42228D01*
G01X26348Y42241D01*
G01X26339Y42252D01*
G01X26329Y42263D01*
G01X26317Y42271D01*
G01X26305Y42278D01*
G01X26291Y42283D01*
G01X26277Y42286D01*
G01X26263Y42287D01*
G01X25838Y42287D01*
G01X25824Y42286D01*
G01X25810Y42283D01*
G01X25796Y42278D01*
G01X25784Y42271D01*
G01X25772Y42263D01*
G01X25762Y42252D01*
G01X25753Y42241D01*
G01X25746Y42228D01*
G01X25741Y42214D01*
G01X25738Y42201D01*
G01X25737Y42186D01*
G01X25737Y41908D01*
G01X25719Y41913D01*
G01X25699Y41915D01*
G01X25024Y41915D01*
G01X25024Y42186D01*
G01X25023Y42201D01*
G01X25020Y42214D01*
G01X25015Y42228D01*
G01X25008Y42241D01*
G01X24999Y42252D01*
G01X24989Y42263D01*
G01X24977Y42271D01*
G01X24965Y42278D01*
G01X24951Y42283D01*
G01X24937Y42286D01*
G01X24922Y42287D01*
G37*

%LPC*%
G36*
G01X23997Y40888D02*
G01X23474Y40888D01*
G01X23522Y40800D01*
G01X23549Y40758D01*
G01X23578Y40717D01*
G01X23609Y40677D01*
G01X23641Y40638D01*
G01X23675Y40601D01*
G01X23710Y40566D01*
G01X23747Y40532D01*
G01X23786Y40500D01*
G01X23826Y40469D01*
G01X23867Y40440D01*
G01X23909Y40413D01*
G01X23997Y40365D01*
G01X23997Y40888D01*
G37*
G36*
G01X25737Y40370D02*
G01X25737Y40895D01*
G01X25719Y40890D01*
G01X25699Y40888D01*
G01X25024Y40888D01*
G01X25024Y40365D01*
G01X25073Y40391D01*
G01X25120Y40419D01*
G01X25166Y40449D01*
G01X25211Y40482D01*
G01X25225Y40490D01*
G01X25240Y40497D01*
G01X25256Y40501D01*
G01X25273Y40502D01*
G01X25288Y40501D01*
G01X25302Y40498D01*
G01X25316Y40492D01*
G01X25329Y40485D01*
G01X25341Y40475D01*
G01X25351Y40465D01*
G01X25369Y40446D01*
G01X25387Y40429D01*
G01X25407Y40413D01*
G01X25429Y40401D01*
G01X25452Y40390D01*
G01X25476Y40381D01*
G01X25500Y40375D01*
G01X25525Y40371D01*
G01X25550Y40370D01*
G01X25737Y40370D01*
G37*
G36*
G01X26807Y40950D02*
G01X26364Y40950D01*
G01X26364Y40370D01*
G01X26551Y40370D01*
G01X26574Y40371D01*
G01X26598Y40374D01*
G01X26621Y40380D01*
G01X26643Y40388D01*
G01X26665Y40397D01*
G01X26686Y40408D01*
G01X26705Y40422D01*
G01X26723Y40437D01*
G01X26740Y40454D01*
G01X26755Y40472D01*
G01X26769Y40492D01*
G01X26780Y40512D01*
G01X26790Y40534D01*
G01X26797Y40556D01*
G01X26803Y40580D01*
G01X26806Y40603D01*
G01X26807Y40626D01*
G01X26807Y40950D01*
G37*

%LPD*%
G36*
G01X29924Y37886D02*
G01X27634Y37886D01*
G01X27619Y37885D01*
G01X27605Y37882D01*
G01X27592Y37876D01*
G01X27578Y37869D01*
G01X27567Y37861D01*
G01X27556Y37851D01*
G01X27548Y37839D01*
G01X27541Y37826D01*
G01X27536Y37812D01*
G01X27533Y37799D01*
G01X27532Y37784D01*
G01X27533Y37769D01*
G01X27537Y37754D01*
G01X27542Y37739D01*
G01X27550Y37726D01*
G01X27560Y37714D01*
G01X27571Y37704D01*
G01X27584Y37696D01*
G01X27614Y37677D01*
G01X27643Y37658D01*
G01X27670Y37636D01*
G01X27696Y37612D01*
G01X27721Y37587D01*
G01X27744Y37561D01*
G01X27765Y37534D01*
G01X27785Y37505D01*
G01X27803Y37474D01*
G01X27819Y37443D01*
G01X27832Y37411D01*
G01X27844Y37378D01*
G01X27854Y37344D01*
G01X27861Y37310D01*
G01X27867Y37276D01*
G01X27870Y37240D01*
G01X27871Y37205D01*
G01X27870Y37171D01*
G01X27867Y37138D01*
G01X27862Y37104D01*
G01X27855Y37071D01*
G01X27846Y37038D01*
G01X27835Y37006D01*
G01X27822Y36975D01*
G01X27807Y36944D01*
G01X27790Y36915D01*
G01X27772Y36886D01*
G01X27752Y36859D01*
G01X27730Y36833D01*
G01X27707Y36808D01*
G01X27682Y36785D01*
G01X27656Y36763D01*
G01X27629Y36743D01*
G01X27600Y36725D01*
G01X27571Y36708D01*
G01X27540Y36693D01*
G01X27509Y36680D01*
G01X27477Y36669D01*
G01X27444Y36660D01*
G01X27411Y36653D01*
G01X27377Y36648D01*
G01X27344Y36645D01*
G01X27310Y36644D01*
G01X27274Y36645D01*
G01X27237Y36649D01*
G01X27201Y36654D01*
G01X27166Y36662D01*
G01X27131Y36673D01*
G01X27097Y36686D01*
G01X27064Y36700D01*
G01X27032Y36717D01*
G01X27001Y36736D01*
G01X26971Y36757D01*
G01X26945Y36778D01*
G01X26920Y36801D01*
G01X26897Y36825D01*
G01X26874Y36851D01*
G01X26854Y36878D01*
G01X26835Y36906D01*
G01X26818Y36935D01*
G01X26802Y36965D01*
G01X26789Y36996D01*
G01X26777Y37028D01*
G01X26767Y37060D01*
G01X26759Y37093D01*
G01X26754Y37126D01*
G01X26750Y37160D01*
G01X26748Y37174D01*
G01X26743Y37189D01*
G01X26737Y37202D01*
G01X26728Y37215D01*
G01X26717Y37226D01*
G01X26706Y37235D01*
G01X26692Y37243D01*
G01X26679Y37249D01*
G01X26664Y37252D01*
G01X26649Y37253D01*
G01X26516Y37253D01*
G01X26516Y37332D01*
G01X26515Y37347D01*
G01X26512Y37360D01*
G01X26506Y37374D01*
G01X26499Y37387D01*
G01X26491Y37398D01*
G01X26481Y37409D01*
G01X26469Y37417D01*
G01X26456Y37424D01*
G01X26442Y37429D01*
G01X26428Y37432D01*
G01X26414Y37434D01*
G01X26290Y37434D01*
G01X26276Y37432D01*
G01X26262Y37429D01*
G01X26248Y37424D01*
G01X26235Y37417D01*
G01X26223Y37409D01*
G01X26213Y37398D01*
G01X26205Y37387D01*
G01X26198Y37374D01*
G01X26192Y37360D01*
G01X26189Y37347D01*
G01X26188Y37332D01*
G01X26188Y37253D01*
G01X25881Y37253D01*
G01X25881Y37332D01*
G01X25880Y37347D01*
G01X25877Y37360D01*
G01X25871Y37374D01*
G01X25864Y37387D01*
G01X25856Y37398D01*
G01X25846Y37409D01*
G01X25834Y37417D01*
G01X25821Y37424D01*
G01X25807Y37429D01*
G01X25793Y37432D01*
G01X25779Y37434D01*
G01X25655Y37434D01*
G01X25641Y37432D01*
G01X25627Y37429D01*
G01X25613Y37424D01*
G01X25600Y37417D01*
G01X25588Y37409D01*
G01X25578Y37398D01*
G01X25570Y37387D01*
G01X25563Y37374D01*
G01X25557Y37360D01*
G01X25554Y37347D01*
G01X25553Y37332D01*
G01X25553Y37204D01*
G01X25545Y37188D01*
G01X25540Y37170D01*
G01X25539Y37152D01*
G01X25539Y36627D01*
G01X25540Y36609D01*
G01X25545Y36591D01*
G01X25553Y36574D01*
G01X25553Y36033D01*
G01X25517Y36033D01*
G01X25488Y36034D01*
G01X25460Y36039D01*
G01X25433Y36047D01*
G01X25416Y36051D01*
G01X25400Y36053D01*
G01X25383Y36051D01*
G01X25366Y36047D01*
G01X25339Y36039D01*
G01X25311Y36034D01*
G01X25282Y36033D01*
G01X25188Y36033D01*
G01X25173Y36032D01*
G01X25159Y36029D01*
G01X25146Y36024D01*
G01X25133Y36017D01*
G01X25122Y36008D01*
G01X25111Y35998D01*
G01X25102Y35986D01*
G01X25096Y35974D01*
G01X25091Y35960D01*
G01X25088Y35946D01*
G01X25086Y35931D01*
G01X25089Y35909D01*
G01X25095Y35874D01*
G01X25102Y35825D01*
G01X25107Y35811D01*
G01X25113Y35798D01*
G01X25122Y35786D01*
G01X25132Y35774D01*
G01X25143Y35765D01*
G01X25156Y35758D01*
G01X25170Y35753D01*
G01X25185Y35749D01*
G01X25199Y35747D01*
G01X25234Y35746D01*
G01X25268Y35742D01*
G01X25303Y35736D01*
G01X25337Y35728D01*
G01X25370Y35717D01*
G01X25403Y35705D01*
G01X25435Y35691D01*
G01X25466Y35675D01*
G01X25495Y35657D01*
G01X25524Y35637D01*
G01X25551Y35615D01*
G01X25577Y35592D01*
G01X25602Y35567D01*
G01X25624Y35541D01*
G01X25645Y35513D01*
G01X25665Y35484D01*
G01X25682Y35454D01*
G01X25698Y35422D01*
G01X25712Y35390D01*
G01X25724Y35358D01*
G01X25733Y35324D01*
G01X25740Y35290D01*
G01X25746Y35256D01*
G01X25749Y35221D01*
G01X25750Y35186D01*
G01X25748Y35140D01*
G01X25742Y35094D01*
G01X25741Y35077D01*
G01X25742Y35063D01*
G01X25745Y35049D01*
G01X25751Y35035D01*
G01X25757Y35023D01*
G01X25766Y35011D01*
G01X25776Y35001D01*
G01X25788Y34992D01*
G01X25801Y34985D01*
G01X25814Y34980D01*
G01X25828Y34977D01*
G01X25843Y34976D01*
G01X41586Y34976D01*
G01X41601Y34977D01*
G01X41615Y34980D01*
G01X41629Y34985D01*
G01X41641Y34992D01*
G01X41653Y35001D01*
G01X41663Y35011D01*
G01X41672Y35023D01*
G01X41679Y35035D01*
G01X41684Y35049D01*
G01X41687Y35063D01*
G01X41688Y35077D01*
G01X41687Y35094D01*
G01X41683Y35110D01*
G01X41676Y35125D01*
G01X41667Y35139D01*
G01X41635Y35184D01*
G01X41605Y35229D01*
G01X41577Y35277D01*
G01X41552Y35325D01*
G01X42056Y35325D01*
G01X42056Y35077D01*
G01X42057Y35063D01*
G01X42060Y35049D01*
G01X42065Y35035D01*
G01X42072Y35023D01*
G01X42081Y35011D01*
G01X42091Y35001D01*
G01X42103Y34992D01*
G01X42115Y34985D01*
G01X42129Y34980D01*
G01X42143Y34977D01*
G01X42157Y34976D01*
G01X42915Y34976D01*
G01X42928Y34975D01*
G01X42932Y34975D01*
G01X42946Y34976D01*
G01X42960Y34979D01*
G01X42974Y34984D01*
G01X42998Y35000D01*
G01X43008Y35010D01*
G01X43017Y35022D01*
G01X43024Y35035D01*
G01X43029Y35048D01*
G01X43032Y35063D01*
G01X43033Y35077D01*
G01X43033Y35325D01*
G01X43537Y35325D01*
G01X43513Y35279D01*
G01X43487Y35234D01*
G01X43459Y35190D01*
G01X43428Y35148D01*
G01X43396Y35107D01*
G01X43362Y35068D01*
G01X43326Y35030D01*
G01X43288Y34994D01*
G01X43249Y34960D01*
G01X43238Y34949D01*
G01X43229Y34938D01*
G01X43221Y34925D01*
G01X43216Y34911D01*
G01X43213Y34897D01*
G01X43212Y34881D01*
G01X43213Y34866D01*
G01X43217Y34850D01*
G01X43223Y34836D01*
G01X43231Y34822D01*
G01X43241Y34810D01*
G01X43706Y34343D01*
G01X43718Y34333D01*
G01X43732Y34324D01*
G01X43747Y34318D01*
G01X43763Y34314D01*
G01X43778Y34313D01*
G01X43793Y34314D01*
G01X43807Y34317D01*
G01X43821Y34323D01*
G01X43833Y34329D01*
G01X43845Y34338D01*
G01X43855Y34348D01*
G01X43864Y34360D01*
G01X43871Y34372D01*
G01X43876Y34386D01*
G01X43879Y34400D01*
G01X43880Y34415D01*
G01X43880Y35718D01*
G01X43879Y35734D01*
G01X43875Y35749D01*
G01X43869Y35764D01*
G01X43861Y35778D01*
G01X43851Y35790D01*
G01X43368Y36272D01*
G01X43356Y36282D01*
G01X43342Y36291D01*
G01X43327Y36297D01*
G01X43312Y36301D01*
G01X43296Y36302D01*
G01X43033Y36302D01*
G01X43033Y36565D01*
G01X43032Y36581D01*
G01X43028Y36596D01*
G01X43022Y36611D01*
G01X43013Y36625D01*
G01X43003Y36637D01*
G01X42648Y36993D01*
G01X42636Y37003D01*
G01X42622Y37011D01*
G01X42607Y37017D01*
G01X42592Y37021D01*
G01X42576Y37022D01*
G01X42157Y37022D01*
G01X42141Y37021D01*
G01X42124Y37016D01*
G01X42109Y37010D01*
G01X42094Y37016D01*
G01X42077Y37021D01*
G01X42060Y37022D01*
G01X30990Y37022D01*
G01X30960Y37023D01*
G01X30930Y37027D01*
G01X30900Y37033D01*
G01X30871Y37041D01*
G01X30842Y37051D01*
G01X30815Y37064D01*
G01X30788Y37079D01*
G01X30763Y37096D01*
G01X30739Y37114D01*
G01X30717Y37135D01*
G01X29996Y37856D01*
G01X29984Y37866D01*
G01X29970Y37874D01*
G01X29956Y37881D01*
G01X29940Y37885D01*
G01X29924Y37886D01*
G37*

%LPC*%
G36*
G01X26809Y36526D02*
G01X26516Y36526D01*
G01X26516Y36033D01*
G01X26552Y36033D01*
G01X26576Y36034D01*
G01X26599Y36037D01*
G01X26622Y36043D01*
G01X26645Y36050D01*
G01X26666Y36060D01*
G01X26687Y36072D01*
G01X26707Y36085D01*
G01X26725Y36100D01*
G01X26742Y36117D01*
G01X26757Y36135D01*
G01X26770Y36154D01*
G01X26782Y36175D01*
G01X26791Y36197D01*
G01X26799Y36219D01*
G01X26804Y36242D01*
G01X26808Y36266D01*
G01X26809Y36289D01*
G01X26809Y36526D01*
G37*
G36*
G01X26188Y36526D02*
G01X25881Y36526D01*
G01X25881Y36033D01*
G01X25917Y36033D01*
G01X25946Y36034D01*
G01X25974Y36039D01*
G01X26001Y36047D01*
G01X26018Y36051D01*
G01X26035Y36053D01*
G01X26051Y36051D01*
G01X26068Y36047D01*
G01X26095Y36039D01*
G01X26123Y36034D01*
G01X26152Y36033D01*
G01X26188Y36033D01*
G01X26188Y36526D01*
G37*
G36*
G01X42056Y36302D02*
G01X42056Y36806D01*
G01X42013Y36784D01*
G01X41971Y36760D01*
G01X41930Y36734D01*
G01X41891Y36706D01*
G01X41852Y36677D01*
G01X41815Y36646D01*
G01X41779Y36613D01*
G01X41745Y36579D01*
G01X41712Y36543D01*
G01X41681Y36506D01*
G01X41652Y36467D01*
G01X41624Y36428D01*
G01X41598Y36387D01*
G01X41574Y36345D01*
G01X41552Y36302D01*
G01X42056Y36302D01*
G37*

%LPD*%
G36*
G01X43793Y28838D02*
G01X43778Y28839D01*
G01X43763Y28838D01*
G01X43747Y28834D01*
G01X43732Y28827D01*
G01X43719Y28819D01*
G01X43707Y28809D01*
G01X43599Y28702D01*
G01X43589Y28689D01*
G01X43581Y28676D01*
G01X43575Y28661D01*
G01X43571Y28646D01*
G01X43570Y28630D01*
G01X43571Y28611D01*
G01X43576Y28593D01*
G01X43594Y28545D01*
G01X43609Y28496D01*
G01X43621Y28447D01*
G01X43632Y28397D01*
G01X43640Y28346D01*
G01X43646Y28296D01*
G01X43650Y28245D01*
G01X43651Y28194D01*
G01X43650Y28145D01*
G01X43647Y28097D01*
G01X43642Y28049D01*
G01X43634Y28001D01*
G01X43625Y27954D01*
G01X43613Y27907D01*
G01X43600Y27861D01*
G01X43584Y27815D01*
G01X43567Y27770D01*
G01X43547Y27726D01*
G01X43526Y27682D01*
G01X43503Y27640D01*
G01X43478Y27599D01*
G01X43451Y27559D01*
G01X43422Y27520D01*
G01X43392Y27482D01*
G01X43360Y27446D01*
G01X43327Y27411D01*
G01X43292Y27378D01*
G01X43256Y27346D01*
G01X43218Y27316D01*
G01X43179Y27287D01*
G01X43139Y27260D01*
G01X43098Y27235D01*
G01X43056Y27212D01*
G01X43012Y27191D01*
G01X42968Y27171D01*
G01X42923Y27154D01*
G01X42877Y27138D01*
G01X42831Y27125D01*
G01X42784Y27113D01*
G01X42737Y27104D01*
G01X42689Y27096D01*
G01X42641Y27091D01*
G01X42593Y27088D01*
G01X42545Y27087D01*
G01X42497Y27088D01*
G01X42449Y27091D01*
G01X42402Y27096D01*
G01X42355Y27103D01*
G01X42308Y27112D01*
G01X42261Y27124D01*
G01X42215Y27137D01*
G01X42170Y27152D01*
G01X42125Y27169D01*
G01X42082Y27188D01*
G01X42039Y27210D01*
G01X41997Y27232D01*
G01X41956Y27257D01*
G01X41916Y27283D01*
G01X41877Y27311D01*
G01X41840Y27341D01*
G01X41804Y27372D01*
G01X41769Y27405D01*
G01X41735Y27439D01*
G01X41704Y27474D01*
G01X41673Y27511D01*
G01X41645Y27549D01*
G01X41618Y27589D01*
G01X41593Y27629D01*
G01X41569Y27671D01*
G01X41547Y27713D01*
G01X41527Y27757D01*
G01X41510Y27801D01*
G01X41494Y27846D01*
G01X41480Y27892D01*
G01X41468Y27938D01*
G01X41458Y27985D01*
G01X41450Y28032D01*
G01X41444Y28079D01*
G01X41440Y28127D01*
G01X41438Y28175D01*
G01X41437Y28190D01*
G01X41432Y28206D01*
G01X41426Y28220D01*
G01X41418Y28233D01*
G01X41408Y28245D01*
G01X41396Y28255D01*
G01X41382Y28264D01*
G01X41367Y28270D01*
G01X41352Y28273D01*
G01X41336Y28274D01*
G01X37994Y28274D01*
G01X37980Y28273D01*
G01X37965Y28270D01*
G01X37952Y28265D01*
G01X37939Y28258D01*
G01X37927Y28249D01*
G01X37917Y28239D01*
G01X37908Y28228D01*
G01X37901Y28215D01*
G01X37893Y28187D01*
G01X37892Y28173D01*
G01X37894Y28157D01*
G01X37897Y28142D01*
G01X37903Y28128D01*
G01X37911Y28115D01*
G01X37921Y28103D01*
G01X37954Y28066D01*
G01X37986Y28027D01*
G01X38016Y27988D01*
G01X38045Y27947D01*
G01X38072Y27905D01*
G01X38097Y27862D01*
G01X38120Y27818D01*
G01X37597Y27818D01*
G01X37597Y28173D01*
G01X37596Y28187D01*
G01X37593Y28201D01*
G01X37588Y28215D01*
G01X37581Y28228D01*
G01X37572Y28239D01*
G01X37562Y28249D01*
G01X37550Y28258D01*
G01X37538Y28265D01*
G01X37524Y28270D01*
G01X37510Y28273D01*
G01X37495Y28274D01*
G01X36672Y28274D01*
G01X36657Y28273D01*
G01X36643Y28270D01*
G01X36629Y28265D01*
G01X36617Y28258D01*
G01X36605Y28249D01*
G01X36595Y28239D01*
G01X36586Y28228D01*
G01X36579Y28215D01*
G01X36574Y28201D01*
G01X36571Y28187D01*
G01X36570Y28173D01*
G01X36570Y27818D01*
G01X35895Y27818D01*
G01X35875Y27816D01*
G01X35857Y27811D01*
G01X35857Y28173D01*
G01X35856Y28187D01*
G01X35853Y28201D01*
G01X35848Y28215D01*
G01X35841Y28228D01*
G01X35832Y28239D01*
G01X35822Y28249D01*
G01X35810Y28258D01*
G01X35798Y28265D01*
G01X35784Y28270D01*
G01X35770Y28273D01*
G01X35756Y28274D01*
G01X35350Y28274D01*
G01X35334Y28273D01*
G01X35319Y28269D01*
G01X35304Y28263D01*
G01X35290Y28255D01*
G01X35279Y28245D01*
G01X35260Y28226D01*
G01X35250Y28214D01*
G01X35241Y28200D01*
G01X35235Y28185D01*
G01X35231Y28170D01*
G01X35230Y28154D01*
G01X35230Y27756D01*
G01X34832Y27756D01*
G01X34815Y27754D01*
G01X34800Y27751D01*
G01X34785Y27744D01*
G01X34772Y27736D01*
G01X34759Y27726D01*
G01X34756Y27723D01*
G01X34746Y27711D01*
G01X34738Y27697D01*
G01X34732Y27682D01*
G01X34728Y27667D01*
G01X34727Y27651D01*
G01X34727Y26955D01*
G01X34728Y26941D01*
G01X34731Y26927D01*
G01X34736Y26913D01*
G01X34743Y26900D01*
G01X34752Y26888D01*
G01X34762Y26878D01*
G01X34774Y26870D01*
G01X34786Y26863D01*
G01X34800Y26857D01*
G01X34814Y26854D01*
G01X34828Y26853D01*
G01X35230Y26853D01*
G01X35230Y26273D01*
G01X35043Y26273D01*
G01X35020Y26274D01*
G01X34997Y26277D01*
G01X34974Y26283D01*
G01X34951Y26290D01*
G01X34930Y26300D01*
G01X34909Y26311D01*
G01X34889Y26325D01*
G01X34876Y26333D01*
G01X34860Y26339D01*
G01X34845Y26343D01*
G01X34828Y26345D01*
G01X34814Y26344D01*
G01X34800Y26341D01*
G01X34786Y26336D01*
G01X34774Y26329D01*
G01X34762Y26320D01*
G01X34752Y26310D01*
G01X34743Y26298D01*
G01X34736Y26285D01*
G01X34731Y26272D01*
G01X34728Y26258D01*
G01X34727Y26243D01*
G01X34727Y24978D01*
G01X34726Y24947D01*
G01X34722Y24917D01*
G01X34716Y24887D01*
G01X34708Y24858D01*
G01X34697Y24830D01*
G01X34685Y24803D01*
G01X34670Y24776D01*
G01X34653Y24751D01*
G01X34634Y24727D01*
G01X34614Y24705D01*
G01X34169Y24260D01*
G01X34158Y24247D01*
G01X34150Y24234D01*
G01X34144Y24219D01*
G01X34140Y24204D01*
G01X34139Y24187D01*
G01X34140Y24171D01*
G01X34144Y24155D01*
G01X34151Y24140D01*
G01X34160Y24125D01*
G01X34172Y24113D01*
G01X34184Y24103D01*
G01X34203Y24089D01*
G01X34220Y24074D01*
G01X34237Y24057D01*
G01X34251Y24040D01*
G01X34264Y24020D01*
G01X34275Y24000D01*
G01X34283Y23979D01*
G01X34291Y23957D01*
G01X34296Y23934D01*
G01X34299Y23912D01*
G01X34300Y23889D01*
G01X34300Y22338D01*
G01X34299Y22311D01*
G01X34294Y22284D01*
G01X34292Y22263D01*
G01X34293Y22248D01*
G01X34296Y22235D01*
G01X34301Y22221D01*
G01X34308Y22208D01*
G01X34317Y22197D01*
G01X34327Y22186D01*
G01X34339Y22178D01*
G01X34351Y22171D01*
G01X34365Y22166D01*
G01X34379Y22163D01*
G01X34394Y22162D01*
G01X34693Y22162D01*
G01X34708Y22163D01*
G01X34722Y22166D01*
G01X34736Y22171D01*
G01X34748Y22178D01*
G01X34760Y22186D01*
G01X34770Y22197D01*
G01X34779Y22208D01*
G01X34786Y22221D01*
G01X34791Y22235D01*
G01X34794Y22248D01*
G01X34795Y22263D01*
G01X34793Y22284D01*
G01X34788Y22311D01*
G01X34787Y22338D01*
G01X34787Y22662D01*
G01X35230Y22662D01*
G01X35230Y22263D01*
G01X35231Y22248D01*
G01X35234Y22235D01*
G01X35239Y22221D01*
G01X35246Y22208D01*
G01X35255Y22197D01*
G01X35265Y22186D01*
G01X35277Y22178D01*
G01X35289Y22171D01*
G01X35303Y22166D01*
G01X35317Y22163D01*
G01X35331Y22162D01*
G01X35756Y22162D01*
G01X35770Y22163D01*
G01X35784Y22166D01*
G01X35798Y22171D01*
G01X35810Y22178D01*
G01X35822Y22186D01*
G01X35832Y22197D01*
G01X35841Y22208D01*
G01X35848Y22221D01*
G01X35853Y22235D01*
G01X35856Y22248D01*
G01X35857Y22263D01*
G01X35857Y22662D01*
G01X36402Y22662D01*
G01X36417Y22663D01*
G01X36432Y22667D01*
G01X36446Y22673D01*
G01X36459Y22680D01*
G01X36471Y22690D01*
G01X36481Y22701D01*
G01X36490Y22713D01*
G01X36496Y22727D01*
G01X36570Y22727D01*
G01X36570Y22263D01*
G01X36571Y22248D01*
G01X36574Y22235D01*
G01X36579Y22221D01*
G01X36586Y22208D01*
G01X36595Y22197D01*
G01X36605Y22186D01*
G01X36617Y22178D01*
G01X36629Y22171D01*
G01X36643Y22166D01*
G01X36657Y22163D01*
G01X36672Y22162D01*
G01X37495Y22162D01*
G01X37510Y22163D01*
G01X37524Y22166D01*
G01X37538Y22171D01*
G01X37550Y22178D01*
G01X37562Y22186D01*
G01X37572Y22197D01*
G01X37581Y22208D01*
G01X37588Y22221D01*
G01X37593Y22235D01*
G01X37596Y22248D01*
G01X37597Y22263D01*
G01X37597Y22727D01*
G01X38120Y22727D01*
G01X38097Y22683D01*
G01X38072Y22640D01*
G01X38045Y22598D01*
G01X38017Y22557D01*
G01X37987Y22518D01*
G01X37955Y22480D01*
G01X37921Y22443D01*
G01X37886Y22408D01*
G01X37850Y22374D01*
G01X37811Y22342D01*
G01X37801Y22332D01*
G01X37792Y22320D01*
G01X37784Y22307D01*
G01X37778Y22293D01*
G01X37775Y22278D01*
G01X37774Y22263D01*
G01X37775Y22248D01*
G01X37778Y22235D01*
G01X37783Y22221D01*
G01X37790Y22208D01*
G01X37799Y22197D01*
G01X37809Y22186D01*
G01X37821Y22178D01*
G01X37833Y22171D01*
G01X37847Y22166D01*
G01X37861Y22163D01*
G01X37875Y22162D01*
G01X38466Y22162D01*
G01X38482Y22163D01*
G01X38498Y22167D01*
G01X38513Y22173D01*
G01X38526Y22181D01*
G01X38538Y22191D01*
G01X41490Y25145D01*
G01X41500Y25157D01*
G01X41509Y25171D01*
G01X41515Y25186D01*
G01X41518Y25201D01*
G01X41520Y25217D01*
G01X41518Y25235D01*
G01X41513Y25254D01*
G01X41495Y25301D01*
G01X41480Y25351D01*
G01X41468Y25400D01*
G01X41457Y25450D01*
G01X41449Y25501D01*
G01X41443Y25551D01*
G01X41439Y25602D01*
G01X41438Y25654D01*
G01X41439Y25702D01*
G01X41442Y25750D01*
G01X41447Y25798D01*
G01X41455Y25846D01*
G01X41464Y25893D01*
G01X41476Y25940D01*
G01X41489Y25986D01*
G01X41505Y26032D01*
G01X41522Y26077D01*
G01X41542Y26121D01*
G01X41563Y26165D01*
G01X41586Y26207D01*
G01X41611Y26248D01*
G01X41638Y26288D01*
G01X41667Y26327D01*
G01X41697Y26365D01*
G01X41729Y26401D01*
G01X41762Y26436D01*
G01X41797Y26469D01*
G01X41833Y26501D01*
G01X41871Y26531D01*
G01X41910Y26560D01*
G01X41950Y26587D01*
G01X41991Y26612D01*
G01X42033Y26635D01*
G01X42077Y26656D01*
G01X42121Y26676D01*
G01X42166Y26693D01*
G01X42212Y26709D01*
G01X42258Y26722D01*
G01X42305Y26734D01*
G01X42352Y26743D01*
G01X42400Y26751D01*
G01X42448Y26756D01*
G01X42496Y26759D01*
G01X42545Y26760D01*
G01X42596Y26759D01*
G01X42647Y26755D01*
G01X42697Y26749D01*
G01X42748Y26741D01*
G01X42798Y26730D01*
G01X42847Y26718D01*
G01X42896Y26703D01*
G01X42944Y26685D01*
G01X42962Y26680D01*
G01X42981Y26679D01*
G01X42997Y26680D01*
G01X43012Y26684D01*
G01X43027Y26690D01*
G01X43040Y26698D01*
G01X43053Y26708D01*
G01X43851Y27506D01*
G01X43861Y27518D01*
G01X43869Y27532D01*
G01X43875Y27546D01*
G01X43879Y27562D01*
G01X43880Y27578D01*
G01X43880Y28737D01*
G01X43879Y28752D01*
G01X43876Y28766D01*
G01X43871Y28779D01*
G01X43864Y28792D01*
G01X43855Y28804D01*
G01X43845Y28814D01*
G01X43821Y28830D01*
G01X43807Y28835D01*
G01X43793Y28838D01*
G37*

%LPC*%
G36*
G01X35230Y24145D02*
G01X35043Y24145D01*
G01X35020Y24144D01*
G01X34996Y24141D01*
G01X34973Y24135D01*
G01X34951Y24127D01*
G01X34929Y24118D01*
G01X34908Y24107D01*
G01X34889Y24093D01*
G01X34871Y24078D01*
G01X34854Y24061D01*
G01X34839Y24043D01*
G01X34825Y24023D01*
G01X34814Y24003D01*
G01X34804Y23981D01*
G01X34797Y23959D01*
G01X34791Y23935D01*
G01X34788Y23912D01*
G01X34787Y23889D01*
G01X34787Y23565D01*
G01X35230Y23565D01*
G01X35230Y24145D01*
G37*
G36*
G01X36570Y23754D02*
G01X36570Y24277D01*
G01X36525Y24253D01*
G01X36481Y24228D01*
G01X36437Y24200D01*
G01X36396Y24170D01*
G01X36355Y24139D01*
G01X36316Y24106D01*
G01X36305Y24097D01*
G01X36292Y24090D01*
G01X36278Y24085D01*
G01X36264Y24081D01*
G01X36249Y24080D01*
G01X36234Y24082D01*
G01X36218Y24085D01*
G01X36204Y24091D01*
G01X36190Y24099D01*
G01X36169Y24113D01*
G01X36145Y24124D01*
G01X36121Y24133D01*
G01X36095Y24140D01*
G01X36070Y24144D01*
G01X36044Y24145D01*
G01X35857Y24145D01*
G01X35857Y23747D01*
G01X35875Y23752D01*
G01X35895Y23754D01*
G01X36570Y23754D01*
G37*
G36*
G01X37685Y24229D02*
G01X37597Y24277D01*
G01X37597Y23754D01*
G01X38120Y23754D01*
G01X38072Y23842D01*
G01X38045Y23884D01*
G01X38016Y23925D01*
G01X37985Y23965D01*
G01X37953Y24004D01*
G01X37919Y24041D01*
G01X37884Y24076D01*
G01X37847Y24110D01*
G01X37808Y24142D01*
G01X37768Y24173D01*
G01X37727Y24202D01*
G01X37685Y24229D01*
G37*
G36*
G01X38120Y26791D02*
G01X37597Y26791D01*
G01X37597Y26268D01*
G01X37685Y26316D01*
G01X37727Y26343D01*
G01X37768Y26372D01*
G01X37808Y26403D01*
G01X37847Y26435D01*
G01X37884Y26469D01*
G01X37919Y26504D01*
G01X37953Y26541D01*
G01X37985Y26580D01*
G01X38016Y26620D01*
G01X38045Y26661D01*
G01X38072Y26703D01*
G01X38120Y26791D01*
G37*
G36*
G01X35875Y26793D02*
G01X35857Y26798D01*
G01X35857Y26273D01*
G01X36044Y26273D01*
G01X36069Y26274D01*
G01X36094Y26278D01*
G01X36118Y26284D01*
G01X36142Y26293D01*
G01X36165Y26304D01*
G01X36187Y26316D01*
G01X36207Y26332D01*
G01X36225Y26349D01*
G01X36243Y26368D01*
G01X36253Y26378D01*
G01X36265Y26388D01*
G01X36278Y26395D01*
G01X36292Y26401D01*
G01X36306Y26404D01*
G01X36322Y26405D01*
G01X36338Y26404D01*
G01X36354Y26400D01*
G01X36369Y26393D01*
G01X36383Y26385D01*
G01X36428Y26352D01*
G01X36474Y26322D01*
G01X36521Y26294D01*
G01X36570Y26268D01*
G01X36570Y26791D01*
G01X35895Y26791D01*
G01X35875Y26793D01*
G37*

%LPD*%
G36*
G01X26272Y13982D02*
G01X26177Y13982D01*
G01X26162Y13981D01*
G01X26148Y13978D01*
G01X26135Y13973D01*
G01X26122Y13965D01*
G01X26110Y13957D01*
G01X26100Y13947D01*
G01X26091Y13935D01*
G01X26084Y13922D01*
G01X26079Y13909D01*
G01X26076Y13895D01*
G01X26075Y13880D01*
G01X26075Y13543D01*
G01X25677Y13543D01*
G01X25662Y13542D01*
G01X25648Y13539D01*
G01X25634Y13534D01*
G01X25621Y13527D01*
G01X25610Y13518D01*
G01X25600Y13508D01*
G01X25591Y13496D01*
G01X25584Y13483D01*
G01X25579Y13470D01*
G01X25576Y13455D01*
G01X25575Y13441D01*
G01X25575Y12618D01*
G01X25576Y12604D01*
G01X25579Y12590D01*
G01X25584Y12576D01*
G01X25591Y12563D01*
G01X25600Y12552D01*
G01X25610Y12542D01*
G01X25621Y12533D01*
G01X25634Y12526D01*
G01X25648Y12521D01*
G01X25662Y12518D01*
G01X25677Y12517D01*
G01X26075Y12517D01*
G01X26075Y11914D01*
G01X26059Y11916D01*
G01X26045Y11915D01*
G01X26030Y11912D01*
G01X26017Y11907D01*
G01X26004Y11899D01*
G01X25992Y11891D01*
G01X25982Y11881D01*
G01X25974Y11869D01*
G01X25966Y11856D01*
G01X25961Y11843D01*
G01X25958Y11828D01*
G01X25957Y11814D01*
G01X25959Y11797D01*
G01X25964Y11752D01*
G01X25966Y11706D01*
G01X25965Y11672D01*
G01X25962Y11639D01*
G01X25957Y11605D01*
G01X25950Y11572D01*
G01X25941Y11539D01*
G01X25930Y11507D01*
G01X25917Y11476D01*
G01X25902Y11445D01*
G01X25885Y11416D01*
G01X25867Y11387D01*
G01X25847Y11360D01*
G01X25825Y11334D01*
G01X25802Y11309D01*
G01X25777Y11286D01*
G01X25751Y11264D01*
G01X25724Y11244D01*
G01X25695Y11226D01*
G01X25666Y11209D01*
G01X25635Y11194D01*
G01X25604Y11181D01*
G01X25572Y11170D01*
G01X25539Y11161D01*
G01X25506Y11154D01*
G01X25472Y11149D01*
G01X25439Y11146D01*
G01X25405Y11145D01*
G01X25370Y11146D01*
G01X25336Y11149D01*
G01X25302Y11154D01*
G01X25268Y11162D01*
G01X25235Y11171D01*
G01X25203Y11182D01*
G01X25171Y11195D01*
G01X25141Y11211D01*
G01X25111Y11228D01*
G01X25082Y11247D01*
G01X25055Y11267D01*
G01X25029Y11289D01*
G01X25004Y11313D01*
G01X24980Y11339D01*
G01X24959Y11365D01*
G01X24939Y11393D01*
G01X24920Y11422D01*
G01X24904Y11452D01*
G01X24889Y11483D01*
G01X24877Y11515D01*
G01X24866Y11548D01*
G01X24857Y11581D01*
G01X24850Y11614D01*
G01X24846Y11648D01*
G01X24844Y11683D01*
G01X24842Y11698D01*
G01X24838Y11712D01*
G01X24832Y11726D01*
G01X24824Y11739D01*
G01X24814Y11751D01*
G01X24745Y11819D01*
G01X24725Y11841D01*
G01X24707Y11864D01*
G01X24690Y11889D01*
G01X24675Y11915D01*
G01X24662Y11942D01*
G01X24652Y11970D01*
G01X24644Y11998D01*
G01X24638Y12015D01*
G01X24629Y12030D01*
G01X24618Y12044D01*
G01X24595Y12070D01*
G01X24573Y12098D01*
G01X24553Y12126D01*
G01X24535Y12155D01*
G01X24519Y12186D01*
G01X24504Y12218D01*
G01X24492Y12251D01*
G01X24482Y12284D01*
G01X24476Y12298D01*
G01X24470Y12311D01*
G01X24461Y12323D01*
G01X24451Y12334D01*
G01X24439Y12343D01*
G01X24426Y12350D01*
G01X24412Y12355D01*
G01X24398Y12358D01*
G01X24384Y12359D01*
G01X24369Y12358D01*
G01X24355Y12355D01*
G01X24341Y12350D01*
G01X24328Y12343D01*
G01X24316Y12334D01*
G01X24306Y12323D01*
G01X24297Y12311D01*
G01X24291Y12298D01*
G01X24285Y12284D01*
G01X24276Y12252D01*
G01X24264Y12220D01*
G01X24250Y12190D01*
G01X24235Y12160D01*
G01X24217Y12131D01*
G01X24199Y12103D01*
G01X24178Y12077D01*
G01X24155Y12051D01*
G01X24132Y12027D01*
G01X24107Y12005D01*
G01X24080Y11984D01*
G01X24053Y11964D01*
G01X24041Y11956D01*
G01X24031Y11946D01*
G01X24022Y11934D01*
G01X24016Y11921D01*
G01X24011Y11908D01*
G01X24008Y11894D01*
G01X24007Y11880D01*
G01X24008Y11864D01*
G01X24012Y11848D01*
G01X24018Y11833D01*
G01X24026Y11820D01*
G01X24037Y11808D01*
G01X27219Y8625D01*
G01X27231Y8615D01*
G01X27245Y8607D01*
G01X27259Y8600D01*
G01X27275Y8596D01*
G01X27291Y8595D01*
G01X30294Y8595D01*
G01X30308Y8596D01*
G01X30323Y8599D01*
G01X30336Y8605D01*
G01X30349Y8612D01*
G01X30361Y8620D01*
G01X30371Y8630D01*
G01X30379Y8642D01*
G01X30387Y8655D01*
G01X30392Y8669D01*
G01X30395Y8682D01*
G01X30396Y8697D01*
G01X30394Y8713D01*
G01X30391Y8728D01*
G01X30385Y8743D01*
G01X30376Y8757D01*
G01X30366Y8769D01*
G01X30087Y9046D01*
G01X30075Y9057D01*
G01X30062Y9065D01*
G01X30047Y9071D01*
G01X30031Y9075D01*
G01X30016Y9076D01*
G01X29999Y9075D01*
G01X29982Y9070D01*
G01X29936Y9056D01*
G01X29889Y9043D01*
G01X29841Y9033D01*
G01X29793Y9025D01*
G01X29745Y9019D01*
G01X29696Y9015D01*
G01X29647Y9014D01*
G01X29602Y9015D01*
G01X29556Y9018D01*
G01X29511Y9023D01*
G01X29466Y9030D01*
G01X29421Y9039D01*
G01X29377Y9051D01*
G01X29333Y9064D01*
G01X29290Y9079D01*
G01X29247Y9096D01*
G01X29205Y9115D01*
G01X29165Y9135D01*
G01X29125Y9158D01*
G01X29087Y9183D01*
G01X29049Y9209D01*
G01X29012Y9236D01*
G01X28977Y9265D01*
G01X28944Y9296D01*
G01X28911Y9328D01*
G01X28880Y9362D01*
G01X28851Y9398D01*
G01X28823Y9434D01*
G01X28798Y9471D01*
G01X28773Y9510D01*
G01X28751Y9550D01*
G01X28730Y9591D01*
G01X28711Y9632D01*
G01X28694Y9674D01*
G01X28679Y9718D01*
G01X28665Y9762D01*
G01X28654Y9806D01*
G01X28645Y9851D01*
G01X28638Y9896D01*
G01X28633Y9941D01*
G01X28630Y9987D01*
G01X28629Y10033D01*
G01X28630Y10078D01*
G01X28633Y10124D01*
G01X28638Y10169D01*
G01X28645Y10214D01*
G01X28654Y10259D01*
G01X28665Y10303D01*
G01X28679Y10347D01*
G01X28694Y10391D01*
G01X28711Y10433D01*
G01X28730Y10474D01*
G01X28751Y10515D01*
G01X28773Y10555D01*
G01X28798Y10594D01*
G01X28823Y10631D01*
G01X28851Y10668D01*
G01X28880Y10703D01*
G01X28911Y10737D01*
G01X28944Y10769D01*
G01X28977Y10800D01*
G01X29012Y10829D01*
G01X29049Y10856D01*
G01X29087Y10882D01*
G01X29125Y10907D01*
G01X29165Y10930D01*
G01X29205Y10950D01*
G01X29247Y10969D01*
G01X29290Y10986D01*
G01X29333Y11001D01*
G01X29377Y11014D01*
G01X29421Y11026D01*
G01X29466Y11035D01*
G01X29511Y11042D01*
G01X29556Y11047D01*
G01X29602Y11050D01*
G01X29647Y11051D01*
G01X29693Y11050D01*
G01X29739Y11047D01*
G01X29784Y11042D01*
G01X29829Y11035D01*
G01X29874Y11026D01*
G01X29919Y11014D01*
G01X29962Y11001D01*
G01X30006Y10986D01*
G01X30048Y10969D01*
G01X30089Y10950D01*
G01X30130Y10930D01*
G01X30170Y10907D01*
G01X30209Y10882D01*
G01X30246Y10856D01*
G01X30282Y10829D01*
G01X30317Y10800D01*
G01X30351Y10769D01*
G01X30383Y10737D01*
G01X30414Y10703D01*
G01X30444Y10668D01*
G01X30498Y10594D01*
G01X30522Y10555D01*
G01X30545Y10515D01*
G01X30565Y10474D01*
G01X30584Y10433D01*
G01X30601Y10391D01*
G01X30616Y10347D01*
G01X30629Y10303D01*
G01X30641Y10259D01*
G01X30650Y10214D01*
G01X30657Y10169D01*
G01X30662Y10124D01*
G01X30665Y10078D01*
G01X30666Y10033D01*
G01X30665Y9984D01*
G01X30661Y9935D01*
G01X30656Y9887D01*
G01X30648Y9839D01*
G01X30637Y9792D01*
G01X30625Y9745D01*
G01X30610Y9699D01*
G01X30605Y9682D01*
G01X30604Y9665D01*
G01X30605Y9649D01*
G01X30609Y9634D01*
G01X30615Y9619D01*
G01X30624Y9605D01*
G01X30634Y9593D01*
G01X30846Y9382D01*
G01X30858Y9372D01*
G01X30872Y9363D01*
G01X30886Y9357D01*
G01X30902Y9353D01*
G01X30917Y9352D01*
G01X32685Y9352D01*
G01X32700Y9353D01*
G01X32714Y9356D01*
G01X32727Y9361D01*
G01X32740Y9369D01*
G01X32752Y9377D01*
G01X32762Y9387D01*
G01X32771Y9399D01*
G01X32778Y9412D01*
G01X32783Y9425D01*
G01X32786Y9439D01*
G01X32787Y9454D01*
G01X32787Y10808D01*
G01X32788Y10831D01*
G01X32791Y10854D01*
G01X32797Y10878D01*
G01X32804Y10900D01*
G01X32814Y10922D01*
G01X32825Y10942D01*
G01X32839Y10962D01*
G01X32854Y10980D01*
G01X32871Y10997D01*
G01X32889Y11012D01*
G01X32908Y11026D01*
G01X32929Y11037D01*
G01X32951Y11046D01*
G01X32973Y11054D01*
G01X32996Y11060D01*
G01X33020Y11063D01*
G01X33043Y11064D01*
G01X34044Y11064D01*
G01X34067Y11063D01*
G01X34091Y11060D01*
G01X34114Y11054D01*
G01X34136Y11046D01*
G01X34158Y11037D01*
G01X34179Y11026D01*
G01X34198Y11012D01*
G01X34216Y10997D01*
G01X34233Y10980D01*
G01X34248Y10962D01*
G01X34262Y10942D01*
G01X34273Y10922D01*
G01X34283Y10900D01*
G01X34290Y10878D01*
G01X34296Y10854D01*
G01X34299Y10831D01*
G01X34300Y10808D01*
G01X34300Y9257D01*
G01X34299Y9234D01*
G01X34296Y9211D01*
G01X34290Y9187D01*
G01X34283Y9165D01*
G01X34273Y9143D01*
G01X34262Y9123D01*
G01X34248Y9103D01*
G01X34233Y9085D01*
G01X34216Y9068D01*
G01X34198Y9053D01*
G01X34179Y9039D01*
G01X34158Y9028D01*
G01X34136Y9019D01*
G01X34114Y9011D01*
G01X34091Y9005D01*
G01X34067Y9002D01*
G01X34044Y9001D01*
G01X34026Y9001D01*
G01X34012Y9000D01*
G01X33997Y8997D01*
G01X33984Y8992D01*
G01X33971Y8984D01*
G01X33960Y8976D01*
G01X33949Y8966D01*
G01X33941Y8954D01*
G01X33934Y8941D01*
G01X33929Y8928D01*
G01X33926Y8913D01*
G01X33921Y8885D01*
G01X33914Y8857D01*
G01X33904Y8830D01*
G01X33893Y8803D01*
G01X33881Y8777D01*
G01X33865Y8753D01*
G01X33858Y8740D01*
G01X33853Y8726D01*
G01X33850Y8712D01*
G01X33849Y8697D01*
G01X33850Y8682D01*
G01X33853Y8669D01*
G01X33858Y8655D01*
G01X33865Y8642D01*
G01X33873Y8630D01*
G01X33884Y8620D01*
G01X33895Y8612D01*
G01X33908Y8605D01*
G01X33922Y8599D01*
G01X33936Y8596D01*
G01X33950Y8595D01*
G01X46173Y8595D01*
G01X46188Y8596D01*
G01X46204Y8600D01*
G01X46219Y8607D01*
G01X46232Y8615D01*
G01X46244Y8625D01*
G01X49353Y11736D01*
G01X49363Y11748D01*
G01X49372Y11762D01*
G01X49378Y11776D01*
G01X49382Y11792D01*
G01X49383Y11808D01*
G01X49382Y11822D01*
G01X49379Y11836D01*
G01X49374Y11850D01*
G01X49367Y11863D01*
G01X49358Y11875D01*
G01X49348Y11885D01*
G01X49336Y11893D01*
G01X49324Y11900D01*
G01X49310Y11905D01*
G01X49296Y11909D01*
G01X49282Y11910D01*
G01X49188Y11910D01*
G01X49164Y11911D01*
G01X49140Y11914D01*
G01X49118Y11919D01*
G01X49095Y11927D01*
G01X49073Y11936D01*
G01X49052Y11948D01*
G01X49033Y11961D01*
G01X49015Y11977D01*
G01X48998Y11993D01*
G01X48983Y12012D01*
G01X48969Y12031D01*
G01X48958Y12052D01*
G01X48948Y12074D01*
G01X48941Y12096D01*
G01X48935Y12119D01*
G01X48932Y12142D01*
G01X48931Y12166D01*
G01X48931Y13633D01*
G01X48930Y13647D01*
G01X48927Y13661D01*
G01X48922Y13675D01*
G01X48915Y13688D01*
G01X48906Y13699D01*
G01X48896Y13709D01*
G01X48884Y13718D01*
G01X48872Y13725D01*
G01X48858Y13730D01*
G01X48844Y13733D01*
G01X48829Y13734D01*
G01X48814Y13733D01*
G01X48799Y13729D01*
G01X48785Y13724D01*
G01X48758Y13712D01*
G01X48730Y13702D01*
G01X48702Y13695D01*
G01X48674Y13689D01*
G01X48645Y13686D01*
G01X48615Y13685D01*
G01X43753Y13685D01*
G01X43738Y13683D01*
G01X43724Y13680D01*
G01X43710Y13675D01*
G01X43698Y13668D01*
G01X43686Y13660D01*
G01X43676Y13649D01*
G01X43667Y13638D01*
G01X43660Y13625D01*
G01X43655Y13611D01*
G01X43652Y13598D01*
G01X43651Y13583D01*
G01X43651Y12166D01*
G01X43650Y12142D01*
G01X43647Y12119D01*
G01X43641Y12096D01*
G01X43634Y12074D01*
G01X43624Y12052D01*
G01X43613Y12031D01*
G01X43599Y12012D01*
G01X43584Y11993D01*
G01X43567Y11977D01*
G01X43549Y11961D01*
G01X43530Y11948D01*
G01X43509Y11936D01*
G01X43487Y11927D01*
G01X43464Y11919D01*
G01X43442Y11914D01*
G01X43418Y11911D01*
G01X43394Y11910D01*
G01X41695Y11910D01*
G01X41671Y11911D01*
G01X41647Y11914D01*
G01X41625Y11919D01*
G01X41602Y11927D01*
G01X41580Y11936D01*
G01X41559Y11948D01*
G01X41540Y11961D01*
G01X41522Y11977D01*
G01X41505Y11993D01*
G01X41490Y12012D01*
G01X41476Y12031D01*
G01X41465Y12052D01*
G01X41455Y12074D01*
G01X41448Y12096D01*
G01X41442Y12119D01*
G01X41439Y12142D01*
G01X41438Y12166D01*
G01X41438Y13248D01*
G01X41437Y13262D01*
G01X41434Y13277D01*
G01X41429Y13290D01*
G01X41422Y13302D01*
G01X41413Y13314D01*
G01X41403Y13325D01*
G01X41391Y13333D01*
G01X41379Y13340D01*
G01X41365Y13345D01*
G01X41351Y13348D01*
G01X41336Y13349D01*
G01X41320Y13348D01*
G01X41305Y13345D01*
G01X41290Y13339D01*
G01X41277Y13330D01*
G01X41264Y13320D01*
G01X40176Y12233D01*
G01X40154Y12212D01*
G01X40130Y12194D01*
G01X40105Y12177D01*
G01X40078Y12162D01*
G01X40051Y12149D01*
G01X40022Y12139D01*
G01X39993Y12131D01*
G01X39963Y12124D01*
G01X39933Y12121D01*
G01X39903Y12120D01*
G01X29662Y12120D01*
G01X29631Y12121D01*
G01X29601Y12124D01*
G01X29571Y12131D01*
G01X29542Y12139D01*
G01X29514Y12149D01*
G01X29486Y12162D01*
G01X29459Y12177D01*
G01X29435Y12194D01*
G01X29411Y12212D01*
G01X29388Y12233D01*
G01X28288Y13333D01*
G01X28276Y13343D01*
G01X28263Y13352D01*
G01X28248Y13358D01*
G01X28233Y13361D01*
G01X28217Y13363D01*
G01X28202Y13361D01*
G01X28188Y13358D01*
G01X28174Y13353D01*
G01X28161Y13347D01*
G01X28150Y13338D01*
G01X28140Y13328D01*
G01X28131Y13316D01*
G01X28124Y13304D01*
G01X28119Y13290D01*
G01X28116Y13276D01*
G01X28115Y13261D01*
G01X28115Y12431D01*
G01X28114Y12397D01*
G01X28111Y12364D01*
G01X28106Y12330D01*
G01X28099Y12298D01*
G01X28090Y12265D01*
G01X28079Y12233D01*
G01X28066Y12202D01*
G01X28051Y12172D01*
G01X28035Y12143D01*
G01X28017Y12115D01*
G01X27996Y12087D01*
G01X27975Y12061D01*
G01X27952Y12037D01*
G01X27927Y12014D01*
G01X27902Y11993D01*
G01X27874Y11973D01*
G01X27847Y11954D01*
G01X27817Y11938D01*
G01X27787Y11923D01*
G01X27756Y11911D01*
G01X27724Y11899D01*
G01X27692Y11890D01*
G01X27659Y11883D01*
G01X27626Y11878D01*
G01X27592Y11875D01*
G01X27559Y11874D01*
G01X27524Y11875D01*
G01X27489Y11879D01*
G01X27455Y11884D01*
G01X27422Y11891D01*
G01X27388Y11901D01*
G01X27356Y11913D01*
G01X27324Y11926D01*
G01X27293Y11942D01*
G01X27263Y11959D01*
G01X27234Y11978D01*
G01X27207Y11999D01*
G01X27181Y12022D01*
G01X27156Y12046D01*
G01X27133Y12072D01*
G01X27111Y12099D01*
G01X27092Y12127D01*
G01X27074Y12157D01*
G01X27058Y12187D01*
G01X27044Y12219D01*
G01X27032Y12251D01*
G01X27022Y12284D01*
G01X27016Y12298D01*
G01X27010Y12311D01*
G01X27001Y12323D01*
G01X26991Y12334D01*
G01X26979Y12343D01*
G01X26966Y12350D01*
G01X26952Y12355D01*
G01X26938Y12358D01*
G01X26924Y12359D01*
G01X26909Y12358D01*
G01X26895Y12355D01*
G01X26881Y12350D01*
G01X26868Y12343D01*
G01X26856Y12334D01*
G01X26846Y12323D01*
G01X26837Y12311D01*
G01X26831Y12298D01*
G01X26825Y12284D01*
G01X26816Y12252D01*
G01X26804Y12220D01*
G01X26790Y12189D01*
G01X26775Y12159D01*
G01X26757Y12131D01*
G01X26738Y12103D01*
G01X26717Y12076D01*
G01X26695Y12051D01*
G01X26671Y12026D01*
G01X26646Y12004D01*
G01X26619Y11983D01*
G01X26592Y11964D01*
G01X26563Y11947D01*
G01X26533Y11931D01*
G01X26502Y11917D01*
G01X26502Y12517D01*
G01X26900Y12517D01*
G01X26915Y12518D01*
G01X26929Y12521D01*
G01X26943Y12526D01*
G01X26956Y12533D01*
G01X26967Y12542D01*
G01X26977Y12552D01*
G01X26986Y12563D01*
G01X26993Y12576D01*
G01X26998Y12590D01*
G01X27001Y12604D01*
G01X27002Y12618D01*
G01X27002Y13252D01*
G01X27001Y13267D01*
G01X26997Y13283D01*
G01X26991Y13297D01*
G01X26982Y13311D01*
G01X26972Y13323D01*
G01X26783Y13513D01*
G01X26771Y13523D01*
G01X26757Y13532D01*
G01X26742Y13538D01*
G01X26727Y13541D01*
G01X26711Y13543D01*
G01X26502Y13543D01*
G01X26502Y13752D01*
G01X26501Y13767D01*
G01X26497Y13783D01*
G01X26491Y13798D01*
G01X26483Y13811D01*
G01X26472Y13823D01*
G01X26343Y13952D01*
G01X26332Y13962D01*
G01X26318Y13971D01*
G01X26303Y13977D01*
G01X26287Y13981D01*
G01X26272Y13982D01*
G37*

%LPC*%
G36*
G01X36300Y9581D02*
G01X35857Y9581D01*
G01X35857Y9001D01*
G01X36044Y9001D01*
G01X36067Y9002D01*
G01X36091Y9005D01*
G01X36114Y9011D01*
G01X36136Y9019D01*
G01X36158Y9028D01*
G01X36179Y9039D01*
G01X36198Y9053D01*
G01X36216Y9068D01*
G01X36233Y9085D01*
G01X36248Y9103D01*
G01X36262Y9123D01*
G01X36273Y9143D01*
G01X36283Y9165D01*
G01X36290Y9187D01*
G01X36296Y9211D01*
G01X36299Y9234D01*
G01X36300Y9257D01*
G01X36300Y9581D01*
G37*
G36*
G01X35230Y9581D02*
G01X34787Y9581D01*
G01X34787Y9257D01*
G01X34788Y9234D01*
G01X34791Y9211D01*
G01X34797Y9187D01*
G01X34804Y9165D01*
G01X34814Y9143D01*
G01X34825Y9123D01*
G01X34839Y9103D01*
G01X34854Y9085D01*
G01X34871Y9068D01*
G01X34889Y9053D01*
G01X34908Y9039D01*
G01X34929Y9028D01*
G01X34951Y9019D01*
G01X34973Y9011D01*
G01X34996Y9005D01*
G01X35020Y9002D01*
G01X35043Y9001D01*
G01X35230Y9001D01*
G01X35230Y9581D01*
G37*
G36*
G01X40864Y9588D02*
G01X40392Y9588D01*
G01X40392Y9116D01*
G01X40435Y9138D01*
G01X40477Y9163D01*
G01X40518Y9189D01*
G01X40558Y9217D01*
G01X40596Y9247D01*
G01X40632Y9279D01*
G01X40668Y9312D01*
G01X40701Y9347D01*
G01X40733Y9384D01*
G01X40763Y9422D01*
G01X40791Y9462D01*
G01X40817Y9503D01*
G01X40842Y9545D01*
G01X40864Y9588D01*
G37*
G36*
G01X39503Y9588D02*
G01X39031Y9588D01*
G01X39054Y9545D01*
G01X39077Y9503D01*
G01X39104Y9462D01*
G01X39132Y9422D01*
G01X39162Y9384D01*
G01X39194Y9347D01*
G01X39227Y9312D01*
G01X39262Y9279D01*
G01X39299Y9247D01*
G01X39337Y9217D01*
G01X39377Y9189D01*
G01X39418Y9163D01*
G01X39460Y9138D01*
G01X39503Y9116D01*
G01X39503Y9588D01*
G37*
G36*
G01X40435Y10927D02*
G01X40392Y10949D01*
G01X40392Y10477D01*
G01X40864Y10477D01*
G01X40842Y10520D01*
G01X40817Y10562D01*
G01X40791Y10603D01*
G01X40763Y10643D01*
G01X40733Y10681D01*
G01X40701Y10718D01*
G01X40668Y10753D01*
G01X40632Y10786D01*
G01X40596Y10818D01*
G01X40558Y10848D01*
G01X40518Y10876D01*
G01X40477Y10902D01*
G01X40435Y10927D01*
G37*
G36*
G01X39503Y10477D02*
G01X39503Y10949D01*
G01X39460Y10927D01*
G01X39418Y10902D01*
G01X39377Y10876D01*
G01X39337Y10848D01*
G01X39299Y10818D01*
G01X39262Y10786D01*
G01X39227Y10753D01*
G01X39194Y10718D01*
G01X39162Y10681D01*
G01X39132Y10643D01*
G01X39104Y10603D01*
G01X39077Y10562D01*
G01X39054Y10520D01*
G01X39031Y10477D01*
G01X39503Y10477D01*
G37*
G36*
G01X36044Y11064D02*
G01X35857Y11064D01*
G01X35857Y10484D01*
G01X36300Y10484D01*
G01X36300Y10808D01*
G01X36299Y10831D01*
G01X36296Y10854D01*
G01X36290Y10878D01*
G01X36283Y10900D01*
G01X36273Y10922D01*
G01X36262Y10942D01*
G01X36248Y10962D01*
G01X36233Y10980D01*
G01X36216Y10997D01*
G01X36198Y11012D01*
G01X36179Y11026D01*
G01X36158Y11037D01*
G01X36136Y11046D01*
G01X36114Y11054D01*
G01X36091Y11060D01*
G01X36067Y11063D01*
G01X36044Y11064D01*
G37*
G36*
G01X35230Y11064D02*
G01X35043Y11064D01*
G01X35020Y11063D01*
G01X34996Y11060D01*
G01X34973Y11054D01*
G01X34951Y11046D01*
G01X34929Y11037D01*
G01X34908Y11026D01*
G01X34889Y11012D01*
G01X34871Y10997D01*
G01X34854Y10980D01*
G01X34839Y10962D01*
G01X34825Y10942D01*
G01X34814Y10922D01*
G01X34804Y10900D01*
G01X34797Y10878D01*
G01X34791Y10854D01*
G01X34788Y10831D01*
G01X34787Y10808D01*
G01X34787Y10484D01*
G01X35230Y10484D01*
G01X35230Y11064D01*
G37*

%LPD*%
G54D11*
G01X33543Y27305D02*
G01X33543Y26238D01*
G01X32004Y27038D02*
G01X28569Y27038D01*
G01X27940Y26408D01*
G01X32004Y27305D02*
G01X32004Y27038D01*
G01X32004Y27038D02*
G01X32804Y26238D01*
G01X33543Y26238D01*
G01X29646Y31877D02*
G01X30716Y30810D01*
G01X33543Y30810D01*
G01X33543Y31877D02*
G01X33543Y30810D01*
G01X25717Y30797D02*
G01X25082Y30797D01*
G01X25717Y31689D02*
G01X25717Y30797D01*
G01X25082Y31689D02*
G01X25082Y31244D01*
G01X25082Y31244D02*
G01X25082Y30797D01*
G01X23177Y31689D02*
G01X23177Y32136D01*
G01X22542Y31689D02*
G01X22542Y32583D01*
G01X23177Y32359D02*
G01X23177Y32583D01*
G01X23177Y32136D02*
G01X23177Y32359D01*
G01X23177Y32359D02*
G01X22953Y32583D01*
G01X22542Y32583D01*
G01X25082Y31244D02*
G01X25410Y31569D01*
G01X25410Y32580D01*
G01X25333Y32656D01*
G01X23416Y32656D01*
G01X23342Y32583D01*
G01X23177Y32583D01*
G01X39806Y43053D02*
G01X38983Y43875D01*
G01X34714Y43875D01*
G01X34714Y42809D02*
G01X34714Y43875D01*
G01X19367Y32583D02*
G01X18295Y33652D01*
G01X18295Y37645D01*
G01X23327Y42674D01*
G01X32989Y42674D01*
G01X33921Y41742D01*
G01X34714Y41742D01*
G01X19367Y31689D02*
G01X19367Y32583D01*
G01X34714Y42809D02*
G01X34714Y41742D01*
G01X50109Y43053D02*
G01X48795Y41742D01*
G01X36715Y41742D01*
G01X36715Y42809D02*
G01X36715Y41742D01*
G01X50109Y39116D02*
G01X48986Y37993D01*
G01X37175Y37993D01*
G01X36687Y38481D01*
G01X50038Y12954D02*
G01X50038Y11874D01*
G01X21907Y30797D02*
G01X22242Y30797D01*
G01X23289Y29751D01*
G01X21907Y31689D02*
G01X21907Y30797D01*
G01X23030Y11846D02*
G01X22479Y12397D01*
G01X22479Y13030D01*
G01X50038Y11874D02*
G01X46375Y8209D01*
G01X27089Y8209D01*
G01X22479Y12819D01*
G01X22479Y13030D01*
G01X21485Y27995D02*
G01X21272Y28209D01*
G01X21272Y31689D01*
G01X21209Y13030D02*
G01X21209Y14127D01*
G01X21485Y14401D01*
G01X21485Y14401D02*
G01X22212Y15128D01*
G01X27040Y15128D01*
G01X29662Y12506D01*
G01X39903Y12506D01*
G01X41470Y14071D01*
G01X48615Y14071D01*
G01X50038Y15494D01*
G01X33543Y23114D02*
G01X33543Y24180D01*
G01X22542Y36890D02*
G01X22542Y35996D01*
G01X32004Y23241D02*
G01X32004Y24180D01*
G01X33543Y24180D02*
G01X32004Y24180D01*
G01X32004Y24180D02*
G01X29166Y24180D01*
G01X27940Y25407D01*
G01X22479Y18973D02*
G01X22479Y19283D01*
G01X26436Y23241D01*
G01X32004Y23241D01*
G01X42545Y28194D02*
G01X42077Y28661D01*
G01X35148Y28661D01*
G01X34340Y27853D01*
G01X34340Y24978D01*
G01X33543Y24180D01*
G01X42545Y28194D02*
G01X43703Y29352D01*
G01X43703Y33799D01*
G01X42915Y34589D01*
G01X23949Y34589D01*
G01X22542Y35996D01*
G01X19367Y36890D02*
G01X19367Y35996D01*
G01X17894Y13139D02*
G01X18559Y13139D01*
G01X18669Y13030D01*
G01X22943Y33627D02*
G01X21175Y33627D01*
G01X19367Y35435D01*
G01X19367Y35996D01*
G01X42545Y30734D02*
G01X42545Y30866D01*
G01X39872Y33538D01*
G01X23032Y33538D01*
G01X22943Y33627D01*
G01X20002Y36890D02*
G01X20002Y35996D01*
G01X13139Y21592D02*
G01X16050Y21592D01*
G01X18669Y18973D01*
G01X21384Y34267D02*
G01X21247Y34267D01*
G01X20002Y35511D01*
G01X20002Y35996D01*
G01X42545Y33274D02*
G01X41859Y33959D01*
G01X23454Y33959D01*
G01X23149Y34267D01*
G01X21384Y34267D01*
G01X11633Y14097D02*
G01X11633Y12854D01*
G01X25976Y14531D02*
G01X25976Y14368D01*
G01X11633Y12854D02*
G01X12649Y11836D01*
G01X21531Y11836D01*
G01X21887Y12192D01*
G01X21887Y13954D01*
G01X22301Y14368D01*
G01X25976Y14368D01*
G01X25976Y14368D02*
G01X26474Y14368D01*
G01X27559Y13284D01*
G01X27559Y13030D01*
G01X26352Y30797D02*
G01X26535Y30614D01*
G01X26535Y27058D01*
G01X24848Y25372D01*
G01X26352Y31689D02*
G01X26352Y30797D01*
G01X23632Y30601D02*
G01X23812Y30782D01*
G01X23812Y31689D01*
G01X11633Y25146D02*
G01X11633Y23903D01*
G01X11866Y23728D02*
G01X11691Y23903D01*
G01X11633Y23903D01*
G01X25019Y13030D02*
G01X25019Y12092D01*
G01X25405Y11706D01*
G01X16433Y26527D02*
G01X16433Y27266D01*
G01X15633Y28067D01*
G01X15367Y28067D01*
G01X15367Y26527D02*
G01X16433Y26527D01*
G01X21209Y35181D02*
G01X20637Y35755D01*
G01X20637Y36890D01*
G01X29646Y10033D02*
G01X30716Y8966D01*
G01X33543Y8966D01*
G01X33543Y10033D02*
G01X33543Y8966D01*
G01X24541Y35786D02*
G01X24447Y35877D01*
G01X24447Y36890D01*
G54D12*
G01X39949Y10033D02*
G01X38722Y8808D01*
G01X35544Y8808D01*
G01X35544Y10033D02*
G01X35544Y8808D01*
G01X24511Y41402D02*
G01X24511Y40789D01*
G01X25123Y40177D01*
G01X26050Y40177D01*
G01X26050Y41402D02*
G01X26050Y40177D01*
G01X35544Y23114D02*
G01X35544Y24338D01*
G01X35544Y27305D02*
G01X35544Y26080D01*
G01X25732Y36890D02*
G01X25717Y36890D01*
G01X24447Y30640D02*
G01X24447Y31689D01*
G01X36007Y26080D02*
G01X36007Y24338D01*
G01X37084Y27305D02*
G01X37084Y26924D01*
G01X36240Y26080D01*
G01X36007Y26080D01*
G01X36007Y26080D02*
G01X35544Y26080D01*
G01X37084Y23241D02*
G01X37084Y23515D01*
G01X36261Y24338D01*
G01X36007Y24338D01*
G01X36007Y24338D02*
G01X35544Y24338D01*
G01X35544Y10033D02*
G01X35544Y11257D01*
G01X35544Y7066D02*
G01X35697Y7218D01*
G01X43073Y7218D01*
G01X44323Y5969D01*
G01X35544Y5842D02*
G01X35544Y7066D01*
G01X35544Y11257D02*
G01X27599Y11257D01*
G01X26289Y12570D01*
G01X26289Y13030D01*
G01X3302Y16586D02*
G01X18051Y16586D01*
G01X19939Y18473D01*
G01X19939Y18973D01*
G01X25732Y36890D02*
G01X26045Y36890D01*
G01X26045Y36890D02*
G01X26352Y36890D01*
G01X26045Y35783D02*
G01X26045Y36890D01*
G01X25900Y29771D02*
G01X24447Y29771D01*
G01X24447Y30640D02*
G01X24447Y29771D01*
G01X24447Y29771D02*
G01X19939Y25262D01*
G01X19939Y18973D01*
G54D11*
G01X29646Y14224D02*
G01X30589Y13284D01*
G01X33543Y13284D01*
G01X23812Y36890D02*
G01X23812Y37782D01*
G01X33543Y13817D02*
G01X33543Y13284D01*
G01X33543Y13817D02*
G01X33543Y14351D01*
G01X25019Y18973D02*
G01X25019Y19845D01*
G01X26949Y21775D01*
G01X38668Y21775D01*
G01X42545Y25654D01*
G01X23812Y37782D02*
G01X24302Y38272D01*
G01X30126Y38272D01*
G01X30990Y37409D01*
G01X42778Y37409D01*
G01X44267Y35920D01*
G01X44267Y27376D01*
G01X42545Y25654D01*
G01X29646Y18669D02*
G01X30716Y17602D01*
G01X33543Y17602D01*
G01X33543Y18669D02*
G01X33543Y17602D01*
G01X23749Y18973D02*
G01X23749Y18674D01*
G01X24648Y17774D01*
G01X25654Y17774D01*
G01X25654Y17774D02*
G01X28755Y17774D01*
G01X29646Y18669D01*
G01X25654Y17774D02*
G01X25654Y19883D01*
G01X27124Y21353D01*
G01X40784Y21353D01*
G01X42545Y23114D01*
G01X23177Y36890D02*
G01X23177Y35996D01*
G01X23177Y35996D02*
G01X23987Y35186D01*
G01X25189Y35186D01*
G54D12*
G01X35544Y18669D02*
G01X35544Y17444D01*
G01X21907Y36890D02*
G01X21907Y35890D01*
G01X21272Y36890D02*
G01X21272Y35890D01*
G01X16591Y24526D02*
G01X16591Y23599D01*
G01X15979Y22987D01*
G01X15367Y22987D01*
G01X15367Y24526D02*
G01X16591Y24526D01*
G01X39243Y5969D02*
G01X37891Y4617D01*
G01X33543Y4617D01*
G01X33543Y5842D02*
G01X33543Y4617D01*
G01X39949Y14224D02*
G01X38849Y13126D01*
G01X35544Y13126D01*
G01X35544Y14351D02*
G01X35544Y13126D01*
G01X39949Y18669D02*
G01X39024Y17744D01*
G01X41247Y15521D02*
G01X39949Y14224D01*
G01X42545Y15494D02*
G01X41275Y15494D01*
G01X41247Y15521D01*
G01X41247Y15521D02*
G01X39024Y17744D01*
G01X39024Y17744D02*
G01X38722Y17444D01*
G01X35544Y17444D01*
G01X21897Y35740D02*
G01X21897Y35890D01*
G01X21907Y35890D02*
G01X21897Y35890D01*
G01X21897Y35890D02*
G01X21272Y35890D01*
G01X21028Y16225D02*
G01X22169Y17365D01*
G01X35544Y17444D02*
G01X34993Y16893D01*
G01X22644Y16893D01*
G01X22169Y17365D01*
G01X22169Y17365D02*
G01X21209Y18328D01*
G01X21209Y18973D01*
G54D11*
G01X20637Y31689D02*
G01X20637Y32583D01*
G01X35544Y31877D02*
G01X35544Y32943D01*
G01X50038Y30734D02*
G01X48427Y32344D01*
G01X45163Y32344D01*
G01X35544Y31877D02*
G01X35544Y30914D01*
G01X39949Y31877D02*
G01X38986Y30914D01*
G01X35544Y30914D01*
G01X35544Y32943D02*
G01X35402Y33086D01*
G01X23248Y33086D01*
G01X23192Y33030D01*
G01X21084Y33030D01*
G01X20637Y32583D01*
G01X19939Y13030D02*
G01X19939Y16035D01*
G01X20574Y16670D01*
G01X20574Y20142D01*
G01X30203Y29771D01*
G01X34401Y29771D01*
G01X35544Y30914D01*
G01X27559Y18973D02*
G01X28521Y19936D01*
G01X28895Y19936D01*
G01X28895Y19936D02*
G01X40642Y19936D01*
G01X42545Y18034D01*
G01X28895Y20327D02*
G01X28895Y19936D01*
G01X25082Y36890D02*
G01X25082Y37782D01*
G01X25082Y37782D02*
G01X25120Y37820D01*
G01X26695Y37820D01*
G01X27310Y37205D01*
G01X39806Y39116D02*
G01X39375Y39547D01*
G01X34686Y39547D01*
G01X34686Y38481D02*
G01X34686Y39547D01*
G01X28051Y41402D02*
G01X28051Y40335D01*
G01X29591Y41402D02*
G01X29591Y40378D01*
G01X28051Y40335D02*
G01X29547Y40335D01*
G01X29591Y40378D01*
G01X29591Y40378D02*
G01X33858Y40378D01*
G01X34686Y39547D01*
G01X20002Y31689D02*
G01X20002Y34203D01*
G01X18834Y35372D01*
G01X18834Y37584D01*
G01X20231Y38981D01*
G01X26697Y38981D01*
G01X28051Y40335D01*
G54D12*
G01X9196Y25146D02*
G01X9779Y24563D01*
G01X9779Y22225D01*
G01X8432Y25146D02*
G01X9196Y25146D01*
G54D13*
G01X3302Y14097D02*
G01X8432Y14097D01*
G01X3302Y25146D02*
G01X8432Y25146D01*
G54D12*
G01X9779Y3175D02*
G01X10795Y2159D01*
G01X49784Y2159D01*
G01X53721Y6096D01*
G01X53721Y21971D01*
G01X50038Y25654D01*
G54D11*
G01X26289Y18973D02*
G01X26289Y19156D01*
G01X28059Y20924D01*
G01X29141Y20924D01*
G01X29494Y20574D01*
G01X29494Y20574D01*
G01X42545Y20574D01*
G54D12*
G01X8432Y14097D02*
G01X8432Y10490D01*
G01X15748Y3175D01*
G01X49403Y3175D01*
G01X52451Y6223D01*
G01X52451Y18161D01*
G01X50038Y20574D01*
G54D14*
G01X27559Y18373D02*
G01X27559Y19573D01*
G01X26289Y18373D02*
G01X26289Y19573D01*
G01X25019Y18373D02*
G01X25019Y19573D01*
G01X23749Y18373D02*
G01X23749Y19573D01*
G01X22479Y18373D02*
G01X22479Y19573D01*
G01X21209Y18373D02*
G01X21209Y19573D01*
G01X19939Y18373D02*
G01X19939Y19573D01*
G01X18669Y18373D02*
G01X18669Y19573D01*
G01X27559Y12430D02*
G01X27559Y13630D01*
G01X26289Y12430D02*
G01X26289Y13630D01*
G01X25019Y12430D02*
G01X25019Y13630D01*
G01X23749Y12430D02*
G01X23749Y13630D01*
G01X22479Y12430D02*
G01X22479Y13630D01*
G01X21209Y12430D02*
G01X21209Y13630D01*
G01X19939Y12430D02*
G01X19939Y13630D01*
G01X18669Y12430D02*
G01X18669Y13630D01*
G54D16*
G01X33544Y31877D03*
G01X35543Y31877D03*
G01X34714Y42809D03*
G01X36714Y42809D03*
G01X34687Y38481D03*
G01X36686Y38481D03*
G36*
G01X35043Y19444D02*
G01X36043Y19444D01*
G01X36043Y17893D01*
G01X35043Y17893D01*
G01X35043Y19444D01*
G37*
G36*
G01X33044Y19444D02*
G01X34044Y19444D01*
G01X34044Y17893D01*
G01X33044Y17893D01*
G01X33044Y19444D01*
G37*
G36*
G01X35043Y15126D02*
G01X36043Y15126D01*
G01X36043Y13575D01*
G01X35043Y13575D01*
G01X35043Y15126D01*
G37*
G36*
G01X33044Y15126D02*
G01X34044Y15126D01*
G01X34044Y13575D01*
G01X33044Y13575D01*
G01X33044Y15126D01*
G37*
G36*
G01X35043Y10808D02*
G01X36043Y10808D01*
G01X36043Y9257D01*
G01X35043Y9257D01*
G01X35043Y10808D01*
G37*
G36*
G01X33044Y10808D02*
G01X34044Y10808D01*
G01X34044Y9257D01*
G01X33044Y9257D01*
G01X33044Y10808D01*
G37*
G36*
G01X33044Y6617D02*
G01X34044Y6617D01*
G01X34044Y5066D01*
G01X33044Y5066D01*
G01X33044Y6617D01*
G37*
G36*
G01X35043Y6617D02*
G01X36043Y6617D01*
G01X36043Y5066D01*
G01X35043Y5066D01*
G01X35043Y6617D01*
G37*
G01X28050Y41402D03*
G01X26051Y41402D03*
G54D17*
G01X11632Y25146D03*
G01X8432Y25146D03*
G01X11632Y14097D03*
G01X8432Y14097D03*
G36*
G01X1054Y25742D02*
G01X5549Y25742D01*
G01X5549Y24549D01*
G01X1054Y24549D01*
G01X1054Y25742D01*
G37*
G36*
G01X1054Y14693D02*
G01X5549Y14693D01*
G01X5549Y13500D01*
G01X1054Y13500D01*
G01X1054Y14693D01*
G37*
G54D19*
G01X15367Y26526D03*
G01X15367Y24527D03*
G54D16*
G01X35543Y23114D03*
G01X33544Y23114D03*
G01X35543Y27305D03*
G01X33544Y27305D03*
G54D20*
G01X19367Y31690D03*
G01X20002Y31690D03*
G01X20637Y31690D03*
G01X21272Y31690D03*
G01X21907Y31690D03*
G01X22542Y31690D03*
G01X23177Y31690D03*
G01X23812Y31690D03*
G01X24447Y31690D03*
G01X25082Y31690D03*
G01X25717Y31690D03*
G01X26352Y31690D03*
G01X26352Y36889D03*
G01X25717Y36889D03*
G01X25082Y36889D03*
G01X24447Y36889D03*
G01X23812Y36889D03*
G01X23177Y36889D03*
G01X22542Y36889D03*
G01X21907Y36889D03*
G01X21272Y36889D03*
G01X20637Y36889D03*
G01X20002Y36889D03*
G01X19367Y36889D03*
G54D21*
G01X9779Y22225D03*
G54D22*
G01X27940Y26407D03*
G01X27940Y25407D03*
G54D21*
G01X29647Y31877D03*
G01X39948Y31877D03*
G54D23*
G01X15367Y22987D03*
G01X15367Y28067D03*
G54D24*
G01X42545Y35814D03*
G01X42545Y33274D03*
G01X42545Y30734D03*
G01X42545Y28194D03*
G01X42545Y25654D03*
G01X42545Y23114D03*
G01X42545Y20574D03*
G01X42545Y18034D03*
G01X42545Y15494D03*
G54D25*
G01X42545Y12954D03*
G54D24*
G01X50038Y35814D03*
G01X50038Y33274D03*
G01X50038Y30734D03*
G01X50038Y28194D03*
G01X50038Y25654D03*
G01X50038Y23114D03*
G01X50038Y20574D03*
G01X50038Y18034D03*
G01X50038Y15494D03*
G54D25*
G01X50038Y12954D03*
G36*
G01X1054Y23418D02*
G01X5549Y23418D01*
G01X5549Y21894D01*
G01X1054Y21894D01*
G01X1054Y23418D01*
G37*
G36*
G01X1054Y28397D02*
G01X5549Y28397D01*
G01X5549Y26873D01*
G01X1054Y26873D01*
G01X1054Y28397D01*
G37*
G36*
G01X1054Y12369D02*
G01X5549Y12369D01*
G01X5549Y10845D01*
G01X1054Y10845D01*
G01X1054Y12369D01*
G37*
G36*
G01X1054Y17348D02*
G01X5549Y17348D01*
G01X5549Y15824D01*
G01X1054Y15824D01*
G01X1054Y17348D01*
G37*
G54D23*
G01X39243Y5969D03*
G01X44323Y5969D03*
G54D27*
G01X32004Y27305D03*
G01X37084Y27305D03*
G01X32004Y23241D03*
G01X37084Y23241D03*
G01X29591Y41402D03*
G01X24511Y41402D03*
G54D21*
G01X39807Y43053D03*
G01X50108Y43053D03*
G01X39807Y39116D03*
G01X50108Y39116D03*
G01X39948Y18669D03*
G01X29647Y18669D03*
G01X39948Y14224D03*
G01X29647Y14224D03*
G01X39948Y10033D03*
G01X29647Y10033D03*
G54D15*
G01X23289Y29751D03*
G01X23030Y11846D03*
G01X21485Y14401D03*
G01X21485Y27995D03*
G01X22943Y33627D03*
G01X17894Y13139D03*
G01X21384Y34267D03*
G01X13139Y21592D03*
G01X24848Y25372D03*
G01X25976Y14531D03*
G01X23632Y30601D03*
G01X11866Y23728D03*
G01X25405Y11706D03*
G01X21209Y35181D03*
G01X24541Y35786D03*
G01X26045Y35783D03*
G01X25900Y29771D03*
G01X25189Y35186D03*
G01X21897Y35740D03*
G01X21028Y16225D03*
G01X45163Y32344D03*
G01X27310Y37205D03*
G01X28895Y20327D03*
G01X9779Y3175D03*
M00*
M02*
